STARTFONT 2.3
FONT -FontForge-Roboto Condensed-Book-R-Condensed---16-160-72-72-P-79-ISO10646-1
SIZE 16 72 72  4
FONTBOUNDINGBOX 28 22 -12 -4
COMMENT "Generated by fontforge, http://fontforge.sourceforge.net"
COMMENT "Copyright 2011 Google Inc. All Rights Reserved."
STARTPROPERTIES 42
FOUNDRY "FontForge"
FAMILY_NAME "Roboto Condensed"
WEIGHT_NAME "Book"
SLANT "R"
SETWIDTH_NAME "Condensed"
ADD_STYLE_NAME ""
PIXEL_SIZE 16
POINT_SIZE 160
RESOLUTION_X 72
RESOLUTION_Y 72
SPACING "P"
AVERAGE_WIDTH 79
CHARSET_REGISTRY "ISO10646"
CHARSET_ENCODING "1"
FONTNAME_REGISTRY ""
CHARSET_COLLECTIONS "ISO8859-2 ISO8859-5 ISO8859-7 ISO8859-9 ISO8859-4 ISO10646-1"
BITS_PER_PIXEL 4
FONT_NAME "RobotoCondensed-Regular"
FACE_NAME "Roboto Condensed"
COPYRIGHT "Copyright 2011 Google Inc. All Rights Reserved."
FONT_VERSION "2.137; 2017"
FONT_ASCENT 12
FONT_DESCENT 4
UNDERLINE_POSITION -2
UNDERLINE_THICKNESS 1
X_HEIGHT 8
CAP_HEIGHT 11
DEFAULT_CHAR 1
RAW_ASCENT 750
RAW_DESCENT 250
NORM_SPACE 4
RELATIVE_WEIGHT 40
RELATIVE_SETWIDTH 50
SUPERSCRIPT_X 0
SUPERSCRIPT_Y 7
SUPERSCRIPT_SIZE 10
SUBSCRIPT_X 0
SUBSCRIPT_Y 2
SUBSCRIPT_SIZE 10
FIGURE_WIDTH 8
AVG_LOWERCASE_WIDTH 78
AVG_UPPERCASE_WIDTH 92
ENDPROPERTIES
CHARS 1296
STARTCHAR uni0000
ENCODING 0
SWIDTH 0 0
DWIDTH 0 0
BBX 1 1 0 0
BITMAP
00
ENDCHAR
STARTCHAR uni0002
ENCODING 2
SWIDTH 0 0
DWIDTH 0 0
BBX 1 1 0 0
BITMAP
00
ENDCHAR
STARTCHAR uni000D
ENCODING 13
SWIDTH 229 0
DWIDTH 4 0
BBX 1 1 0 0
BITMAP
00
ENDCHAR
STARTCHAR space
ENCODING 32
SWIDTH 229 0
DWIDTH 4 0
BBX 1 1 0 0
BITMAP
00
ENDCHAR
STARTCHAR exclam
ENCODING 33
SWIDTH 245 0
DWIDTH 4 0
BBX 2 12 1 0
BITMAP
BA
BA
BA
BA
AA
A9
A9
A9
65
00
55
99
ENDCHAR
STARTCHAR quotedbl
ENCODING 34
SWIDTH 319 0
DWIDTH 5 0
BBX 4 4 1 8
BITMAP
E3C4
E2C4
E1C2
E0C1
ENDCHAR
STARTCHAR numbersign
ENCODING 35
SWIDTH 547 0
DWIDTH 9 0
BBX 8 12 1 0
BITMAP
003D0880
005A0B50
00880D30
7FFFFFF5
11D45D10
01F06A00
03D08800
FFFFFFD0
1891D410
0A60F100
0C42E000
0E24C000
ENDCHAR
STARTCHAR dollar
ENCODING 36
SWIDTH 493 0
DWIDTH 8 0
BBX 7 16 0 -2
BITMAP
00057000
0007A000
008EF900
06F66E70
0AB009C0
0BA00490
07E30000
01CF9200
0017EE30
00001CC0
172006F0
0F6007E0
0AD55EA0
01AFEA10
00098000
00044000
ENDCHAR
STARTCHAR percent
ENCODING 37
SWIDTH 632 0
DWIDTH 10 0
BBX 10 12 0 0
BITMAP
06EC200000
1E27A03800
2D03C0B500
1E27A3C000
06ED3B5000
00003C0000
0000A50000
0003D1BE90
000A56A1C4
003D087096
006506A1C4
000001BE90
ENDCHAR
STARTCHAR ampersand
ENCODING 38
SWIDTH 543 0
DWIDTH 9 0
BBX 9 12 0 0
BITMAP
006EE60000
03F76F2000
06F00E5000
05F23F3000
01EBE90000
008FA00000
04FCD12800
0E91EA5D00
2F405FDA00
1F500AF500
0BD45DF900
01AEE86F40
ENDCHAR
STARTCHAR quotesingle
ENCODING 39
SWIDTH 174 0
DWIDTH 3 0
BBX 2 4 0 8
BITMAP
3F
3E
3D
3D
ENDCHAR
STARTCHAR parenleft
ENCODING 40
SWIDTH 313 0
DWIDTH 5 0
BBX 4 17 1 -4
BITMAP
0046
01E3
0990
1F20
6D00
AA00
D800
E700
F600
E700
D800
AA00
6E00
1F30
0990
01D3
0046
ENDCHAR
STARTCHAR parenright
ENCODING 41
SWIDTH 318 0
DWIDTH 5 0
BBX 4 17 0 -4
BITMAP
6400
3E20
0990
03F2
00E7
00AA
008D
007E
006F
006E
008D
00AB
00D7
02F2
08A0
2D20
6400
ENDCHAR
STARTCHAR asterisk
ENCODING 42
SWIDTH 430 0
DWIDTH 7 0
BBX 7 7 0 5
BITMAP
002F1000
101F0110
9EAFAE80
03BFA200
03E8E100
0B70B900
01001000
ENDCHAR
STARTCHAR plus
ENCODING 43
SWIDTH 496 0
DWIDTH 8 0
BBX 8 9 0 1
BITMAP
00033000
000BA000
000BA000
000BA000
5FFFFFF4
266DC661
000BA000
000BA000
000BA000
ENDCHAR
STARTCHAR comma
ENCODING 44
SWIDTH 196 0
DWIDTH 3 0
BBX 3 4 0 -2
BITMAP
0B40
0F60
4F20
7800
ENDCHAR
STARTCHAR hyphen
ENCODING 45
SWIDTH 248 0
DWIDTH 4 0
BBX 4 2 0 3
BITMAP
9FF9
2332
ENDCHAR
STARTCHAR period
ENCODING 46
SWIDTH 263 0
DWIDTH 4 0
BBX 2 2 1 0
BITMAP
67
AB
ENDCHAR
STARTCHAR slash
ENCODING 47
SWIDTH 370 0
DWIDTH 6 0
BBX 6 13 0 -1
BITMAP
0000E4
0003E0
0008A0
000D50
002F10
007B00
00B600
01F200
06C000
0A7000
0E3000
4D0000
990000
ENDCHAR
STARTCHAR zero
ENCODING 48
SWIDTH 493 0
DWIDTH 8 0
BBX 7 12 0 0
BITMAP
009EE800
07E56F50
0C900AB0
0F5007E0
1F4006F0
1F4006F0
1F4006F0
1F5006F0
0F6007D0
0C900AB0
07F56F50
009EE800
ENDCHAR
STARTCHAR one
ENCODING 49
SWIDTH 493 0
DWIDTH 8 0
BBX 4 12 1 0
BITMAP
004C
2BFF
BA8F
105F
005F
005F
005F
005F
005F
005F
005F
005F
ENDCHAR
STARTCHAR two
ENCODING 50
SWIDTH 493 0
DWIDTH 8 0
BBX 8 12 0 0
BITMAP
01AEE800
0BD46F70
2F400AB0
281008C0
00000B90
00003F30
0001DA00
0009E100
005F4000
02E80000
0BD33331
1FFFFFF4
ENDCHAR
STARTCHAR three
ENCODING 51
SWIDTH 493 0
DWIDTH 8 0
BBX 7 12 0 0
BITMAP
01AED700
0BC46F50
1F500B90
02000BA0
00004F50
005FF900
00137F50
00000AB0
020008C0
2F400AA0
0CC46F40
02AED600
ENDCHAR
STARTCHAR four
ENCODING 52
SWIDTH 493 0
DWIDTH 8 0
BBX 8 12 0 0
BITMAP
00008F20
0001EF20
0009DF20
002F6F20
009A4F20
02F34F20
09B04F20
2F404F20
8FFFFFF6
13336F51
00004F20
00004F20
ENDCHAR
STARTCHAR five
ENCODING 53
SWIDTH 493 0
DWIDTH 8 0
BBX 7 12 1 0
BITMAP
1FFFFE00
2F655500
4F100000
5E000000
6ECFB100
6D66EA00
00007F10
00003F30
21003F30
B9006F10
5F64D900
07DEA100
ENDCHAR
STARTCHAR six
ENCODING 54
SWIDTH 493 0
DWIDTH 8 0
BBX 7 12 1 0
BITMAP
007DB000
0AE73000
4F300000
9B000000
CACFA100
EF65E800
E9008E00
E7005F10
D8004F10
AC007D00
3F85E700
06EE9000
ENDCHAR
STARTCHAR seven
ENCODING 55
SWIDTH 493 0
DWIDTH 8 0
BBX 8 12 0 0
BITMAP
5FFFFFF3
133338E0
00000B90
00002F40
00007D00
0000C800
0003F300
0008D000
000E8000
004F2000
00AC0000
01E70000
ENDCHAR
STARTCHAR eight
ENCODING 56
SWIDTH 493 0
DWIDTH 8 0
BBX 7 12 0 0
BITMAP
009EE800
07E56F60
0C900BA0
0C800AB0
08D23E60
00CFFB00
07E56E50
0E7009C0
1F5006E0
0E6008D0
09D55E70
019EE800
ENDCHAR
STARTCHAR nine
ENCODING 57
SWIDTH 493 0
DWIDTH 8 0
BBX 7 12 0 0
BITMAP
01AED500
08E59F20
0E700E80
2F300AB0
2F3008C0
1F5009D0
0BC15FC0
03EFDAB0
00030B80
00003F30
0037EA00
00CD7000
ENDCHAR
STARTCHAR colon
ENCODING 58
SWIDTH 233 0
DWIDTH 4 0
BBX 2 9 1 0
BITMAP
76
BA
00
00
00
00
00
76
BA
ENDCHAR
STARTCHAR semicolon
ENCODING 59
SWIDTH 202 0
DWIDTH 3 0
BBX 3 11 0 -2
BITMAP
0940
0D70
0000
0000
0000
0000
0000
0A60
0E70
2F40
6900
ENDCHAR
STARTCHAR less
ENCODING 60
SWIDTH 445 0
DWIDTH 7 0
BBX 6 7 0 2
BITMAP
00003B
002AFB
18FB40
6F7000
18FB40
002AFB
00003B
ENDCHAR
STARTCHAR equal
ENCODING 61
SWIDTH 479 0
DWIDTH 8 0
BBX 6 5 1 2
BITMAP
DFFFFA
344443
000000
DFFFFA
344442
ENDCHAR
STARTCHAR greater
ENCODING 62
SWIDTH 459 0
DWIDTH 7 0
BBX 6 7 1 2
BITMAP
B40000
AFB300
029FA2
0004EA
03AFA2
AFB300
B40000
ENDCHAR
STARTCHAR question
ENCODING 63
SWIDTH 421 0
DWIDTH 7 0
BBX 7 12 0 0
BITMAP
04CEB200
1EA5DB00
4E106F00
00005F10
0000BC00
0006F400
002E7000
007E1000
00580000
00000000
00370000
006C0000
ENDCHAR
STARTCHAR at
ENCODING 64
SWIDTH 769 0
DWIDTH 12 0
BBX 12 14 0 -3
BITMAP
00018DED8100
002D93138C10
00B700000790
05C008EC30D1
0A606C2A7095
0E30C50A6077
0F11F10C5067
1F03E00D3077
0F04E00E30A4
0D31F58F54D0
0A708E95ED40
03E200000000
007D51143000
0005BEEB3000
ENDCHAR
STARTCHAR A
ENCODING 65
SWIDTH 576 0
DWIDTH 9 0
BBX 9 12 0 0
BITMAP
0002F60000
0007FA0000
000BCE1000
001F4F5000
006E0B9000
00AB07E000
00E703F300
04F300E800
09FFFFFD00
0DA4447F20
3F40001F70
8E00000BB0
ENDCHAR
STARTCHAR B
ENCODING 66
SWIDTH 545 0
DWIDTH 9 0
BBX 7 12 1 0
BITMAP
CFFFD600
CB449F30
CA000E80
CA000E80
CA006F30
CFFFF800
CB337F40
CA000CA0
CA000AC0
CA000CA0
CB448F40
CFFFD600
ENDCHAR
STARTCHAR C
ENCODING 67
SWIDTH 566 0
DWIDTH 9 0
BBX 8 12 1 0
BITMAP
03BED910
2EB56DA0
9D0005F2
E90002C3
F7000000
F6000000
F6000000
F7000000
D80002C3
9D0005F2
2EA45DA0
03CFD810
ENDCHAR
STARTCHAR D
ENCODING 68
SWIDTH 570 0
DWIDTH 9 0
BBX 8 12 1 0
BITMAP
CFFEB300
CB45BE30
CA000CB0
CA0006F0
CA0005F2
CA0004F2
CA0004F2
CA0005F2
CA0007F0
CA000DB0
CB45BE30
CFFEB300
ENDCHAR
STARTCHAR E
ENCODING 69
SWIDTH 496 0
DWIDTH 8 0
BBX 7 12 1 0
BITMAP
CFFFFF40
CB444410
CA000000
CA000000
CA000000
CFFFFA00
CB444200
CA000000
CA000000
CA000000
CB444410
CFFFFF50
ENDCHAR
STARTCHAR F
ENCODING 70
SWIDTH 480 0
DWIDTH 8 0
BBX 7 12 1 0
BITMAP
CFFFFF20
CB444410
CA000000
CA000000
CA000000
CFFFF800
CB444200
CA000000
CA000000
CA000000
CA000000
CA000000
ENDCHAR
STARTCHAR G
ENCODING 71
SWIDTH 590 0
DWIDTH 9 0
BBX 8 12 1 0
BITMAP
04CFD910
4FA46DB0
AC0005F2
E8000172
F6000000
F6000000
F602FFF5
F70034F5
E80001F5
9D0001F5
2EB54AF3
03BEEB40
ENDCHAR
STARTCHAR H
ENCODING 72
SWIDTH 620 0
DWIDTH 10 0
BBX 8 12 1 0
BITMAP
CA0000CA
CA0000CA
CA0000CA
CA0000CA
CA0000CA
CFFFFFFA
CB4444CA
CA0000CA
CA0000CA
CA0000CA
CA0000CA
CA0000CA
ENDCHAR
STARTCHAR I
ENCODING 73
SWIDTH 250 0
DWIDTH 4 0
BBX 2 12 1 0
BITMAP
BB
BB
BB
BB
BB
BB
BB
BB
BB
BB
BB
BB
ENDCHAR
STARTCHAR J
ENCODING 74
SWIDTH 483 0
DWIDTH 8 0
BBX 7 12 0 0
BITMAP
00000D90
00000D90
00000D90
00000D90
00000D90
00000D90
00000D90
00000D90
24000D80
6F101F70
2FA4AE10
04CEC400
ENDCHAR
STARTCHAR K
ENCODING 75
SWIDTH 544 0
DWIDTH 9 0
BBX 8 12 1 0
BITMAP
CA000AE1
CA006F50
CA02E900
CA0BD100
CA6F4000
CCED0000
CFCF6000
CD19E100
CA02E900
CA007F30
CA000DC0
CA0005F6
ENDCHAR
STARTCHAR L
ENCODING 76
SWIDTH 475 0
DWIDTH 8 0
BBX 7 12 1 0
BITMAP
CA000000
CA000000
CA000000
CA000000
CA000000
CA000000
CA000000
CA000000
CA000000
CA000000
CB444400
CFFFFF20
ENDCHAR
STARTCHAR M
ENCODING 77
SWIDTH 755 0
DWIDTH 12 0
BBX 10 12 1 0
BITMAP
CF300002FD
CF800007FD
CFD0000BFD
CBF2001FBD
C9D7005E8D
C99B00AA8D
C94F10E58D
CA0E54F19D
CA09A8A09D
CA05ED609D
CA01EF109D
CA00AB009D
ENDCHAR
STARTCHAR N
ENCODING 78
SWIDTH 619 0
DWIDTH 10 0
BBX 8 12 1 0
BITMAP
CD0000CA
CF6000CA
CFD000CA
CBE600CA
CA7D00CA
CA1E60CA
CA07D0CA
CA01E5CA
CA008DCA
CA001EFA
CA0008FA
CA0001EA
ENDCHAR
STARTCHAR O
ENCODING 79
SWIDTH 600 0
DWIDTH 10 0
BBX 8 12 1 0
BITMAP
03BFE910
2EB67EB0
9D0004F3
D80000E7
F70000D9
F60000C9
F60000C9
F70000D9
D80000E7
9D0004F4
2EB56EB0
03BFE910
ENDCHAR
STARTCHAR P
ENCODING 80
SWIDTH 554 0
DWIDTH 9 0
BBX 8 12 1 0
BITMAP
CFFFD910
CB446EA0
CA0006F1
CA0003F3
CA0005F2
CA002CC0
CFFFFD30
CB432000
CA000000
CA000000
CA000000
CA000000
ENDCHAR
STARTCHAR Q
ENCODING 81
SWIDTH 600 0
DWIDTH 10 0
BBX 9 14 0 -2
BITMAP
004CFE8000
03FB57EA00
0AD0005F20
0E70000F60
1F60000E80
1F50000D80
1F50000D80
1F60000D80
0E80000F60
0AC0005F30
03FB57EA00
004CFEF500
0000009F50
0000000720
ENDCHAR
STARTCHAR R
ENCODING 82
SWIDTH 530 0
DWIDTH 9 0
BBX 8 12 1 0
BITMAP
CFFFC500
CB449F40
CA000CA0
CA000AC0
CA000CB0
CA006F50
CFFFF800
CB45F400
CA00CB00
CA006F30
CA000E90
CA0008F1
ENDCHAR
STARTCHAR S
ENCODING 83
SWIDTH 518 0
DWIDTH 8 0
BBX 8 12 0 0
BITMAP
008DEB30
08E64AE2
0E8001E7
0F700054
0BE30000
02DFB400
0006DFA0
000006F5
271000D9
3F5000E8
0BE649F3
018DEC40
ENDCHAR
STARTCHAR T
ENCODING 84
SWIDTH 520 0
DWIDTH 8 0
BBX 8 12 0 0
BITMAP
8FFFFFFD
244AE443
0008D000
0008D000
0008D000
0008D000
0008D000
0008D000
0008D000
0008D000
0008D000
0008D000
ENDCHAR
STARTCHAR U
ENCODING 85
SWIDTH 561 0
DWIDTH 9 0
BBX 7 12 1 0
BITMAP
F70006F0
F70006F0
F70006F0
F70006F0
F70006F0
F70006F0
F70006F0
F70006F0
E70007F0
C90009D0
6F747F60
07DED600
ENDCHAR
STARTCHAR V
ENCODING 86
SWIDTH 560 0
DWIDTH 9 0
BBX 9 12 0 0
BITMAP
8F10001F80
3F40005F30
0E80009E00
0AC000D900
05F102F500
01F506F100
00B90AB000
007D0E7000
003F5F2000
000DDD0000
0009F80000
0004F40000
ENDCHAR
STARTCHAR W
ENCODING 87
SWIDTH 761 0
DWIDTH 12 0
BBX 12 12 0 0
BITMAP
5F1008E000BA
2F400BF200E7
0E600EF501F4
0C902FA804F2
09B06C6B06E0
06E0993E09B0
03F2C50E2B80
01F5F20B6E50
00DAD008AF20
00AEA005EE00
007F7002FC00
004F3000D900
ENDCHAR
STARTCHAR X
ENCODING 88
SWIDTH 550 0
DWIDTH 9 0
BBX 9 12 0 0
BITMAP
2F8000AE10
0AE102F800
02F709E100
00AD2F8000
002FDE1000
000AF80000
000BF80000
003FCF1000
00BD1E8000
03F608F100
0BE002F800
3F70009F10
ENDCHAR
STARTCHAR Y
ENCODING 89
SWIDTH 524 0
DWIDTH 8 0
BBX 8 12 0 0
BITMAP
8F1000AE
2F7001F7
0AC007F1
04F30DA0
00D93F30
006EAC00
001EF500
0009E000
0008E000
0008E000
0008E000
0008E000
ENDCHAR
STARTCHAR Z
ENCODING 90
SWIDTH 522 0
DWIDTH 8 0
BBX 8 12 0 0
BITMAP
4FFFFFF7
144447F4
00000CB0
00005F30
0000DA00
0006F200
001D9000
007E1000
01E80000
08E10000
2F944442
4FFFFFFB
ENDCHAR
STARTCHAR bracketleft
ENCODING 91
SWIDTH 250 0
DWIDTH 4 0
BBX 3 15 1 -2
BITMAP
EFA0
E820
E700
E700
E700
E700
E700
E700
E700
E700
E700
E700
E700
E820
EFA0
ENDCHAR
STARTCHAR backslash
ENCODING 92
SWIDTH 369 0
DWIDTH 6 0
BBX 6 13 0 -1
BITMAP
7D0000
2F2000
0C7000
08C000
03F100
00E600
009A00
004E10
000E50
000A90
0006E0
0001F3
0000B8
ENDCHAR
STARTCHAR bracketright
ENCODING 93
SWIDTH 250 0
DWIDTH 4 0
BBX 3 15 0 -2
BITMAP
CFD0
29D0
08D0
08D0
08D0
08D0
08D0
08D0
08D0
08D0
08D0
08D0
08D0
29D0
CFD0
ENDCHAR
STARTCHAR asciicircum
ENCODING 94
SWIDTH 371 0
DWIDTH 6 0
BBX 6 6 0 6
BITMAP
00A900
00EE00
05CD40
0A8990
0E45D0
4E01F3
ENDCHAR
STARTCHAR underscore
ENCODING 95
SWIDTH 404 0
DWIDTH 6 0
BBX 7 2 0 -2
BITMAP
CFFFFF40
23333310
ENDCHAR
STARTCHAR grave
ENCODING 96
SWIDTH 309 0
DWIDTH 5 0
BBX 4 2 0 10
BITMAP
2DA0
02D5
ENDCHAR
STARTCHAR a
ENCODING 97
SWIDTH 479 0
DWIDTH 8 0
BBX 7 9 0 0
BITMAP
019EE800
09D46F50
0C700D80
00000C80
02AEFF80
0CB31C80
1F500C80
0EA59F90
04DE9BB0
ENDCHAR
STARTCHAR b
ENCODING 98
SWIDTH 493 0
DWIDTH 8 0
BBX 7 12 1 0
BITMAP
E6000000
E6000000
E6000000
E9CFB200
EE55EA00
E7006F00
E6004F20
E6003F20
E6004F10
E7006F00
EE55DA00
E7CFB100
ENDCHAR
STARTCHAR c
ENCODING 99
SWIDTH 461 0
DWIDTH 7 0
BBX 7 9 0 0
BITMAP
01AEE800
0AD45E60
1F5009B0
3F300120
4F200000
3F300000
1F5008A0
0AD45E60
01AEE800
ENDCHAR
STARTCHAR d
ENCODING 100
SWIDTH 496 0
DWIDTH 8 0
BBX 7 12 0 0
BITMAP
000008D0
000008D0
000008D0
02BFCAD0
0BD56ED0
1F5008D0
3F3008D0
4F2008D0
3F3008D0
1F5008D0
0BD55ED0
02BFC9D0
ENDCHAR
STARTCHAR e
ENCODING 101
SWIDTH 468 0
DWIDTH 8 0
BBX 7 9 0 0
BITMAP
01AEE800
09D46F50
0F600BA0
2F3008D0
3FFFFFD0
3F533320
1F500000
0AD54A80
019EEB20
ENDCHAR
STARTCHAR f
ENCODING 102
SWIDTH 316 0
DWIDTH 5 0
BBX 5 12 0 0
BITMAP
007ED0
03F830
05F100
7FFF70
17F210
05F000
05F000
05F000
05F000
05F000
05F000
05F000
ENDCHAR
STARTCHAR g
ENCODING 103
SWIDTH 492 0
DWIDTH 8 0
BBX 7 12 0 -3
BITMAP
02BFC8D0
0BD56ED0
1F6008D0
3F3008D0
3F2008D0
3F3008D0
1F5008D0
0AD55ED0
02BFCAD0
000009B0
06846E60
03BED800
ENDCHAR
STARTCHAR h
ENCODING 104
SWIDTH 482 0
DWIDTH 8 0
BBX 6 12 1 0
BITMAP
F60000
F60000
F60000
F9CEA1
FF66F6
F800B9
F600AB
F600AB
F600AB
F600AB
F600AB
F600AB
ENDCHAR
STARTCHAR i
ENCODING 105
SWIDTH 229 0
DWIDTH 4 0
BBX 2 12 1 0
BITMAP
74
B7
00
D8
D8
D8
D8
D8
D8
D8
D8
D8
ENDCHAR
STARTCHAR j
ENCODING 106
SWIDTH 223 0
DWIDTH 4 0
BBX 4 15 -1 -3
BITMAP
0083
00D5
0000
00E7
00E7
00E7
00E7
00E7
00E7
00E7
00E7
00E7
00E7
15F5
2EB0
ENDCHAR
STARTCHAR k
ENCODING 107
SWIDTH 450 0
DWIDTH 7 0
BBX 6 12 1 0
BITMAP
E60000
E60000
E60000
E604F5
E60DA0
E68D10
E9F400
EFF700
ECAE10
E61E90
E607F3
E600CC
ENDCHAR
STARTCHAR l
ENCODING 108
SWIDTH 229 0
DWIDTH 4 0
BBX 2 12 1 0
BITMAP
D8
D8
D8
D8
D8
D8
D8
D8
D8
D8
D8
D8
ENDCHAR
STARTCHAR m
ENCODING 109
SWIDTH 752 0
DWIDTH 12 0
BBX 10 9 1 0
BITMAP
E8CEA2BEC2
ED56FE85DB
E700BD007E
E600AB006F
E600AB006F
E600AB006F
E600AB006F
E600AB006F
E600AB006F
ENDCHAR
STARTCHAR n
ENCODING 110
SWIDTH 483 0
DWIDTH 8 0
BBX 6 9 1 0
BITMAP
F8CEA1
FE66F6
F800B9
F600AB
F600AB
F600AB
F600AB
F600AB
F600AB
ENDCHAR
STARTCHAR o
ENCODING 111
SWIDTH 501 0
DWIDTH 8 0
BBX 8 9 0 0
BITMAP
009EE910
08E55E90
1F6006F1
3F3002F3
4F2001F4
3F3002F3
1F6005F1
09E54D90
019EE910
ENDCHAR
STARTCHAR p
ENCODING 112
SWIDTH 493 0
DWIDTH 8 0
BBX 7 12 1 -3
BITMAP
E7CEB100
ED56EA00
E7007F00
E6004F10
E6004F20
E6004F20
E7007F00
ED55EA00
E9CEA100
E6000000
E6000000
E6000000
ENDCHAR
STARTCHAR q
ENCODING 113
SWIDTH 500 0
DWIDTH 8 0
BBX 7 12 0 -3
BITMAP
02BFC9D0
0BD45ED0
1F5008D0
3F3008D0
4F2008D0
3F3008D0
1F5008D0
0BD45ED0
02BFBAD0
000008D0
000008D0
000008D0
ENDCHAR
STARTCHAR r
ENCODING 114
SWIDTH 304 0
DWIDTH 5 0
BBX 4 9 1 0
BITMAP
F9D7
FE83
F800
F600
F600
F600
F600
F600
F600
ENDCHAR
STARTCHAR s
ENCODING 115
SWIDTH 455 0
DWIDTH 7 0
BBX 7 9 0 0
BITMAP
02BED500
0BC48F30
0E700940
0AE50000
019FD500
0001AF40
2B300E70
0DB46F40
02BED700
ENDCHAR
STARTCHAR t
ENCODING 116
SWIDTH 295 0
DWIDTH 5 0
BBX 5 11 0 0
BITMAP
08D000
08D000
CFFF20
29D200
08D000
08D000
08D000
08D000
08D000
06F410
01CE10
ENDCHAR
STARTCHAR u
ENCODING 117
SWIDTH 483 0
DWIDTH 8 0
BBX 6 9 1 0
BITMAP
F600AA
F600AA
F600AA
F600AA
F600AA
F600AA
E700BA
AD48FA
2CEABA
ENDCHAR
STARTCHAR v
ENCODING 118
SWIDTH 427 0
DWIDTH 7 0
BBX 7 9 0 0
BITMAP
8D001F40
3F205F10
0E608B00
0A90C700
06D1F300
01F6E000
00CD9000
008F5000
004F1000
ENDCHAR
STARTCHAR w
ENCODING 119
SWIDTH 649 0
DWIDTH 10 0
BBX 10 9 0 0
BITMAP
7D007D007D
4F10BF20AA
1F40EE50D6
0C74E991F3
09A7A5D4E0
05EB71F9B0
02FF30CE70
00DE009F40
00AA005F10
ENDCHAR
STARTCHAR x
ENCODING 120
SWIDTH 438 0
DWIDTH 7 0
BBX 7 9 0 0
BITMAP
4F404F40
0BB0BB00
04F5F400
00BFB000
005F5000
00CEC000
05F4F400
0CA0AC00
5F303F50
ENDCHAR
STARTCHAR y
ENCODING 121
SWIDTH 416 0
DWIDTH 7 0
BBX 7 12 0 -3
BITMAP
9E004F30
4F207E00
0E60BA00
0AA0E500
06E3F100
02FAC000
00CF8000
008F3000
005E0000
008A0000
16E40000
4E800000
ENDCHAR
STARTCHAR z
ENCODING 122
SWIDTH 438 0
DWIDTH 7 0
BBX 7 9 0 0
BITMAP
4FFFFF40
1333AE10
0002F600
000BC000
004F3000
00DA0000
07E20000
1E933310
4FFFFF60
ENDCHAR
STARTCHAR braceleft
ENCODING 123
SWIDTH 306 0
DWIDTH 5 0
BBX 5 15 0 -3
BITMAP
000960
009C10
00E600
01F500
01F400
02F400
08E100
7F7000
19E100
02F400
01F400
01F500
00E600
009C10
000960
ENDCHAR
STARTCHAR bar
ENCODING 124
SWIDTH 243 0
DWIDTH 4 0
BBX 2 14 1 -2
BITMAP
98
98
98
98
98
98
98
98
98
98
98
98
98
98
ENDCHAR
STARTCHAR braceright
ENCODING 125
SWIDTH 306 0
DWIDTH 5 0
BBX 5 15 0 -3
BITMAP
880000
1D7000
08C000
06E000
06F000
06F000
02F600
008F50
01E810
05F000
06F000
06E000
08D000
1D7000
880000
ENDCHAR
STARTCHAR asciitilde
ENCODING 126
SWIDTH 589 0
DWIDTH 9 0
BBX 8 4 1 3
BITMAP
01300011
4EFA00B6
B82DB6F2
E302CE60
ENDCHAR
STARTCHAR uni00A0
ENCODING 160
SWIDTH 229 0
DWIDTH 4 0
BBX 1 1 0 0
BITMAP
00
ENDCHAR
STARTCHAR exclamdown
ENCODING 161
SWIDTH 231 0
DWIDTH 4 0
BBX 2 12 1 -3
BITMAP
B7
74
00
75
B8
B8
C8
C8
C9
C9
C9
D9
ENDCHAR
STARTCHAR cent
ENCODING 162
SWIDTH 479 0
DWIDTH 8 0
BBX 7 13 0 -2
BITMAP
00087000
000B9000
009FF900
07E44E70
0E7008C0
2F400000
3F300000
2F400000
0E700690
08D33D80
009FF900
000B9000
000A8000
ENDCHAR
STARTCHAR sterling
ENCODING 163
SWIDTH 510 0
DWIDTH 8 0
BBX 8 12 0 0
BITMAP
002BFD40
00BC5AE1
02F501F5
04F20021
04F20000
04F30000
4FFFF300
16F64100
03F40000
04F30000
19F44442
3FFFFFFA
ENDCHAR
STARTCHAR currency
ENCODING 164
SWIDTH 712 0
DWIDTH 11 0
BBX 10 11 1 0
BITMAP
1000000010
C85CED93D6
8FFA67DFE2
4F60001DB0
AB000004F2
D7000000F5
D7000000F5
AB000004F2
4F60001DB0
BFFA67DFF4
A66CFE93B4
ENDCHAR
STARTCHAR yen
ENCODING 165
SWIDTH 463 0
DWIDTH 7 0
BBX 8 12 0 0
BITMAP
9F1009E1
3F600E90
0CB05F30
06F2AC00
01E8F600
009FE100
0FFFFF70
000F6000
0FFFFF70
000F6000
000F6000
000F6000
ENDCHAR
STARTCHAR brokenbar
ENCODING 166
SWIDTH 239 0
DWIDTH 4 0
BBX 2 14 1 -2
BITMAP
D9
D9
D9
D9
D9
D9
D9
00
D9
D9
D9
D9
D9
D9
ENDCHAR
STARTCHAR section
ENCODING 167
SWIDTH 537 0
DWIDTH 9 0
BBX 8 16 0 -4
BITMAP
008DEC30
08E64AE2
0D8001E6
0D800064
08F71000
06FFE920
1F718EE2
3F3002E9
1F7000AB
09FA42E8
006DFFC1
00004CE1
281001F5
2F5001F5
0BD54AE1
019DEB30
ENDCHAR
STARTCHAR dieresis
ENCODING 168
SWIDTH 417 0
DWIDTH 7 0
BBX 6 2 0 10
BITMAP
082055
1E50AA
ENDCHAR
STARTCHAR copyright
ENCODING 169
SWIDTH 785 0
DWIDTH 13 0
BBX 12 12 0 0
BITMAP
0003ADEC7000
006D6213AC10
03D24DEA17B0
0B42E41C70B4
1D06B0058059
3A089000002B
3A089000002B
1D06B0059059
0B42E41B70B4
03D25DEA17B0
006D6213AC10
0003ADEC7100
ENDCHAR
STARTCHAR ordfeminine
ENCODING 170
SWIDTH 395 0
DWIDTH 6 0
BBX 5 6 1 6
BITMAP
5DE800
553F10
4DFF30
C80F30
D84F30
6ECE40
ENDCHAR
STARTCHAR guillemotleft
ENCODING 171
SWIDTH 417 0
DWIDTH 7 0
BBX 6 6 0 1
BITMAP
00976A
04D2E2
1D5B90
1D5B90
04D2E2
00976A
ENDCHAR
STARTCHAR logicalnot
ENCODING 172
SWIDTH 487 0
DWIDTH 8 0
BBX 6 3 1 3
BITMAP
FFFFF8
4444E8
0000D8
ENDCHAR
STARTCHAR uni00AD
ENCODING 173
SWIDTH 248 0
DWIDTH 4 0
BBX 4 2 0 3
BITMAP
9FF9
2332
ENDCHAR
STARTCHAR registered
ENCODING 174
SWIDTH 786 0
DWIDTH 13 0
BBX 12 12 0 0
BITMAP
0003ADEC7000
006D6213AC10
04D1FFEB17B0
0B40F20990B4
2D00F21A8059
4A00FFFE102B
4A00F21B703B
1D00F207A059
0C40F206B0B4
04D2000007B0
006D6113AC10
0003AEEC7100
ENDCHAR
STARTCHAR macron
ENCODING 175
SWIDTH 414 0
DWIDTH 7 0
BBX 5 2 1 9
BITMAP
DFFFA0
222210
ENDCHAR
STARTCHAR degree
ENCODING 176
SWIDTH 373 0
DWIDTH 6 0
BBX 4 4 1 8
BITMAP
4DD4
D43D
D33D
4DD4
ENDCHAR
STARTCHAR plusminus
ENCODING 177
SWIDTH 469 0
DWIDTH 8 0
BBX 7 11 0 0
BITMAP
00032000
000B8000
000B8000
000B8000
3FFFFFD0
033C9320
000B8000
000B8000
00075000
03333320
0EFFFF80
ENDCHAR
STARTCHAR uni00B2
ENCODING 178
SWIDTH 329 0
DWIDTH 5 0
BBX 5 7 0 5
BITMAP
09EB10
5E1C60
120C60
005E10
02E500
0C8000
5FFFA0
ENDCHAR
STARTCHAR uni00B3
ENCODING 179
SWIDTH 329 0
DWIDTH 5 0
BBX 5 7 0 5
BITMAP
1BFC20
262D60
02FD10
001C60
240980
5E1C60
0AEA00
ENDCHAR
STARTCHAR acute
ENCODING 180
SWIDTH 313 0
DWIDTH 5 0
BBX 3 2 1 10
BITMAP
2DA0
9A00
ENDCHAR
STARTCHAR mu
ENCODING 181
SWIDTH 498 0
DWIDTH 8 0
BBX 6 12 1 -3
BITMAP
D8008C
D8008C
D8008C
D8008C
D8008C
D8008C
DA009C
DE45EC
DCED9C
D80000
D80000
D80000
ENDCHAR
STARTCHAR paragraph
ENCODING 182
SWIDTH 434 0
DWIDTH 7 0
BBX 6 12 0 0
BITMAP
002564
05FFFB
1EFFFB
5FFFFB
6FFFFB
4FFFFB
0DFFFB
02AEFB
0000AB
0000AB
0000AB
0000AB
ENDCHAR
STARTCHAR periodcentered
ENCODING 183
SWIDTH 243 0
DWIDTH 4 0
BBX 2 2 1 5
BITMAP
B8
75
ENDCHAR
STARTCHAR cedilla
ENCODING 184
SWIDTH 229 0
DWIDTH 4 0
BBX 2 3 1 -3
BITMAP
D1
3B
E9
ENDCHAR
STARTCHAR uni00B9
ENCODING 185
SWIDTH 329 0
DWIDTH 5 0
BBX 4 7 0 5
BITMAP
03A7
1CD7
00A7
00A7
00A7
00A7
00A7
ENDCHAR
STARTCHAR ordmasculine
ENCODING 186
SWIDTH 402 0
DWIDTH 6 0
BBX 6 6 0 6
BITMAP
03CE80
0C83E4
1F20B7
1F20B7
0C83E4
03DE80
ENDCHAR
STARTCHAR guillemotright
ENCODING 187
SWIDTH 417 0
DWIDTH 7 0
BBX 6 6 0 1
BITMAP
1D3980
06C1E3
00C77C
00C77C
06C1E3
1D3980
ENDCHAR
STARTCHAR onequarter
ENCODING 188
SWIDTH 637 0
DWIDTH 10 0
BBX 10 12 0 0
BITMAP
05C3000000
5BF3000000
00F3003800
00F300C400
00F305B000
00F30D3000
00006908E0
0001D22EE0
000880A8E0
002D14B3E0
00560AFFF9
00000003E0
ENDCHAR
STARTCHAR onehalf
ENCODING 189
SWIDTH 677 0
DWIDTH 11 0
BBX 10 12 0 0
BITMAP
05C3000000
5BF3000000
00F3007400
00F301D100
00F3096000
00F32D0000
0000B56ED4
0004C1E48B
000C4000A9
005A0007D1
0092006D20
000000FFFF
ENDCHAR
STARTCHAR threequarters
ENCODING 190
SWIDTH 673 0
DWIDTH 11 0
BBX 11 12 0 0
BITMAP
09EE50000000
0428B0000000
00CF40065000
0007B01D1000
1B37C0880000
08ED42D10000
00000961E700
00003D09E700
0000B53CA700
0004B0B4A700
000832FFFF20
00000000A700
ENDCHAR
STARTCHAR questiondown
ENCODING 191
SWIDTH 421 0
DWIDTH 7 0
BBX 6 12 0 -3
BITMAP
004D10
002800
000000
003A10
007E00
01D900
0AD100
2F5000
6F0000
5F006F
2F95DA
05DEA1
ENDCHAR
STARTCHAR Agrave
ENCODING 192
SWIDTH 576 0
DWIDTH 9 0
BBX 9 15 0 0
BITMAP
005F700000
0004D20000
0000000000
0002F60000
0007FA0000
000BCE1000
001F4F5000
006E0B9000
00AB07E000
00E703F300
04F300E800
09FFFFFD00
0DA4447F20
3F40001F70
8E00000BB0
ENDCHAR
STARTCHAR Aacute
ENCODING 193
SWIDTH 576 0
DWIDTH 9 0
BBX 9 15 0 0
BITMAP
00003E9000
0000B80000
0000000000
0002F60000
0007FA0000
000BCE1000
001F4F5000
006E0B9000
00AB07E000
00E703F300
04F300E800
09FFFFFD00
0DA4447F20
3F40001F70
8E00000BB0
ENDCHAR
STARTCHAR Acircumflex
ENCODING 194
SWIDTH 576 0
DWIDTH 9 0
BBX 9 15 0 0
BITMAP
0005E90000
002C3B5000
0000000000
0002F60000
0007FA0000
000BCE1000
001F4F5000
006E0B9000
00AB07E000
00E703F300
04F300E800
09FFFFFD00
0DA4447F20
3F40001F70
8E00000BB0
ENDCHAR
STARTCHAR Atilde
ENCODING 195
SWIDTH 576 0
DWIDTH 9 0
BBX 9 16 0 0
BITMAP
0001003000
004FA3E000
00956E7000
0000000000
0002F60000
0007FA0000
000BCE1000
001F4F5000
006E0B9000
00AB07E000
00E703F300
04F300E800
09FFFFFD00
0DA4447F20
3F40001F70
8E00000BB0
ENDCHAR
STARTCHAR Adieresis
ENCODING 196
SWIDTH 576 0
DWIDTH 9 0
BBX 9 15 0 0
BITMAP
0065028000
00AA05E100
0000000000
0002F60000
0007FA0000
000BCE1000
001F4F5000
006E0B9000
00AB07E000
00E703F300
04F300E800
09FFFFFD00
0DA4447F20
3F40001F70
8E00000BB0
ENDCHAR
STARTCHAR Aring
ENCODING 197
SWIDTH 576 0
DWIDTH 9 0
BBX 9 16 0 0
BITMAP
0008BA1000
000C084000
0008BB1000
0000000000
0002F60000
0007FA0000
000BCE1000
001F4F5000
006E0B9000
00AB07E000
00E703F300
04F300E800
09FFFFFD00
0DA4447F20
3F40001F70
8E00000BB0
ENDCHAR
STARTCHAR AE
ENCODING 198
SWIDTH 812 0
DWIDTH 13 0
BBX 13 12 0 0
BITMAP
000007FFFFFF30
00001EFB333310
00007EAB000000
0000D89C000000
0006F29C000000
000DB08FFFFA00
006F408D333200
00DD008E000000
05FFFFFE000000
0CD5559F000000
4F60006F333320
CD00005FFFFF90
ENDCHAR
STARTCHAR Ccedilla
ENCODING 199
SWIDTH 566 0
DWIDTH 9 0
BBX 8 15 1 -3
BITMAP
03BED910
2EB56DA0
9D0005F2
E90002C3
F7000000
F6000000
F6000000
F7000000
D80002C3
9D0005F2
2EA45DA0
03CFD810
000D2000
0003C000
000EA000
ENDCHAR
STARTCHAR Egrave
ENCODING 200
SWIDTH 496 0
DWIDTH 8 0
BBX 7 15 1 0
BITMAP
0AD20000
00A90000
00000000
CFFFFF40
CB444410
CA000000
CA000000
CA000000
CFFFFA00
CB444200
CA000000
CA000000
CA000000
CB444410
CFFFFF50
ENDCHAR
STARTCHAR Eacute
ENCODING 201
SWIDTH 496 0
DWIDTH 8 0
BBX 7 15 1 0
BITMAP
0008E300
003D3000
00000000
CFFFFF40
CB444410
CA000000
CA000000
CA000000
CFFFFA00
CB444200
CA000000
CA000000
CA000000
CB444410
CFFFFF50
ENDCHAR
STARTCHAR Ecircumflex
ENCODING 202
SWIDTH 496 0
DWIDTH 8 0
BBX 7 15 1 0
BITMAP
01BE4000
07A4C100
00000000
CFFFFF40
CB444410
CA000000
CA000000
CA000000
CFFFFA00
CB444200
CA000000
CA000000
CA000000
CB444410
CFFFFF50
ENDCHAR
STARTCHAR Edieresis
ENCODING 203
SWIDTH 496 0
DWIDTH 8 0
BBX 7 15 1 0
BITMAP
18206500
2E40B900
00000000
CFFFFF40
CB444410
CA000000
CA000000
CA000000
CFFFFA00
CB444200
CA000000
CA000000
CA000000
CB444410
CFFFFF50
ENDCHAR
STARTCHAR Igrave
ENCODING 204
SWIDTH 250 0
DWIDTH 4 0
BBX 4 15 -1 0
BITMAP
1CB1
01C6
0000
00BB
00BB
00BB
00BB
00BB
00BB
00BB
00BB
00BB
00BB
00BB
00BB
ENDCHAR
STARTCHAR Iacute
ENCODING 205
SWIDTH 250 0
DWIDTH 4 0
BBX 4 15 1 0
BITMAP
1BC1
6C10
0000
BB00
BB00
BB00
BB00
BB00
BB00
BB00
BB00
BB00
BB00
BB00
BB00
ENDCHAR
STARTCHAR Icircumflex
ENCODING 206
SWIDTH 250 0
DWIDTH 4 0
BBX 4 15 0 0
BITMAP
2DC2
A77A
0000
0BB0
0BB0
0BB0
0BB0
0BB0
0BB0
0BB0
0BB0
0BB0
0BB0
0BB0
0BB0
ENDCHAR
STARTCHAR Idieresis
ENCODING 207
SWIDTH 250 0
DWIDTH 4 0
BBX 6 15 -1 0
BITMAP
380083
5D11D6
000000
00BB00
00BB00
00BB00
00BB00
00BB00
00BB00
00BB00
00BB00
00BB00
00BB00
00BB00
00BB00
ENDCHAR
STARTCHAR Eth
ENCODING 208
SWIDTH 585 0
DWIDTH 9 0
BBX 9 12 0 0
BITMAP
08FFFC5000
08E449F600
08D0008E00
08D0003F30
08D0001F50
DFFF601F60
29E3101F60
08D0001F50
08D0003F30
08D0009E00
08E459F600
08FFEC5000
ENDCHAR
STARTCHAR Ntilde
ENCODING 209
SWIDTH 619 0
DWIDTH 10 0
BBX 8 16 1 0
BITMAP
00000210
01DD4C30
0593DB00
00000000
CD0000CA
CF6000CA
CFD000CA
CBE600CA
CA7D00CA
CA1E60CA
CA07D0CA
CA01E5CA
CA008DCA
CA001EFA
CA0008FA
CA0001EA
ENDCHAR
STARTCHAR Ograve
ENCODING 210
SWIDTH 600 0
DWIDTH 10 0
BBX 8 15 1 0
BITMAP
03E90000
003D4000
00000000
03BFE910
2EB67EB0
9D0004F3
D80000E7
F70000D9
F60000C9
F60000C9
F70000D9
D80000E7
9D0004F4
2EB56EB0
03BFE910
ENDCHAR
STARTCHAR Oacute
ENCODING 211
SWIDTH 600 0
DWIDTH 10 0
BBX 8 15 1 0
BITMAP
0002DB10
0008A000
00000000
03BFE910
2EB67EB0
9D0004F3
D80000E7
F70000D9
F60000C9
F60000C9
F70000D9
D80000E7
9D0004F4
2EB56EB0
03BFE910
ENDCHAR
STARTCHAR Ocircumflex
ENCODING 212
SWIDTH 600 0
DWIDTH 10 0
BBX 8 15 1 0
BITMAP
003DB100
01C59800
00000000
03BFE910
2EB67EB0
9D0004F3
D80000E7
F70000D9
F60000C9
F60000C9
F70000D9
D80000E7
9D0004F4
2EB56EB0
03BFE910
ENDCHAR
STARTCHAR Otilde
ENCODING 213
SWIDTH 600 0
DWIDTH 10 0
BBX 8 16 1 0
BITMAP
00000200
02EC3D20
0784E900
00000000
03BFE910
2EB67EB0
9D0004F3
D80000E7
F70000D9
F60000C9
F60000C9
F70000D9
D80000E7
9D0004F4
2EB56EB0
03BFE910
ENDCHAR
STARTCHAR Odieresis
ENCODING 214
SWIDTH 600 0
DWIDTH 10 0
BBX 8 15 1 0
BITMAP
04701810
07C03E40
00000000
03BFE910
2EB67EB0
9D0004F3
D80000E7
F70000D9
F60000C9
F60000C9
F70000D9
D80000E7
9D0004F4
2EB56EB0
03BFE910
ENDCHAR
STARTCHAR multiply
ENCODING 215
SWIDTH 470 0
DWIDTH 8 0
BBX 7 7 0 2
BITMAP
1B200950
0CC16F40
01DCF600
005FB000
01DCF600
0CC17F40
1B200950
ENDCHAR
STARTCHAR Oslash
ENCODING 216
SWIDTH 600 0
DWIDTH 10 0
BBX 9 14 0 -1
BITMAP
0000000140
002AED7960
01DC58FE00
08E100AF10
0C9002DE60
0F700A6C90
1F502D0BA0
1F50A50BA0
0F73C00D90
0C9A501E70
08EC005F20
01ED56E900
03CAEE8000
0530000000
ENDCHAR
STARTCHAR Ugrave
ENCODING 217
SWIDTH 561 0
DWIDTH 9 0
BBX 7 15 1 0
BITMAP
06F50000
006C1000
00000000
F70006F0
F70006F0
F70006F0
F70006F0
F70006F0
F70006F0
F70006F0
F70006F0
E70007F0
C90009D0
6F747F60
07DED600
ENDCHAR
STARTCHAR Uacute
ENCODING 218
SWIDTH 561 0
DWIDTH 9 0
BBX 7 15 1 0
BITMAP
0005F700
001C6000
00000000
F70006F0
F70006F0
F70006F0
F70006F0
F70006F0
F70006F0
F70006F0
F70006F0
E70007F0
C90009D0
6F747F60
07DED600
ENDCHAR
STARTCHAR Ucircumflex
ENCODING 219
SWIDTH 561 0
DWIDTH 9 0
BBX 7 15 1 0
BITMAP
007E7000
03C2C300
00000000
F70006F0
F70006F0
F70006F0
F70006F0
F70006F0
F70006F0
F70006F0
F70006F0
E70007F0
C90009D0
6F747F60
07DED600
ENDCHAR
STARTCHAR Udieresis
ENCODING 220
SWIDTH 561 0
DWIDTH 9 0
BBX 7 15 1 0
BITMAP
07404700
0C707D00
00000000
F70006F0
F70006F0
F70006F0
F70006F0
F70006F0
F70006F0
F70006F0
F70006F0
E70007F0
C90009D0
6F747F60
07DED600
ENDCHAR
STARTCHAR Yacute
ENCODING 221
SWIDTH 524 0
DWIDTH 8 0
BBX 8 15 0 0
BITMAP
00008E30
0003D300
00000000
8F1000AE
2F7001F7
0AC007F1
04F30DA0
00D93F30
006EAC00
001EF500
0009E000
0008E000
0008E000
0008E000
0008E000
ENDCHAR
STARTCHAR Thorn
ENCODING 222
SWIDTH 515 0
DWIDTH 8 0
BBX 7 12 1 0
BITMAP
C9000000
C9000000
CFFEB300
CA34BE10
C9001F60
C9000D80
C9000E60
C9018E20
CFFFE500
CA320000
C9000000
C9000000
ENDCHAR
STARTCHAR germandbls
ENCODING 223
SWIDTH 521 0
DWIDTH 8 0
BBX 7 12 1 0
BITMAP
1AED5000
8D48E100
D801F300
E603F200
E60AB000
E60E7000
E60CC000
E603EA00
E6003F60
E6000C90
E6645E70
E68EEA00
ENDCHAR
STARTCHAR agrave
ENCODING 224
SWIDTH 479 0
DWIDTH 8 0
BBX 7 12 0 0
BITMAP
01DB1000
001C6000
00000000
019EE800
09D46F50
0C700D80
00000C80
02AEFF80
0CB31C80
1F500C80
0EA59F90
04DE9BB0
ENDCHAR
STARTCHAR aacute
ENCODING 225
SWIDTH 479 0
DWIDTH 8 0
BBX 7 12 0 0
BITMAP
0001BC10
0006C100
00000000
019EE800
09D46F50
0C700D80
00000C80
02AEFF80
0CB31C80
1F500C80
0EA59F90
04DE9BB0
ENDCHAR
STARTCHAR acircumflex
ENCODING 226
SWIDTH 479 0
DWIDTH 8 0
BBX 7 12 0 0
BITMAP
002DC200
00A77A00
00000000
019EE800
09D46F50
0C700D80
00000C80
02AEFF80
0CB31C80
1F500C80
0EA59F90
04DE9BB0
ENDCHAR
STARTCHAR atilde
ENCODING 227
SWIDTH 479 0
DWIDTH 8 0
BBX 7 13 0 0
BITMAP
00000210
01DD4C40
04A3DB00
00000000
019EE800
09D46F50
0C700D80
00000C80
02AEFF80
0CB31C80
1F500C80
0EA59F90
04DE9BB0
ENDCHAR
STARTCHAR adieresis
ENCODING 228
SWIDTH 479 0
DWIDTH 8 0
BBX 7 12 0 0
BITMAP
03800830
05D11D50
00000000
019EE800
09D46F50
0C700D80
00000C80
02AEFF80
0CB31C80
1F500C80
0EA59F90
04DE9BB0
ENDCHAR
STARTCHAR aring
ENCODING 229
SWIDTH 479 0
DWIDTH 8 0
BBX 7 13 0 0
BITMAP
004CC300
00A33900
004CC400
00000000
019EE800
09D46F50
0C700D80
00000C80
02AEFF80
0CB31C80
1F500C80
0EA59F90
04DE9BB0
ENDCHAR
STARTCHAR ae
ENCODING 230
SWIDTH 728 0
DWIDTH 12 0
BBX 12 9 0 0
BITMAP
02BED46DE900
0CC49EF75E70
1D402FB007D0
00000F7005F0
05CEEFFFFFF1
2F932F722220
5F100FA00000
2F74ADF736A0
07EEA25DFD60
ENDCHAR
STARTCHAR ccedilla
ENCODING 231
SWIDTH 461 0
DWIDTH 7 0
BBX 7 12 0 -3
BITMAP
01AEE800
0AD45E60
1F5009B0
3F300120
4F200000
3F300000
1F5008A0
0AD45E60
01AEE800
000D2000
0003C000
000EA000
ENDCHAR
STARTCHAR egrave
ENCODING 232
SWIDTH 468 0
DWIDTH 8 0
BBX 7 12 0 0
BITMAP
02EA0000
002D5000
00000000
01AEE800
09D46F50
0F600BA0
2F3008D0
3FFFFFD0
3F533320
1F500000
0AD54A80
019EEB20
ENDCHAR
STARTCHAR eacute
ENCODING 233
SWIDTH 468 0
DWIDTH 8 0
BBX 7 12 0 0
BITMAP
0001DB10
0008B100
00000000
01AEE800
09D46F50
0F600BA0
2F3008D0
3FFFFFD0
3F533320
1F500000
0AD54A80
019EEB20
ENDCHAR
STARTCHAR ecircumflex
ENCODING 234
SWIDTH 468 0
DWIDTH 8 0
BBX 7 12 0 0
BITMAP
003DC100
00B59800
00000000
01AEE800
09D46F50
0F600BA0
2F3008D0
3FFFFFD0
3F533320
1F500000
0AD54A80
019EEB20
ENDCHAR
STARTCHAR edieresis
ENCODING 235
SWIDTH 468 0
DWIDTH 8 0
BBX 7 12 0 0
BITMAP
04701820
07D02E40
00000000
01AEE800
09D46F50
0F600BA0
2F3008D0
3FFFFFD0
3F533320
1F500000
0AD54A80
019EEB20
ENDCHAR
STARTCHAR igrave
ENCODING 236
SWIDTH 234 0
DWIDTH 4 0
BBX 4 12 -1 0
BITMAP
2DA0
02D5
0000
00D8
00D8
00D8
00D8
00D8
00D8
00D8
00D8
00D8
ENDCHAR
STARTCHAR iacute
ENCODING 237
SWIDTH 234 0
DWIDTH 4 0
BBX 4 12 1 0
BITMAP
1DB1
8B10
0000
D800
D800
D800
D800
D800
D800
D800
D800
D800
ENDCHAR
STARTCHAR icircumflex
ENCODING 238
SWIDTH 234 0
DWIDTH 4 0
BBX 4 12 0 0
BITMAP
3DC1
B598
0000
0D80
0D80
0D80
0D80
0D80
0D80
0D80
0D80
0D80
ENDCHAR
STARTCHAR idieresis
ENCODING 239
SWIDTH 234 0
DWIDTH 4 0
BBX 6 12 -1 0
BITMAP
470182
7D02E4
000000
00D800
00D800
00D800
00D800
00D800
00D800
00D800
00D800
00D800
ENDCHAR
STARTCHAR eth
ENCODING 240
SWIDTH 513 0
DWIDTH 8 0
BBX 8 12 0 0
BITMAP
01C70220
018ECD40
0009FC00
00493F60
00000AC0
009EEDF1
08E64BF2
0E8003F3
1F5003F2
0E8006E0
08E65E80
008EE800
ENDCHAR
STARTCHAR ntilde
ENCODING 241
SWIDTH 483 0
DWIDTH 8 0
BBX 6 13 1 0
BITMAP
000021
1DD3D3
593DA0
000000
F8CEA1
FE66F6
F800B9
F600AB
F600AB
F600AB
F600AB
F600AB
F600AB
ENDCHAR
STARTCHAR ograve
ENCODING 242
SWIDTH 501 0
DWIDTH 8 0
BBX 8 12 0 0
BITMAP
02DB0000
002C6000
00000000
009EE910
08E55E90
1F6006F1
3F3002F3
4F2001F4
3F3002F3
1F6005F1
09E54D90
019EE910
ENDCHAR
STARTCHAR oacute
ENCODING 243
SWIDTH 501 0
DWIDTH 8 0
BBX 8 12 0 0
BITMAP
0001CC10
0007B100
00000000
009EE910
08E55E90
1F6006F1
3F3002F3
4F2001F4
3F3002F3
1F6005F1
09E54D90
019EE910
ENDCHAR
STARTCHAR ocircumflex
ENCODING 244
SWIDTH 501 0
DWIDTH 8 0
BBX 8 12 0 0
BITMAP
002DC200
00A67900
00000000
009EE910
08E55E90
1F6006F1
3F3002F3
4F2001F4
3F3002F3
1F6005F1
09E54D90
019EE910
ENDCHAR
STARTCHAR otilde
ENCODING 245
SWIDTH 501 0
DWIDTH 8 0
BBX 8 13 0 0
BITMAP
00000210
01DD4C30
05A3DB00
00000000
009EE910
08E55E90
1F6006F1
3F3002F3
4F2001F4
3F3002F3
1F6005F1
09E54D90
019EE910
ENDCHAR
STARTCHAR odieresis
ENCODING 246
SWIDTH 501 0
DWIDTH 8 0
BBX 8 12 0 0
BITMAP
03800820
06D11E50
00000000
009EE910
08E55E90
1F6006F1
3F3002F3
4F2001F4
3F3002F3
1F6005F1
09E54D90
019EE910
ENDCHAR
STARTCHAR divide
ENCODING 247
SWIDTH 500 0
DWIDTH 8 0
BBX 8 9 0 1
BITMAP
00022000
000CA000
00032000
00000000
6FFFFFF3
27777771
00000000
000A8000
00086000
ENDCHAR
STARTCHAR oslash
ENCODING 248
SWIDTH 498 0
DWIDTH 8 0
BBX 8 11 0 -1
BITMAP
00000560
008EEE20
07E57F80
0E709BE0
2F31C3F3
3F2682F4
2F3C23F2
0EAA07E0
07F85E70
01EDE800
05700000
ENDCHAR
STARTCHAR ugrave
ENCODING 249
SWIDTH 483 0
DWIDTH 8 0
BBX 6 12 1 0
BITMAP
2EA000
02D500
000000
F600AA
F600AA
F600AA
F600AA
F600AA
F600AA
E700BA
AD48FA
2CEABA
ENDCHAR
STARTCHAR uacute
ENCODING 250
SWIDTH 483 0
DWIDTH 8 0
BBX 6 12 1 0
BITMAP
001DB1
008B10
000000
F600AA
F600AA
F600AA
F600AA
F600AA
F600AA
E700BA
AD48FA
2CEABA
ENDCHAR
STARTCHAR ucircumflex
ENCODING 251
SWIDTH 483 0
DWIDTH 8 0
BBX 6 12 1 0
BITMAP
03DC10
0B5980
000000
F600AA
F600AA
F600AA
F600AA
F600AA
F600AA
E700BA
AD48FA
2CEABA
ENDCHAR
STARTCHAR udieresis
ENCODING 252
SWIDTH 483 0
DWIDTH 8 0
BBX 6 12 1 0
BITMAP
470182
7D02E4
000000
F600AA
F600AA
F600AA
F600AA
F600AA
F600AA
E700BA
AD48FA
2CEABA
ENDCHAR
STARTCHAR yacute
ENCODING 253
SWIDTH 416 0
DWIDTH 7 0
BBX 7 15 0 -3
BITMAP
0005F600
001C6000
00000000
9E004F30
4F207E00
0E60BA00
0AA0E500
06E3F100
02FAC000
00CF8000
008F3000
005E0000
008A0000
16E40000
4E800000
ENDCHAR
STARTCHAR thorn
ENCODING 254
SWIDTH 508 0
DWIDTH 8 0
BBX 7 15 1 -3
BITMAP
D7000000
D7000000
D7000000
DACEB100
DE56E900
D8008E00
D7004F20
D7003F30
D7004F20
D8007E00
DE55E900
DACEB100
D7000000
D7000000
D7000000
ENDCHAR
STARTCHAR ydieresis
ENCODING 255
SWIDTH 416 0
DWIDTH 7 0
BBX 7 15 0 -3
BITMAP
07404700
0D707C00
00000000
9E004F30
4F207E00
0E60BA00
0AA0E500
06E3F100
02FAC000
00CF8000
008F3000
005E0000
008A0000
16E40000
4E800000
ENDCHAR
STARTCHAR Amacron
ENCODING 256
SWIDTH 576 0
DWIDTH 9 0
BBX 9 13 0 0
BITMAP
0012222000
009FFFE000
0007FA0000
000BCE1000
001F4F5000
006E0B9000
00AB07E000
00E703F300
04F300E800
09FFFFFD00
0DA4447F20
3F40001F70
8E00000BB0
ENDCHAR
STARTCHAR amacron
ENCODING 257
SWIDTH 479 0
DWIDTH 8 0
BBX 7 12 0 0
BITMAP
00222210
04FFFF40
00000000
019EE800
09D46F50
0C700D80
00000C80
02AEFF80
0CB31C80
1F500C80
0EA59F90
04DE9BB0
ENDCHAR
STARTCHAR Abreve
ENCODING 258
SWIDTH 576 0
DWIDTH 9 0
BBX 9 15 0 0
BITMAP
009A16D000
001BED4000
0000000000
0002F60000
0007FA0000
000BCE1000
001F4F5000
006E0B9000
00AB07E000
00E703F300
04F300E800
09FFFFFD00
0DA4447F20
3F40001F70
8E00000BB0
ENDCHAR
STARTCHAR abreve
ENCODING 259
SWIDTH 479 0
DWIDTH 8 0
BBX 7 12 0 0
BITMAP
04E22E30
008EE800
00000000
019EE800
09D46F50
0C700D80
00000C80
02AEFF80
0CB31C80
1F500C80
0EA59F90
04DE9BB0
ENDCHAR
STARTCHAR Aogonek
ENCODING 260
SWIDTH 576 0
DWIDTH 9 0
BBX 9 15 0 -3
BITMAP
0002F60000
0007FA0000
000BCE1000
001F4F5000
006E0B9000
00AB07E000
00E703F300
04F300E800
09FFFFFD00
0DA4447F20
3F40001F70
8E00000BB0
0000003C20
000000AA20
0000006E90
ENDCHAR
STARTCHAR aogonek
ENCODING 261
SWIDTH 479 0
DWIDTH 8 0
BBX 7 12 0 -3
BITMAP
019EE800
09D46F50
0C700D80
00000C80
02AEFF80
0CB31C80
1F500C80
0EA59F90
04DE9BB0
00003C20
0000A920
00006E80
ENDCHAR
STARTCHAR Cacute
ENCODING 262
SWIDTH 566 0
DWIDTH 9 0
BBX 8 15 1 0
BITMAP
0003E800
000B8000
00000000
03BED910
2EB56DA0
9D0005F2
E90002C3
F7000000
F6000000
F6000000
F7000000
D80002C3
9D0005F2
2EA45DA0
03CFD810
ENDCHAR
STARTCHAR cacute
ENCODING 263
SWIDTH 461 0
DWIDTH 7 0
BBX 7 12 0 0
BITMAP
0003E800
000B8000
00000000
01AEE800
0AD45E60
1F5009B0
3F300120
4F200000
3F300000
1F5008A0
0AD45E60
01AEE800
ENDCHAR
STARTCHAR Ccircumflex
ENCODING 264
SWIDTH 566 0
DWIDTH 9 0
BBX 8 15 1 0
BITMAP
006E9000
02C3B500
00000000
03BED910
2EB56DA0
9D0005F2
E90002C3
F7000000
F6000000
F6000000
F7000000
D80002C3
9D0005F2
2EA45DA0
03CFD810
ENDCHAR
STARTCHAR ccircumflex
ENCODING 265
SWIDTH 461 0
DWIDTH 7 0
BBX 7 12 0 0
BITMAP
006E9000
02C3B500
00000000
01AEE800
0AD45E60
1F5009B0
3F300120
4F200000
3F300000
1F5008A0
0AD45E60
01AEE800
ENDCHAR
STARTCHAR Cdotaccent
ENCODING 266
SWIDTH 566 0
DWIDTH 9 0
BBX 8 15 1 0
BITMAP
00182000
002E5000
00000000
03BED910
2EB56DA0
9D0005F2
E90002C3
F7000000
F6000000
F6000000
F7000000
D80002C3
9D0005F2
2EA45DA0
03CFD810
ENDCHAR
STARTCHAR cdotaccent
ENCODING 267
SWIDTH 461 0
DWIDTH 7 0
BBX 7 12 0 0
BITMAP
00182000
002E5000
00000000
01AEE800
0AD45E60
1F5009B0
3F300120
4F200000
3F300000
1F5008A0
0AD45E60
01AEE800
ENDCHAR
STARTCHAR Ccaron
ENCODING 268
SWIDTH 566 0
DWIDTH 9 0
BBX 8 15 1 0
BITMAP
02D3C500
004E7000
00000000
03BED910
2EB56DA0
9D0005F2
E90002C3
F7000000
F6000000
F6000000
F7000000
D80002C3
9D0005F2
2EA45DA0
03CFD810
ENDCHAR
STARTCHAR ccaron
ENCODING 269
SWIDTH 461 0
DWIDTH 7 0
BBX 7 12 0 0
BITMAP
02D3C500
004E7000
00000000
01AEE800
0AD45E60
1F5009B0
3F300120
4F200000
3F300000
1F5008A0
0AD45E60
01AEE800
ENDCHAR
STARTCHAR Dcaron
ENCODING 270
SWIDTH 570 0
DWIDTH 9 0
BBX 8 15 1 0
BITMAP
0894C100
00AD2000
00000000
CFFEB300
CB45BE30
CA000CB0
CA0006F0
CA0005F2
CA0004F2
CA0004F2
CA0005F2
CA0007F0
CA000DB0
CB45BE30
CFFEB300
ENDCHAR
STARTCHAR dcaron
ENCODING 271
SWIDTH 569 0
DWIDTH 9 0
BBX 9 12 0 0
BITMAP
000008D5F0
000008D7D0
000008D860
02BFCAD000
0BD56ED000
1F5008D000
3F3008D000
4F2008D000
3F3008D000
1F5008D000
0BD55ED000
02BFC9D000
ENDCHAR
STARTCHAR Dcroat
ENCODING 272
SWIDTH 585 0
DWIDTH 9 0
BBX 9 12 0 0
BITMAP
08FFFC5000
08E449F600
08D0008E00
08D0003F30
08D0001F50
DFFF601F60
29E3101F60
08D0001F50
08D0003F30
08D0009E00
08E459F600
08FFEC5000
ENDCHAR
STARTCHAR dcroat
ENCODING 273
SWIDTH 529 0
DWIDTH 8 0
BBX 9 12 0 0
BITMAP
000008D000
0002FFFF20
000039D300
01AECAD000
09E66ED000
0E7009D000
2F3008D000
3F2008D000
3F3008D000
0E7009D000
09E56ED000
01AECAD000
ENDCHAR
STARTCHAR Emacron
ENCODING 274
SWIDTH 496 0
DWIDTH 8 0
BBX 7 15 1 0
BITMAP
02222100
0FFFF800
00000000
CFFFFF40
CB444410
CA000000
CA000000
CA000000
CFFFFA00
CB444200
CA000000
CA000000
CA000000
CB444410
CFFFFF50
ENDCHAR
STARTCHAR emacron
ENCODING 275
SWIDTH 468 0
DWIDTH 8 0
BBX 7 12 0 0
BITMAP
01222200
05FFFF30
00000000
01AEE800
09D46F50
0F600BA0
2F3008D0
3FFFFFD0
3F533320
1F500000
0AD54A80
019EEB20
ENDCHAR
STARTCHAR Ebreve
ENCODING 276
SWIDTH 496 0
DWIDTH 8 0
BBX 7 15 1 0
BITMAP
0F41C700
05DEA100
00000000
CFFFFF40
CB444410
CA000000
CA000000
CA000000
CFFFFA00
CB444200
CA000000
CA000000
CA000000
CB444410
CFFFFF50
ENDCHAR
STARTCHAR ebreve
ENCODING 277
SWIDTH 468 0
DWIDTH 8 0
BBX 7 12 0 0
BITMAP
05D13F20
009EE600
00000000
01AEE800
09D46F50
0F600BA0
2F3008D0
3FFFFFD0
3F533320
1F500000
0AD54A80
019EEB20
ENDCHAR
STARTCHAR Edotaccent
ENCODING 278
SWIDTH 496 0
DWIDTH 8 0
BBX 7 15 1 0
BITMAP
00480000
007D0000
00000000
CFFFFF40
CB444410
CA000000
CA000000
CA000000
CFFFFA00
CB444200
CA000000
CA000000
CA000000
CB444410
CFFFFF50
ENDCHAR
STARTCHAR edotaccent
ENCODING 279
SWIDTH 468 0
DWIDTH 8 0
BBX 7 12 0 0
BITMAP
00074000
000C8000
00000000
01AEE800
09D46F50
0F600BA0
2F3008D0
3FFFFFD0
3F533320
1F500000
0AD54A80
019EEB20
ENDCHAR
STARTCHAR Eogonek
ENCODING 280
SWIDTH 496 0
DWIDTH 8 0
BBX 7 15 1 -3
BITMAP
CFFFFF40
CB444410
CA000000
CA000000
CA000000
CFFFFA00
CB444200
CA000000
CA000000
CA000000
CB444410
CFFFFF50
0001D500
0006D200
0003EC00
ENDCHAR
STARTCHAR eogonek
ENCODING 281
SWIDTH 468 0
DWIDTH 8 0
BBX 7 12 0 -3
BITMAP
01AEE800
09D46F50
0F600BA0
2F3008D0
3FFFFFD0
3F533320
1F500000
0AD54A80
019EFB20
0007B000
000C8200
0007E700
ENDCHAR
STARTCHAR Ecaron
ENCODING 282
SWIDTH 496 0
DWIDTH 8 0
BBX 7 15 1 0
BITMAP
08A4D100
009D2000
00000000
CFFFFF40
CB444410
CA000000
CA000000
CA000000
CFFFFA00
CB444200
CA000000
CA000000
CA000000
CB444410
CFFFFF50
ENDCHAR
STARTCHAR ecaron
ENCODING 283
SWIDTH 468 0
DWIDTH 8 0
BBX 7 12 0 0
BITMAP
01C59900
002DA000
00000000
01AEE800
09D46F50
0F600BA0
2F3008D0
3FFFFFD0
3F533320
1F500000
0AD54A80
019EEB20
ENDCHAR
STARTCHAR Gcircumflex
ENCODING 284
SWIDTH 590 0
DWIDTH 9 0
BBX 8 15 1 0
BITMAP
007E8000
03C2C400
00000000
04CFD910
4FA46DB0
AC0005F2
E8000172
F6000000
F6000000
F602FFF5
F70034F5
E80001F5
9D0001F5
2EB54AF3
03BEEB40
ENDCHAR
STARTCHAR gcircumflex
ENCODING 285
SWIDTH 492 0
DWIDTH 8 0
BBX 7 15 0 -3
BITMAP
004EB100
01C4A700
00000000
02BFC8D0
0BD56ED0
1F6008D0
3F3008D0
3F2008D0
3F3008D0
1F5008D0
0AD55ED0
02BFCAD0
000009B0
06846E60
03BED800
ENDCHAR
STARTCHAR Gbreve
ENCODING 286
SWIDTH 590 0
DWIDTH 9 0
BBX 8 15 1 0
BITMAP
0A908C00
02CEC300
00000000
04CFD910
4FA46DB0
AC0005F2
E8000172
F6000000
F6000000
F602FFF5
F70034F5
E80001F5
9D0001F5
2EB54AF3
03BEEB40
ENDCHAR
STARTCHAR gbreve
ENCODING 287
SWIDTH 492 0
DWIDTH 8 0
BBX 7 15 0 -3
BITMAP
06C14F10
01AED600
00000000
02BFC8D0
0BD56ED0
1F6008D0
3F3008D0
3F2008D0
3F3008D0
1F5008D0
0AD55ED0
02BFCAD0
000009B0
06846E60
03BED800
ENDCHAR
STARTCHAR Gdotaccent
ENCODING 288
SWIDTH 590 0
DWIDTH 9 0
BBX 8 15 1 0
BITMAP
00182000
003E4000
00000000
04CFD910
4FA46DB0
AC0005F2
E8000172
F6000000
F6000000
F602FFF5
F70034F5
E80001F5
9D0001F5
2EB54AF3
03BEEB40
ENDCHAR
STARTCHAR gdotaccent
ENCODING 289
SWIDTH 492 0
DWIDTH 8 0
BBX 7 15 0 -3
BITMAP
00074000
000D7000
00000000
02BFC8D0
0BD56ED0
1F6008D0
3F3008D0
3F2008D0
3F3008D0
1F5008D0
0AD55ED0
02BFCAD0
000009B0
06846E60
03BED800
ENDCHAR
STARTCHAR uni0122
ENCODING 290
SWIDTH 590 0
DWIDTH 9 0
BBX 8 16 1 -4
BITMAP
04CFD910
4FA46DB0
AC0005F2
E8000172
F6000000
F6000000
F602FFF5
F70034F5
E80001F5
9D0001F5
2EB54AF3
03BEEB40
00000000
000B9000
000D7000
001C1000
ENDCHAR
STARTCHAR uni0123
ENCODING 291
SWIDTH 492 0
DWIDTH 8 0
BBX 7 16 0 -3
BITMAP
00049000
000C8000
000E7000
00000000
02BFC8D0
0BD56ED0
1F6008D0
3F3008D0
3F2008D0
3F3008D0
1F5008D0
0AD55ED0
02BFCAD0
000009B0
06846E60
03BED800
ENDCHAR
STARTCHAR Hcircumflex
ENCODING 292
SWIDTH 620 0
DWIDTH 10 0
BBX 8 15 1 0
BITMAP
003DB100
01C49700
00000000
CA0000CA
CA0000CA
CA0000CA
CA0000CA
CA0000CA
CFFFFFFA
CB4444CA
CA0000CA
CA0000CA
CA0000CA
CA0000CA
CA0000CA
ENDCHAR
STARTCHAR hcircumflex
ENCODING 293
SWIDTH 482 0
DWIDTH 8 0
BBX 6 15 1 0
BITMAP
08E700
4C2C30
000000
F60000
F60000
F60000
F9CEA1
FF66F6
F800B9
F600AB
F600AB
F600AB
F600AB
F600AB
F600AB
ENDCHAR
STARTCHAR Hbar
ENCODING 294
SWIDTH 611 0
DWIDTH 10 0
BBX 10 12 0 0
BITMAP
0CA0000CA0
0CA0000CA0
AFFFFFFFF8
1CB2222CB1
0CA0000CA0
0CFFFFFFA0
0CB4444CA0
0CA0000CA0
0CA0000CA0
0CA0000CA0
0CA0000CA0
0CA0000CA0
ENDCHAR
STARTCHAR hbar
ENCODING 295
SWIDTH 497 0
DWIDTH 8 0
BBX 8 12 -1 0
BITMAP
00BA0000
2FFFF200
03CB3000
00BBAEC2
00BF85DA
00BB008D
00BA007E
00BA007E
00BA007E
00BA007E
00BA007E
00BA007E
ENDCHAR
STARTCHAR Itilde
ENCODING 296
SWIDTH 250 0
DWIDTH 4 0
BBX 6 16 -1 0
BITMAP
000021
1DD4C4
4A3DB0
000000
00BB00
00BB00
00BB00
00BB00
00BB00
00BB00
00BB00
00BB00
00BB00
00BB00
00BB00
00BB00
ENDCHAR
STARTCHAR itilde
ENCODING 297
SWIDTH 234 0
DWIDTH 4 0
BBX 6 13 -1 0
BITMAP
000020
2EC3D2
684DA0
000000
00D800
00D800
00D800
00D800
00D800
00D800
00D800
00D800
00D800
ENDCHAR
STARTCHAR Imacron
ENCODING 298
SWIDTH 250 0
DWIDTH 4 0
BBX 6 15 -1 0
BITMAP
022221
4FFFF4
000000
00BB00
00BB00
00BB00
00BB00
00BB00
00BB00
00BB00
00BB00
00BB00
00BB00
00BB00
00BB00
ENDCHAR
STARTCHAR imacron
ENCODING 299
SWIDTH 234 0
DWIDTH 4 0
BBX 6 12 -1 0
BITMAP
122220
5FFFF3
000000
00D800
00D800
00D800
00D800
00D800
00D800
00D800
00D800
00D800
ENDCHAR
STARTCHAR Ibreve
ENCODING 300
SWIDTH 250 0
DWIDTH 4 0
BBX 6 15 -1 0
BITMAP
3E22E4
08EE80
000000
00BB00
00BB00
00BB00
00BB00
00BB00
00BB00
00BB00
00BB00
00BB00
00BB00
00BB00
00BB00
ENDCHAR
STARTCHAR ibreve
ENCODING 301
SWIDTH 234 0
DWIDTH 4 0
BBX 6 12 -1 0
BITMAP
5D13F2
09EE60
000000
00D800
00D800
00D800
00D800
00D800
00D800
00D800
00D800
00D800
ENDCHAR
STARTCHAR Iogonek
ENCODING 302
SWIDTH 250 0
DWIDTH 4 0
BBX 3 15 0 -3
BITMAP
0BB0
0BB0
0BB0
0BB0
0BB0
0BB0
0BB0
0BB0
0BB0
0BB0
0BB0
0DD0
4D10
A920
6E80
ENDCHAR
STARTCHAR iogonek
ENCODING 303
SWIDTH 229 0
DWIDTH 4 0
BBX 3 15 0 -3
BITMAP
0740
0B70
0000
0D80
0D80
0D80
0D80
0D80
0D80
0D80
0D80
0F90
6B10
C720
8E60
ENDCHAR
STARTCHAR Idotaccent
ENCODING 304
SWIDTH 250 0
DWIDTH 4 0
BBX 2 15 1 0
BITMAP
66
AA
00
BB
BB
BB
BB
BB
BB
BB
BB
BB
BB
BB
BB
ENDCHAR
STARTCHAR dotlessi
ENCODING 305
SWIDTH 234 0
DWIDTH 4 0
BBX 2 9 1 0
BITMAP
D8
D8
D8
D8
D8
D8
D8
D8
D8
ENDCHAR
STARTCHAR IJ
ENCODING 306
SWIDTH 733 0
DWIDTH 12 0
BBX 10 12 1 0
BITMAP
BB000000D9
BB000000D9
BB000000D9
BB000000D9
BB000000D9
BB000000D9
BB000000D9
BB000000D9
BB024000D8
BB06F101F7
BB02FA4AE1
BB004CEC40
ENDCHAR
STARTCHAR ij
ENCODING 307
SWIDTH 452 0
DWIDTH 7 0
BBX 6 15 1 -3
BITMAP
740280
B704D1
000000
D804F2
D804F2
D804F2
D804F2
D804F2
D804F2
D804F2
D804F2
D804F2
0004F2
0029F0
007E70
ENDCHAR
STARTCHAR Jcircumflex
ENCODING 308
SWIDTH 483 0
DWIDTH 8 0
BBX 8 15 0 0
BITMAP
00005EA0
0002C3B6
00000000
00000D90
00000D90
00000D90
00000D90
00000D90
00000D90
00000D90
00000D90
24000D80
6F101F70
2FA4AE10
04CEC400
ENDCHAR
STARTCHAR jcircumflex
ENCODING 309
SWIDTH 237 0
DWIDTH 4 0
BBX 5 15 -1 -3
BITMAP
02DC20
0A77A0
000000
00BA00
00BA00
00BA00
00BA00
00BA00
00BA00
00BA00
00BA00
00BA00
00B900
14E700
3EB100
ENDCHAR
STARTCHAR uni0136
ENCODING 310
SWIDTH 544 0
DWIDTH 9 0
BBX 8 15 1 -3
BITMAP
CA000AE1
CA006F50
CA02E900
CA0BD100
CA6F4000
CCED0000
CFCF6000
CD19E100
CA02E900
CA007F30
CA000DC0
CA0005F6
002F3000
004F1000
00680000
ENDCHAR
STARTCHAR uni0137
ENCODING 311
SWIDTH 450 0
DWIDTH 7 0
BBX 6 15 1 -3
BITMAP
E60000
E60000
E60000
E604F5
E60DA0
E68D10
E9F400
EFF700
ECAE10
E61E90
E607F3
E600CC
00F400
02F200
04A000
ENDCHAR
STARTCHAR kgreenlandic
ENCODING 312
SWIDTH 491 0
DWIDTH 8 0
BBX 7 9 1 0
BITMAP
D800CC00
D806F300
D82E8000
D8AD0000
DFF60000
DABD1000
D82E9000
D806F500
D800AE10
ENDCHAR
STARTCHAR Lacute
ENCODING 313
SWIDTH 475 0
DWIDTH 8 0
BBX 7 15 1 0
BITMAP
1CC10000
7B100000
00000000
CA000000
CA000000
CA000000
CA000000
CA000000
CA000000
CA000000
CA000000
CA000000
CA000000
CB444400
CFFFFF20
ENDCHAR
STARTCHAR lacute
ENCODING 314
SWIDTH 229 0
DWIDTH 4 0
BBX 4 15 1 0
BITMAP
2DB1
8A00
0000
D800
D800
D800
D800
D800
D800
D800
D800
D800
D800
D800
D800
ENDCHAR
STARTCHAR uni013B
ENCODING 315
SWIDTH 475 0
DWIDTH 8 0
BBX 7 16 1 -4
BITMAP
CA000000
CA000000
CA000000
CA000000
CA000000
CA000000
CA000000
CA000000
CA000000
CA000000
CB444400
CFFFFF20
00000000
007D0000
009B0000
00A40000
ENDCHAR
STARTCHAR uni013C
ENCODING 316
SWIDTH 229 0
DWIDTH 4 0
BBX 3 16 0 -4
BITMAP
0D80
0D80
0D80
0D80
0D80
0D80
0D80
0D80
0D80
0D80
0D80
0D80
0000
0C70
0E50
2B00
ENDCHAR
STARTCHAR Lcaron
ENCODING 317
SWIDTH 475 0
DWIDTH 8 0
BBX 7 12 1 0
BITMAP
CA09A000
CA0B8000
CA0C2000
CA000000
CA000000
CA000000
CA000000
CA000000
CA000000
CA000000
CB444400
CFFFFF20
ENDCHAR
STARTCHAR lcaron
ENCODING 318
SWIDTH 302 0
DWIDTH 5 0
BBX 4 12 1 0
BITMAP
D87D
D89B
D8A4
D800
D800
D800
D800
D800
D800
D800
D800
D800
ENDCHAR
STARTCHAR Ldot
ENCODING 319
SWIDTH 475 0
DWIDTH 8 0
BBX 7 12 1 0
BITMAP
CA000000
CA000000
CA000000
CA000000
CA074000
CA0C7000
CA000000
CA000000
CA000000
CA000000
CB444400
CFFFFF20
ENDCHAR
STARTCHAR ldot
ENCODING 320
SWIDTH 336 0
DWIDTH 5 0
BBX 4 12 1 0
BITMAP
D800
D800
D800
D800
D800
D856
D89B
D800
D800
D800
D800
D800
ENDCHAR
STARTCHAR Lslash
ENCODING 321
SWIDTH 475 0
DWIDTH 8 0
BBX 8 12 0 0
BITMAP
0CA00000
0CA00000
0CA00000
0CA00000
0CCB4000
6ED40000
3CA00000
0CA00000
0CA00000
0CA00000
0CB44440
0CFFFFF2
ENDCHAR
STARTCHAR lslash
ENCODING 322
SWIDTH 250 0
DWIDTH 4 0
BBX 4 12 0 0
BITMAP
0BA0
0BA0
0BA0
0BA0
0BA0
0BD8
6EC1
3CA0
0BA0
0BA0
0BA0
0BA0
ENDCHAR
STARTCHAR Nacute
ENCODING 323
SWIDTH 619 0
DWIDTH 10 0
BBX 8 15 1 0
BITMAP
0001CC10
0007B100
00000000
CD0000CA
CF6000CA
CFD000CA
CBE600CA
CA7D00CA
CA1E60CA
CA07D0CA
CA01E5CA
CA008DCA
CA001EFA
CA0008FA
CA0001EA
ENDCHAR
STARTCHAR nacute
ENCODING 324
SWIDTH 483 0
DWIDTH 8 0
BBX 6 12 1 0
BITMAP
001CC1
007B10
000000
F8CEA1
FE66F6
F800B9
F600AB
F600AB
F600AB
F600AB
F600AB
F600AB
ENDCHAR
STARTCHAR uni0145
ENCODING 325
SWIDTH 619 0
DWIDTH 10 0
BBX 8 16 1 -4
BITMAP
CD0000CA
CF6000CA
CFD000CA
CBE600CA
CA7D00CA
CA1E60CA
CA07D0CA
CA01E5CA
CA008DCA
CA001EFA
CA0008FA
CA0001EA
00000000
000C8000
000E6000
002C1000
ENDCHAR
STARTCHAR uni0146
ENCODING 326
SWIDTH 483 0
DWIDTH 8 0
BBX 6 13 1 -4
BITMAP
F8CEA1
FE66F6
F800B9
F600AB
F600AB
F600AB
F600AB
F600AB
F600AB
000000
00D700
00E500
02B000
ENDCHAR
STARTCHAR Ncaron
ENCODING 327
SWIDTH 619 0
DWIDTH 10 0
BBX 8 15 1 0
BITMAP
00C68A00
001CB000
00000000
CD0000CA
CF6000CA
CFD000CA
CBE600CA
CA7D00CA
CA1E60CA
CA07D0CA
CA01E5CA
CA008DCA
CA001EFA
CA0008FA
CA0001EA
ENDCHAR
STARTCHAR ncaron
ENCODING 328
SWIDTH 483 0
DWIDTH 8 0
BBX 6 12 1 0
BITMAP
0C58A0
01CB00
000000
F8CEA1
FE66F6
F800B9
F600AB
F600AB
F600AB
F600AB
F600AB
F600AB
ENDCHAR
STARTCHAR napostrophe
ENCODING 329
SWIDTH 483 0
DWIDTH 8 0
BBX 8 12 -1 0
BITMAP
0D700000
0E500000
2B000000
00F8CEA1
00FE66F6
00F800B9
00F600AB
00F600AB
00F600AB
00F600AB
00F600AB
00F600AB
ENDCHAR
STARTCHAR Eng
ENCODING 330
SWIDTH 599 0
DWIDTH 10 0
BBX 8 15 1 -3
BITMAP
CD0000F7
CF5000F7
CFC000F7
CBF500F7
C99C00F7
C92F50F7
C909C0F7
C901E4F7
C9008CF7
C9001EF7
C90008F7
C90001F7
000000F7
000026F4
00006E90
ENDCHAR
STARTCHAR eng
ENCODING 331
SWIDTH 498 0
DWIDTH 8 0
BBX 6 12 1 -3
BITMAP
E6BEB1
ED65E8
E7009B
E7008D
E7008D
E7008D
E7008D
E7008D
E7008D
00008C
0005DA
000EC2
ENDCHAR
STARTCHAR Omacron
ENCODING 332
SWIDTH 600 0
DWIDTH 10 0
BBX 8 15 1 0
BITMAP
01222200
06FFFF20
00000000
03BFE910
2EB67EB0
9D0004F3
D80000E7
F70000D9
F60000C9
F60000C9
F70000D9
D80000E7
9D0004F4
2EB56EB0
03BFE910
ENDCHAR
STARTCHAR omacron
ENCODING 333
SWIDTH 501 0
DWIDTH 8 0
BBX 8 12 0 0
BITMAP
01222200
04FFFF40
00000000
009EE910
08E55E90
1F6006F1
3F3002F3
4F2001F4
3F3002F3
1F6005F1
09E54D90
019EE910
ENDCHAR
STARTCHAR Obreve
ENCODING 334
SWIDTH 600 0
DWIDTH 10 0
BBX 8 15 1 0
BITMAP
06D14F10
00AED600
00000000
03BFE910
2EB67EB0
9D0004F3
D80000E7
F70000D9
F60000C9
F60000C9
F70000D9
D80000E7
9D0004F4
2EB56EB0
03BFE910
ENDCHAR
STARTCHAR obreve
ENCODING 335
SWIDTH 501 0
DWIDTH 8 0
BBX 8 12 0 0
BITMAP
04E22F30
008EE700
00000000
009EE910
08E55E90
1F6006F1
3F3002F3
4F2001F4
3F3002F3
1F6005F1
09E54D90
019EE910
ENDCHAR
STARTCHAR Ohungarumlaut
ENCODING 336
SWIDTH 600 0
DWIDTH 10 0
BBX 8 15 1 0
BITMAP
003F6D80
00889A00
00000000
03BFE910
2EB67EB0
9D0004F3
D80000E7
F70000D9
F60000C9
F60000C9
F70000D9
D80000E7
9D0004F4
2EB56EB0
03BFE910
ENDCHAR
STARTCHAR ohungarumlaut
ENCODING 337
SWIDTH 501 0
DWIDTH 8 0
BBX 8 12 0 0
BITMAP
002E7CA0
006A7B00
00000000
009EE910
08E55E90
1F6006F1
3F3002F3
4F2001F4
3F3002F3
1F6005F1
09E54D90
019EE910
ENDCHAR
STARTCHAR OE
ENCODING 338
SWIDTH 826 0
DWIDTH 13 0
BBX 12 12 0 0
BITMAP
004CFFFFFFFE
04F836F74443
0BA002F40000
1F5002F40000
2F4002F40000
3F3002FFFFF5
3F3002F74441
2F4002F40000
1F5002F40000
0BA002F40000
04F835F74443
004CFFFFFFFF
ENDCHAR
STARTCHAR oe
ENCODING 339
SWIDTH 777 0
DWIDTH 12 0
BBX 12 9 0 0
BITMAP
008EE807EE70
07E56EBF66F4
0D8008FA00BA
1F4005F6009C
3F3004FFFFFD
1F4005F73332
0E7008F80000
07E55ECE5496
008EE807EEB2
ENDCHAR
STARTCHAR Racute
ENCODING 340
SWIDTH 530 0
DWIDTH 9 0
BBX 8 15 1 0
BITMAP
0009E300
004D2000
00000000
CFFFC500
CB449F40
CA000CA0
CA000AC0
CA000CB0
CA006F50
CFFFF800
CB45F400
CA00CB00
CA006F30
CA000E90
CA0008F1
ENDCHAR
STARTCHAR racute
ENCODING 341
SWIDTH 304 0
DWIDTH 5 0
BBX 5 12 1 0
BITMAP
02DB10
08A000
000000
F9D700
FE8300
F80000
F60000
F60000
F60000
F60000
F60000
F60000
ENDCHAR
STARTCHAR uni0156
ENCODING 342
SWIDTH 530 0
DWIDTH 9 0
BBX 8 16 1 -4
BITMAP
CFFFC500
CB449F40
CA000CA0
CA000AC0
CA000CB0
CA006F50
CFFFF800
CB45F400
CA00CB00
CA006F30
CA000E90
CA0008F1
00000000
007C0000
009A0000
00B30000
ENDCHAR
STARTCHAR uni0157
ENCODING 343
SWIDTH 304 0
DWIDTH 5 0
BBX 5 13 0 -4
BITMAP
0F9D70
0FE830
0F8000
0F6000
0F6000
0F6000
0F6000
0F6000
0F6000
000000
0D7000
0E5000
2B0000
ENDCHAR
STARTCHAR Rcaron
ENCODING 344
SWIDTH 530 0
DWIDTH 9 0
BBX 8 15 1 0
BITMAP
0895C100
00AD2000
00000000
CFFFC500
CB449F40
CA000CA0
CA000AC0
CA000CB0
CA006F50
CFFFF800
CB45F400
CA00CB00
CA006F30
CA000E90
CA0008F1
ENDCHAR
STARTCHAR rcaron
ENCODING 345
SWIDTH 304 0
DWIDTH 5 0
BBX 5 12 0 0
BITMAP
1C4980
02DA00
000000
0F9D70
0FE830
0F8000
0F6000
0F6000
0F6000
0F6000
0F6000
0F6000
ENDCHAR
STARTCHAR Sacute
ENCODING 346
SWIDTH 518 0
DWIDTH 8 0
BBX 8 15 0 0
BITMAP
00008E30
0003D300
00000000
008DEB30
08E64AE2
0E8001E7
0F700054
0BE30000
02DFB400
0006DFA0
000006F5
271000D9
3F5000E8
0BE649F3
018DEC40
ENDCHAR
STARTCHAR sacute
ENCODING 347
SWIDTH 455 0
DWIDTH 7 0
BBX 7 12 0 0
BITMAP
0001CC10
0007B100
00000000
02BED500
0BC48F30
0E700940
0AE50000
019FD500
0001AF40
2B300E70
0DB46F40
02BED700
ENDCHAR
STARTCHAR Scircumflex
ENCODING 348
SWIDTH 518 0
DWIDTH 8 0
BBX 8 15 0 0
BITMAP
001BE400
007A4C10
00000000
008DEB30
08E64AE2
0E8001E7
0F700054
0BE30000
02DFB400
0006DFA0
000006F5
271000D9
3F5000E8
0BE649F3
018DEC40
ENDCHAR
STARTCHAR scircumflex
ENCODING 349
SWIDTH 455 0
DWIDTH 7 0
BBX 7 12 0 0
BITMAP
003DC100
00B68900
00000000
02BED500
0BC48F30
0E700940
0AE50000
019FD500
0001AF40
2B300E70
0DB46F40
02BED700
ENDCHAR
STARTCHAR Scedilla
ENCODING 350
SWIDTH 518 0
DWIDTH 8 0
BBX 8 15 0 -3
BITMAP
008DEB30
08E64AE2
0E8001E7
0F700054
0BE30000
02DFB400
0006DFA0
000006F5
271000D9
3F5000E8
0BE649F3
018DEC40
0003B000
00008700
0005E500
ENDCHAR
STARTCHAR scedilla
ENCODING 351
SWIDTH 455 0
DWIDTH 7 0
BBX 7 12 0 -3
BITMAP
02BED500
0BC48F30
0E700940
0AE50000
019FD500
0001AF40
2B300E70
0DB46F40
02BED700
00096000
0001C200
000AC200
ENDCHAR
STARTCHAR Scaron
ENCODING 352
SWIDTH 518 0
DWIDTH 8 0
BBX 8 15 0 0
BITMAP
007A4D10
0009D200
00000000
008DEB30
08E64AE2
0E8001E7
0F700054
0BE30000
02DFB400
0006DFA0
000006F5
271000D9
3F5000E8
0BE649F3
018DEC40
ENDCHAR
STARTCHAR scaron
ENCODING 353
SWIDTH 455 0
DWIDTH 7 0
BBX 7 12 0 0
BITMAP
00C58A00
001CB000
00000000
02BED500
0BC48F30
0E700940
0AE50000
019FD500
0001AF40
2B300E70
0DB46F40
02BED700
ENDCHAR
STARTCHAR uni0162
ENCODING 354
SWIDTH 520 0
DWIDTH 8 0
BBX 8 15 0 -3
BITMAP
8FFFFFFD
244AE443
0008D000
0008D000
0008D000
0008D000
0008D000
0008D000
0008D000
0008D000
0008D000
0008D000
0005A000
00009600
0006D400
ENDCHAR
STARTCHAR uni0163
ENCODING 355
SWIDTH 295 0
DWIDTH 5 0
BBX 5 14 0 -3
BITMAP
08D000
08D000
CFFF20
29D200
08D000
08D000
08D000
08D000
08D000
06F410
01CE10
005A00
000950
006D40
ENDCHAR
STARTCHAR Tcaron
ENCODING 356
SWIDTH 520 0
DWIDTH 8 0
BBX 8 15 0 0
BITMAP
00894C10
000AD200
00000000
8FFFFFFD
244AE443
0008D000
0008D000
0008D000
0008D000
0008D000
0008D000
0008D000
0008D000
0008D000
0008D000
ENDCHAR
STARTCHAR tcaron
ENCODING 357
SWIDTH 314 0
DWIDTH 5 0
BBX 6 13 0 0
BITMAP
0000F4
0002F2
08D4A0
08D000
CFFF20
29D200
08D000
08D000
08D000
08D000
08D000
06F410
01CE10
ENDCHAR
STARTCHAR Tbar
ENCODING 358
SWIDTH 520 0
DWIDTH 8 0
BBX 8 12 0 0
BITMAP
8FFFFFFD
244AE443
0008D000
0008D000
00DFFF60
0029E310
0008D000
0008D000
0008D000
0008D000
0008D000
0008D000
ENDCHAR
STARTCHAR tbar
ENCODING 359
SWIDTH 295 0
DWIDTH 5 0
BBX 5 11 0 0
BITMAP
08D000
08D000
CFFF20
29D200
08D000
FFFF40
39D310
08D000
08D000
07F510
01CE10
ENDCHAR
STARTCHAR Utilde
ENCODING 360
SWIDTH 561 0
DWIDTH 9 0
BBX 7 16 1 0
BITMAP
00100200
06F95C00
0C38E500
00000000
F70006F0
F70006F0
F70006F0
F70006F0
F70006F0
F70006F0
F70006F0
F70006F0
E70007F0
C90009D0
6F747F60
07DED600
ENDCHAR
STARTCHAR utilde
ENCODING 361
SWIDTH 483 0
DWIDTH 8 0
BBX 6 13 1 0
BITMAP
000020
2EC3D2
684DA0
000000
F600AA
F600AA
F600AA
F600AA
F600AA
F600AA
E700BA
AD48FA
2CEABA
ENDCHAR
STARTCHAR Umacron
ENCODING 362
SWIDTH 561 0
DWIDTH 9 0
BBX 7 13 1 0
BITMAP
01222100
FFFFFFF0
F70006F0
F70006F0
F70006F0
F70006F0
F70006F0
F70006F0
F70006F0
E70007F0
C90009D0
6F747F60
07DED600
ENDCHAR
STARTCHAR umacron
ENCODING 363
SWIDTH 483 0
DWIDTH 8 0
BBX 6 12 1 0
BITMAP
122220
5FFFF3
000000
F600AA
F600AA
F600AA
F600AA
F600AA
F600AA
E700BA
AD48FA
2CEABA
ENDCHAR
STARTCHAR Ubreve
ENCODING 364
SWIDTH 561 0
DWIDTH 9 0
BBX 7 15 1 0
BITMAP
0B808B00
03CEC300
00000000
F70006F0
F70006F0
F70006F0
F70006F0
F70006F0
F70006F0
F70006F0
F70006F0
E70007F0
C90009D0
6F747F60
07DED600
ENDCHAR
STARTCHAR ubreve
ENCODING 365
SWIDTH 483 0
DWIDTH 8 0
BBX 6 12 1 0
BITMAP
5D13F2
09EE60
000000
F600AA
F600AA
F600AA
F600AA
F600AA
F600AA
E700BA
AD48FA
2CEABA
ENDCHAR
STARTCHAR Uring
ENCODING 366
SWIDTH 561 0
DWIDTH 9 0
BBX 7 16 1 0
BITMAP
009B9000
02A0A200
00ABA000
00000000
F70006F0
F70006F0
F70006F0
F70006F0
F70006F0
F70006F0
F70006F0
F70006F0
E70007F0
C90009D0
6F747F60
07DED600
ENDCHAR
STARTCHAR uring
ENCODING 367
SWIDTH 483 0
DWIDTH 8 0
BBX 6 13 1 0
BITMAP
05CB20
0B1570
05CC20
000000
F600AA
F600AA
F600AA
F600AA
F600AA
F600AA
E700BA
AD48FA
2CEABA
ENDCHAR
STARTCHAR Uhungarumlaut
ENCODING 368
SWIDTH 561 0
DWIDTH 9 0
BBX 7 15 1 0
BITMAP
008D6E40
01C5C500
00000000
F70006F0
F70006F0
F70006F0
F70006F0
F70006F0
F70006F0
F70006F0
F70006F0
E70007F0
C90009D0
6F747F60
07DED600
ENDCHAR
STARTCHAR uhungarumlaut
ENCODING 369
SWIDTH 483 0
DWIDTH 8 0
BBX 6 12 1 0
BITMAP
03F6D9
0898A0
000000
F600AA
F600AA
F600AA
F600AA
F600AA
F600AA
E700BA
AD48FA
2CEABA
ENDCHAR
STARTCHAR Uogonek
ENCODING 370
SWIDTH 561 0
DWIDTH 9 0
BBX 7 15 1 -3
BITMAP
F70006F0
F70006F0
F70006F0
F70006F0
F70006F0
F70006F0
F70006F0
F70006F0
E70007F0
C90009D0
6F747F70
07DFF700
000A8000
000E6100
0009E500
ENDCHAR
STARTCHAR uogonek
ENCODING 371
SWIDTH 483 0
DWIDTH 8 0
BBX 6 12 1 -3
BITMAP
F600AA
F600AA
F600AA
F600AA
F600AA
F600AA
E700BA
AD48FA
2CEABA
0003D2
0009A2
0005E9
ENDCHAR
STARTCHAR Wcircumflex
ENCODING 372
SWIDTH 761 0
DWIDTH 12 0
BBX 12 15 0 0
BITMAP
00001BE40000
00007A4C1000
000000000000
5F1008E000BA
2F400BF200E7
0E600EF501F4
0C902FA804F2
09B06C6B06E0
06E0993E09B0
03F2C50E2B80
01F5F20B6E50
00DAD008AF20
00AEA005EE00
007F7002FC00
004F3000D900
ENDCHAR
STARTCHAR wcircumflex
ENCODING 373
SWIDTH 649 0
DWIDTH 10 0
BBX 10 12 0 0
BITMAP
0001BD3000
000894C100
0000000000
7D007D007D
4F10BF20AA
1F40EE50D6
0C74E991F3
09A7A5D4E0
05EB71F9B0
02FF30CE70
00DE009F40
00AA005F10
ENDCHAR
STARTCHAR Ycircumflex
ENCODING 374
SWIDTH 524 0
DWIDTH 8 0
BBX 8 15 0 0
BITMAP
001BE400
007A4C10
00000000
8F1000AE
2F7001F7
0AC007F1
04F30DA0
00D93F30
006EAC00
001EF500
0009E000
0008E000
0008E000
0008E000
0008E000
ENDCHAR
STARTCHAR ycircumflex
ENCODING 375
SWIDTH 416 0
DWIDTH 7 0
BBX 7 15 0 -3
BITMAP
008E7000
04C2C300
00000000
9E004F30
4F207E00
0E60BA00
0AA0E500
06E3F100
02FAC000
00CF8000
008F3000
005E0000
008A0000
16E40000
4E800000
ENDCHAR
STARTCHAR Ydieresis
ENCODING 376
SWIDTH 524 0
DWIDTH 8 0
BBX 8 15 0 0
BITMAP
01820650
02E40B90
00000000
8F1000AE
2F7001F7
0AC007F1
04F30DA0
00D93F30
006EAC00
001EF500
0009E000
0008E000
0008E000
0008E000
0008E000
ENDCHAR
STARTCHAR Zacute
ENCODING 377
SWIDTH 522 0
DWIDTH 8 0
BBX 8 15 0 0
BITMAP
00009E30
0004D300
00000000
4FFFFFF7
144447F4
00000CB0
00005F30
0000DA00
0006F200
001D9000
007E1000
01E80000
08E10000
2F944442
4FFFFFFB
ENDCHAR
STARTCHAR zacute
ENCODING 378
SWIDTH 438 0
DWIDTH 7 0
BBX 7 12 0 0
BITMAP
0004F700
001C7000
00000000
4FFFFF40
1333AE10
0002F600
000BC000
004F3000
00DA0000
07E20000
1E933310
4FFFFF60
ENDCHAR
STARTCHAR Zdotaccent
ENCODING 379
SWIDTH 522 0
DWIDTH 8 0
BBX 8 15 0 0
BITMAP
00048000
0007D000
00000000
4FFFFFF7
144447F4
00000CB0
00005F30
0000DA00
0006F200
001D9000
007E1000
01E80000
08E10000
2F944442
4FFFFFFB
ENDCHAR
STARTCHAR zdotaccent
ENCODING 380
SWIDTH 438 0
DWIDTH 7 0
BBX 7 12 0 0
BITMAP
00182000
003E4000
00000000
4FFFFF40
1333AE10
0002F600
000BC000
004F3000
00DA0000
07E20000
1E933310
4FFFFF60
ENDCHAR
STARTCHAR Zcaron
ENCODING 381
SWIDTH 522 0
DWIDTH 8 0
BBX 8 15 0 0
BITMAP
008A4D10
0009D200
00000000
4FFFFFF7
144447F4
00000CB0
00005F30
0000DA00
0006F200
001D9000
007E1000
01E80000
08E10000
2F944442
4FFFFFFB
ENDCHAR
STARTCHAR zcaron
ENCODING 382
SWIDTH 438 0
DWIDTH 7 0
BBX 7 12 0 0
BITMAP
03D2D400
005E6000
00000000
4FFFFF40
1333AE10
0002F600
000BC000
004F3000
00DA0000
07E20000
1E933310
4FFFFF60
ENDCHAR
STARTCHAR longs
ENCODING 383
SWIDTH 234 0
DWIDTH 4 0
BBX 4 12 1 0
BITMAP
1BE5
9E41
C900
C900
C900
C900
C900
C900
C900
C900
C900
C900
ENDCHAR
STARTCHAR uni018F
ENCODING 399
SWIDTH 597 0
DWIDTH 10 0
BBX 9 12 0 0
BITMAP
02ADFC5000
02A549F600
0000009E10
0000002F50
0000000E80
0000000C90
5FFFFFFF90
4F43333E80
2F40001F50
0D90007E10
06F847F600
006CFD5000
ENDCHAR
STARTCHAR florin
ENCODING 402
SWIDTH 309 0
DWIDTH 5 0
BBX 5 15 0 -3
BITMAP
009EA0
04F630
06E000
8FFF30
18E200
07E000
07E000
07E000
07E000
07E000
07E000
07E000
07E000
3BB000
DC3000
ENDCHAR
STARTCHAR Ohorn
ENCODING 416
SWIDTH 592 0
DWIDTH 9 0
BBX 10 14 0 0
BITMAP
0000000011
00000000B8
003BED72E4
02EB58FF90
0AC0008F10
0E70003F50
2F40000F70
4F30000E80
4F30000E80
2F40000F70
0E70002F40
0AC0008E00
02EA58F600
003BED6000
ENDCHAR
STARTCHAR ohorn
ENCODING 417
SWIDTH 502 0
DWIDTH 8 0
BBX 9 10 0 0
BITMAP
0000000C20
008EE83E00
07E55EF700
0E7007E000
2F4003F300
3F2002F400
2F3003F200
0E7007E000
07E55E8000
008EE80000
ENDCHAR
STARTCHAR Uhorn
ENCODING 431
SWIDTH 608 0
DWIDTH 10 0
BBX 10 13 1 0
BITMAP
0000000032
F70006F0B7
F70006F3E3
F70006FE70
F70006F000
F70006F000
F70006F000
F70006F000
F70006F000
E70007E000
BB000BC000
4F848F4000
06DFD50000
ENDCHAR
STARTCHAR uhorn
ENCODING 432
SWIDTH 549 0
DWIDTH 9 0
BBX 8 10 1 0
BITMAP
00000038
F600AA7A
F600AFC2
F600AA00
F600AA00
F600AA00
F600AA00
E700BA00
AD48FA00
2CEABA00
ENDCHAR
STARTCHAR uni01F0
ENCODING 496
SWIDTH 237 0
DWIDTH 4 0
BBX 5 15 -1 -3
BITMAP
0B67A0
01CC10
000000
00BA00
00BA00
00BA00
00BA00
00BA00
00BA00
00BA00
00BA00
00BA00
00B900
14E700
3EB100
ENDCHAR
STARTCHAR Aringacute
ENCODING 506
SWIDTH 576 0
DWIDTH 9 0
BBX 9 15 0 0
BITMAP
00003B2000
0003E70000
00075A0000
0005FD0000
0007FA0000
000BCE1000
001F4F5000
006E0B9000
00AB07E000
00E703F300
04F300E800
09FFFFFD00
0DA4447F20
3F40001F70
8E00000BB0
ENDCHAR
STARTCHAR aringacute
ENCODING 507
SWIDTH 479 0
DWIDTH 8 0
BBX 7 13 0 0
BITMAP
0001B500
000BB000
00299200
000CC000
019EE800
09D46F50
0C700D80
00000C80
02AEFF80
0CB31C80
1F500C80
0EA59F90
04DE9BB0
ENDCHAR
STARTCHAR AEacute
ENCODING 508
SWIDTH 812 0
DWIDTH 13 0
BBX 13 15 0 0
BITMAP
0000008E400000
000003D3000000
00000000000000
000007FFFFFF30
00001EFB333310
00007EAB000000
0000D89C000000
0006F29C000000
000DB08FFFFA00
006F408D333200
00DD008E000000
05FFFFFE000000
0CD5559F000000
4F60006F333320
CD00005FFFFF90
ENDCHAR
STARTCHAR aeacute
ENCODING 509
SWIDTH 728 0
DWIDTH 12 0
BBX 12 12 0 0
BITMAP
000002DB0000
000009A00000
000000000000
02BED46DE900
0CC49EF75E70
1D402FB007D0
00000F7005F0
05CEEFFFFFF1
2F932F722220
5F100FA00000
2F74ADF736A0
07EEA25DFD60
ENDCHAR
STARTCHAR Oslashacute
ENCODING 510
SWIDTH 600 0
DWIDTH 10 0
BBX 9 16 0 -1
BITMAP
00001DB100
00008A0000
0000000140
002AED7960
01DC58FE00
08E100AF10
0C9002DE60
0F700A6C90
1F502D0BA0
1F50A50BA0
0F73C00D90
0C9A501E70
08EC005F20
01ED56E900
03CAEE8000
0530000000
ENDCHAR
STARTCHAR oslashacute
ENCODING 511
SWIDTH 498 0
DWIDTH 8 0
BBX 8 13 0 -1
BITMAP
0002EA00
000A9000
00000560
008EEE20
07E57F80
0E709BE0
2F31C3F3
3F2682F4
2F3C23F2
0EAA07E0
07F85E70
01EDE800
05700000
ENDCHAR
STARTCHAR uni0218
ENCODING 536
SWIDTH 518 0
DWIDTH 8 0
BBX 8 16 0 -4
BITMAP
008DEB30
08E64AE2
0E8001E7
0F700054
0BE30000
02DFB400
0006DFA0
000006F5
271000D9
3F5000E8
0BE649F3
018DEC40
00000000
0006E000
0008C000
00095000
ENDCHAR
STARTCHAR uni0219
ENCODING 537
SWIDTH 455 0
DWIDTH 7 0
BBX 7 13 0 -4
BITMAP
02BED500
0BC48F30
0E700940
0AE50000
019FD500
0001AF40
2B300E70
0DB46F40
02BED700
00000000
000B8000
000D6000
001C1000
ENDCHAR
STARTCHAR uni021A
ENCODING 538
SWIDTH 520 0
DWIDTH 8 0
BBX 8 16 0 -4
BITMAP
8FFFFFFD
244AE443
0008D000
0008D000
0008D000
0008D000
0008D000
0008D000
0008D000
0008D000
0008D000
0008D000
00000000
0007D000
0009A000
000A3000
ENDCHAR
STARTCHAR uni021B
ENCODING 539
SWIDTH 295 0
DWIDTH 5 0
BBX 5 15 0 -4
BITMAP
08D000
08D000
CFFF20
29D200
08D000
08D000
08D000
08D000
08D000
06F410
01CE10
000000
007C00
009A00
00B300
ENDCHAR
STARTCHAR uni0237
ENCODING 567
SWIDTH 237 0
DWIDTH 4 0
BBX 4 12 -1 -3
BITMAP
00BA
00BA
00BA
00BA
00BA
00BA
00BA
00BA
00BA
00B9
14E7
3EB1
ENDCHAR
STARTCHAR uni0259
ENCODING 601
SWIDTH 465 0
DWIDTH 7 0
BBX 7 9 0 0
BITMAP
05DFC400
0A649E10
00000D80
00000AA0
3FFFFFC0
2F633BB0
0F500E70
0AD49E10
01BFC300
ENDCHAR
STARTCHAR uni02BC
ENCODING 700
SWIDTH 194 0
DWIDTH 3 0
BBX 3 4 0 8
BITMAP
0E70
0F60
3F20
5900
ENDCHAR
STARTCHAR circumflex
ENCODING 710
SWIDTH 428 0
DWIDTH 7 0
BBX 5 2 1 10
BITMAP
09E500
5B3C20
ENDCHAR
STARTCHAR caron
ENCODING 711
SWIDTH 403 0
DWIDTH 6 0
BBX 5 2 1 10
BITMAP
894C10
0AD200
ENDCHAR
STARTCHAR uni02C9
ENCODING 713
SWIDTH 414 0
DWIDTH 7 0
BBX 5 1 1 10
BITMAP
DFFFA0
ENDCHAR
STARTCHAR breve
ENCODING 728
SWIDTH 426 0
DWIDTH 7 0
BBX 5 2 1 10
BITMAP
D61A90
4DEB10
ENDCHAR
STARTCHAR dotaccent
ENCODING 729
SWIDTH 242 0
DWIDTH 4 0
BBX 2 2 1 10
BITMAP
65
B9
ENDCHAR
STARTCHAR ring
ENCODING 730
SWIDTH 334 0
DWIDTH 5 0
BBX 4 3 1 9
BITMAP
8BA1
C084
8BB1
ENDCHAR
STARTCHAR ogonek
ENCODING 731
SWIDTH 253 0
DWIDTH 4 0
BBX 3 4 0 -3
BITMAP
0130
2D30
7C20
4EB0
ENDCHAR
STARTCHAR tilde
ENCODING 732
SWIDTH 427 0
DWIDTH 7 0
BBX 5 3 1 10
BITMAP
010120
8F77A0
D29E30
ENDCHAR
STARTCHAR hungarumlaut
ENCODING 733
SWIDTH 331 0
DWIDTH 5 0
BBX 6 2 0 10
BITMAP
09C7E3
1C4D40
ENDCHAR
STARTCHAR uni02F3
ENCODING 755
SWIDTH 263 0
DWIDTH 4 0
BBX 4 3 0 -4
BITMAP
0BC1
1A83
0BD1
ENDCHAR
STARTCHAR gravecomb
ENCODING 768
SWIDTH 0 0
DWIDTH 0 0
BBX 4 2 -6 10
BITMAP
3E70
04C1
ENDCHAR
STARTCHAR acutecomb
ENCODING 769
SWIDTH 0 0
DWIDTH 0 0
BBX 4 2 -5 10
BITMAP
06F4
1C50
ENDCHAR
STARTCHAR tildecomb
ENCODING 771
SWIDTH 0 0
DWIDTH 0 0
BBX 5 3 -6 10
BITMAP
010030
4FA4E0
A56E60
ENDCHAR
STARTCHAR hookabovecomb
ENCODING 777
SWIDTH 0 0
DWIDTH 0 0
BBX 3 3 -5 10
BITMAP
4D50
08A0
3D20
ENDCHAR
STARTCHAR uni030F
ENCODING 783
SWIDTH 0 0
DWIDTH 0 0
BBX 6 2 -7 10
BITMAP
1CB9C0
01B8C6
ENDCHAR
STARTCHAR dotbelowcomb
ENCODING 803
SWIDTH 0 0
DWIDTH 0 0
BBX 3 2 -6 -3
BITMAP
6D10
3800
ENDCHAR
STARTCHAR tonos
ENCODING 900
SWIDTH 256 0
DWIDTH 4 0
BBX 3 3 1 10
BITMAP
3F10
6B00
5700
ENDCHAR
STARTCHAR dieresistonos
ENCODING 901
SWIDTH 452 0
DWIDTH 7 0
BBX 7 3 0 10
BITMAP
000C8000
082B4810
1E303E20
ENDCHAR
STARTCHAR Alphatonos
ENCODING 902
SWIDTH 576 0
DWIDTH 9 0
BBX 9 13 0 0
BITMAP
06E0000000
0892F60000
0747FA0000
000BCE1000
001F4F5000
006E0B9000
00AB07E000
00E703F300
04F300E800
09FFFFFD00
0DA4447F20
3F40001F70
8E00000BB0
ENDCHAR
STARTCHAR anoteleia
ENCODING 903
SWIDTH 243 0
DWIDTH 4 0
BBX 2 2 1 5
BITMAP
B8
75
ENDCHAR
STARTCHAR Epsilontonos
ENCODING 904
SWIDTH 496 0
DWIDTH 8 0
BBX 10 13 -2 0
BITMAP
2F30000000
4D0CFFFFF4
480CB44441
000CA00000
000CA00000
000CA00000
000CFFFFA0
000CB44420
000CA00000
000CA00000
000CA00000
000CB44441
000CFFFFF5
ENDCHAR
STARTCHAR Etatonos
ENCODING 905
SWIDTH 620 0
DWIDTH 10 0
BBX 11 13 -2 0
BITMAP
0F4000000000
3E0CA0000CA0
390CA0000CA0
000CA0000CA0
000CA0000CA0
000CA0000CA0
000CFFFFFFA0
000CB4444CA0
000CA0000CA0
000CA0000CA0
000CA0000CA0
000CA0000CA0
000CA0000CA0
ENDCHAR
STARTCHAR Iotatonos
ENCODING 906
SWIDTH 250 0
DWIDTH 4 0
BBX 5 13 -2 0
BITMAP
0F5000
2E1BB0
390BB0
000BB0
000BB0
000BB0
000BB0
000BB0
000BB0
000BB0
000BB0
000BB0
000BB0
ENDCHAR
STARTCHAR Omicrontonos
ENCODING 908
SWIDTH 610 0
DWIDTH 10 0
BBX 10 13 -1 0
BITMAP
0D60000000
1F22AEEA20
1A1DD66DD0
007F1002F6
00BB0000CA
00D90000AB
00D80000AC
00D80000AC
00D90000AB
00BB0000CA
007F1002F6
001DC66DD1
0002AEEA20
ENDCHAR
STARTCHAR Upsilontonos
ENCODING 910
SWIDTH 573 0
DWIDTH 9 0
BBX 11 13 -2 0
BITMAP
4F1000000000
6B0CC0000DB0
6605F3004F40
0000D900AD00
00007E11F600
00001F67E100
000009BC8000
000003FF2000
000000CB0000
000000BA0000
000000BA0000
000000BA0000
000000BA0000
ENDCHAR
STARTCHAR Omegatonos
ENCODING 911
SWIDTH 591 0
DWIDTH 9 0
BBX 10 13 -1 0
BITMAP
0D60000000
1F22BED600
1A1DB47F60
007E1008E0
00CA0003F4
00E80001F6
00F70000F7
00E80001F6
00D90002F5
009B0004F1
004F200AA0
003CD38F61
00EFF6DFF5
ENDCHAR
STARTCHAR iotadieresistonos
ENCODING 912
SWIDTH 299 0
DWIDTH 5 0
BBX 6 13 -1 0
BITMAP
002F30
373B46
6D007B
000000
008D00
008D00
008D00
008D00
008D00
008D00
008D00
006F51
001CE1
ENDCHAR
STARTCHAR Alpha
ENCODING 913
SWIDTH 576 0
DWIDTH 9 0
BBX 9 12 0 0
BITMAP
0002F60000
0007FA0000
000BCE1000
001F4F5000
006E0B9000
00AB07E000
00E703F300
04F300E800
09FFFFFD00
0DA4447F20
3F40001F70
8E00000BB0
ENDCHAR
STARTCHAR Beta
ENCODING 914
SWIDTH 545 0
DWIDTH 9 0
BBX 7 12 1 0
BITMAP
CFFFD600
CB449F30
CA000E80
CA000E80
CA006F30
CFFFF800
CB337F40
CA000CA0
CA000AC0
CA000CA0
CB448F40
CFFFD600
ENDCHAR
STARTCHAR Gamma
ENCODING 915
SWIDTH 487 0
DWIDTH 8 0
BBX 7 12 1 0
BITMAP
BFFFFF30
BC444410
BB000000
BB000000
BB000000
BB000000
BB000000
BB000000
BB000000
BB000000
BB000000
BB000000
ENDCHAR
STARTCHAR Delta.dup1
ENCODING 916
SWIDTH 614 0
DWIDTH 10 0
BBX 10 12 0 0
BITMAP
0000CC0000
0002FF1000
0007DE6000
000C8AB000
002F45F100
007E01F500
00C900CA00
02F4007E00
07E0003F40
0D90000D90
3F74444BD0
8FFFFFFFF3
ENDCHAR
STARTCHAR Epsilon
ENCODING 917
SWIDTH 496 0
DWIDTH 8 0
BBX 7 12 1 0
BITMAP
CFFFFF40
CB444410
CA000000
CA000000
CA000000
CFFFFA00
CB444200
CA000000
CA000000
CA000000
CB444410
CFFFFF50
ENDCHAR
STARTCHAR Zeta
ENCODING 918
SWIDTH 522 0
DWIDTH 8 0
BBX 8 12 0 0
BITMAP
4FFFFFF7
144447F4
00000CB0
00005F30
0000DA00
0006F200
001D9000
007E1000
01E80000
08E10000
2F944442
4FFFFFFB
ENDCHAR
STARTCHAR Eta
ENCODING 919
SWIDTH 620 0
DWIDTH 10 0
BBX 8 12 1 0
BITMAP
CA0000CA
CA0000CA
CA0000CA
CA0000CA
CA0000CA
CFFFFFFA
CB4444CA
CA0000CA
CA0000CA
CA0000CA
CA0000CA
CA0000CA
ENDCHAR
STARTCHAR Theta
ENCODING 920
SWIDTH 593 0
DWIDTH 10 0
BBX 9 12 0 0
BITMAP
003BED6000
02EB58F700
09D0008E10
0E70002F50
2F50000E70
3F3DFF7D80
3F42331D80
2F50000E70
0E70002F50
09D0007E10
02EB57F700
003BED7000
ENDCHAR
STARTCHAR Iota
ENCODING 921
SWIDTH 250 0
DWIDTH 4 0
BBX 2 12 1 0
BITMAP
BB
BB
BB
BB
BB
BB
BB
BB
BB
BB
BB
BB
ENDCHAR
STARTCHAR Kappa
ENCODING 922
SWIDTH 544 0
DWIDTH 9 0
BBX 8 12 1 0
BITMAP
CA000AE1
CA006F50
CA02E900
CA0BD100
CA6F4000
CCED0000
CFCF6000
CD19E100
CA02E900
CA007F30
CA000DC0
CA0005F6
ENDCHAR
STARTCHAR Lambda
ENCODING 923
SWIDTH 572 0
DWIDTH 9 0
BBX 9 12 0 0
BITMAP
0003F50000
0008F90000
000CED0000
001F8F3000
006F1E7000
00AB0AC000
00E706F100
04F302F500
08E000DA00
0DA0009E00
2F60005F30
6F20001F80
ENDCHAR
STARTCHAR Mu
ENCODING 924
SWIDTH 755 0
DWIDTH 12 0
BBX 10 12 1 0
BITMAP
CF300002FD
CF800007FD
CFD0000BFD
CBF2001FBD
C9D7005E8D
C99B00AA8D
C94F10E58D
CA0E54F19D
CA09A8A09D
CA05ED609D
CA01EF109D
CA00AB009D
ENDCHAR
STARTCHAR Nu
ENCODING 925
SWIDTH 619 0
DWIDTH 10 0
BBX 8 12 1 0
BITMAP
CD0000CA
CF6000CA
CFD000CA
CBE600CA
CA7D00CA
CA1E60CA
CA07D0CA
CA01E5CA
CA008DCA
CA001EFA
CA0008FA
CA0001EA
ENDCHAR
STARTCHAR Xi
ENCODING 926
SWIDTH 502 0
DWIDTH 8 0
BBX 8 12 0 0
BITMAP
0FFFFFF1
04444440
00000000
00000000
00000000
08FFFF80
02444420
00000000
00000000
00000000
04444440
1FFFFFF2
ENDCHAR
STARTCHAR Omicron
ENCODING 927
SWIDTH 600 0
DWIDTH 10 0
BBX 8 12 1 0
BITMAP
03BFE910
2EB67EB0
9D0004F3
D80000E7
F70000D9
F60000C9
F60000C9
F70000D9
D80000E7
9D0004F4
2EB56EB0
03BFE910
ENDCHAR
STARTCHAR Pi
ENCODING 928
SWIDTH 620 0
DWIDTH 10 0
BBX 8 12 1 0
BITMAP
BFFFFFF9
BC4444D9
BB0000C9
BB0000C9
BB0000C9
BB0000C9
BB0000C9
BB0000C9
BB0000C9
BB0000C9
BB0000C9
BB0000C9
ENDCHAR
STARTCHAR Rho
ENCODING 929
SWIDTH 554 0
DWIDTH 9 0
BBX 8 12 1 0
BITMAP
CFFFD910
CB446EA0
CA0006F1
CA0003F3
CA0005F2
CA002CC0
CFFFFD30
CB432000
CA000000
CA000000
CA000000
CA000000
ENDCHAR
STARTCHAR Sigma
ENCODING 931
SWIDTH 502 0
DWIDTH 8 0
BBX 8 12 0 0
BITMAP
6FFFFFF1
2FA44440
08F20000
00DB0000
004F5000
0009E100
0009E100
004F5000
00DB0000
08E20000
2FA44441
6FFFFFF6
ENDCHAR
STARTCHAR Tau
ENCODING 932
SWIDTH 520 0
DWIDTH 8 0
BBX 8 12 0 0
BITMAP
8FFFFFFD
244AE443
0008D000
0008D000
0008D000
0008D000
0008D000
0008D000
0008D000
0008D000
0008D000
0008D000
ENDCHAR
STARTCHAR Upsilon
ENCODING 933
SWIDTH 524 0
DWIDTH 8 0
BBX 8 12 0 0
BITMAP
8F1000AE
2F7001F7
0AC007F1
04F30DA0
00D93F30
006EAC00
001EF500
0009E000
0008E000
0008E000
0008E000
0008E000
ENDCHAR
STARTCHAR Phi
ENCODING 934
SWIDTH 621 0
DWIDTH 10 0
BBX 10 12 0 0
BITMAP
0000BB0000
0000BB0000
007DFFD700
08E7CC7E80
1F60BB06F1
4F20BB02F5
5F20BB02F5
2F40BB05F2
0BD3BB3DB0
01BFFFFB10
0002CC2000
0000BB0000
ENDCHAR
STARTCHAR Chi
ENCODING 935
SWIDTH 550 0
DWIDTH 9 0
BBX 9 12 0 0
BITMAP
2F8000AE10
0AE102F800
02F709E100
00AD2F8000
002FDE1000
000AF80000
000BF80000
003FCF1000
00BD1E8000
03F608F100
0BE002F800
3F70009F10
ENDCHAR
STARTCHAR Psi
ENCODING 936
SWIDTH 600 0
DWIDTH 10 0
BBX 9 12 0 0
BITMAP
5F10F609C0
5F10F609C0
5F10F609C0
5F10F609C0
5F20F609C0
3F30F60BB0
1E70F61E70
08E4F7AE10
01AFFFD400
0003F80000
0000F60000
0000F60000
ENDCHAR
STARTCHAR Omega.dup2
ENCODING 937
SWIDTH 581 0
DWIDTH 9 0
BBX 9 12 0 0
BITMAP
003CEC4000
02EA48F400
0AD000BC00
0E80005F10
1F60003F30
2F50003F40
1F50003F40
0F60004F20
0C90007E00
06E100C800
04DB2AE410
1FFF4FFF30
ENDCHAR
STARTCHAR Iotadieresis
ENCODING 938
SWIDTH 250 0
DWIDTH 4 0
BBX 6 15 -1 0
BITMAP
380083
5D11D6
000000
00BB00
00BB00
00BB00
00BB00
00BB00
00BB00
00BB00
00BB00
00BB00
00BB00
00BB00
00BB00
ENDCHAR
STARTCHAR Upsilondieresis
ENCODING 939
SWIDTH 524 0
DWIDTH 8 0
BBX 8 15 0 0
BITMAP
01820650
02E40B90
00000000
8F1000AE
2F7001F7
0AC007F1
04F30DA0
00D93F30
006EAC00
001EF500
0009E000
0008E000
0008E000
0008E000
0008E000
ENDCHAR
STARTCHAR alphatonos
ENCODING 940
SWIDTH 494 0
DWIDTH 8 0
BBX 8 13 0 0
BITMAP
0000E500
0001F100
0002A000
00000000
01AFC7C0
08E56FC0
0E8009C0
2F4008C0
3F3008C0
2F3008C0
0F6009D0
09E56EE3
01BFC4E8
ENDCHAR
STARTCHAR epsilontonos
ENCODING 941
SWIDTH 470 0
DWIDTH 8 0
BBX 7 13 0 0
BITMAP
0006D000
00099000
00084000
00000000
02BED600
0CC36F50
1F500860
0D910000
03FFF100
1EA32000
3F300770
0EB36F70
03BED800
ENDCHAR
STARTCHAR etatonos
ENCODING 942
SWIDTH 498 0
DWIDTH 8 0
BBX 6 16 1 -3
BITMAP
004F10
006B00
005600
000000
E7CEB1
EE55E8
E8009C
E7008D
E7008D
E7008D
E7008D
E7008D
E7008D
00008D
00008D
00008D
ENDCHAR
STARTCHAR iotatonos
ENCODING 943
SWIDTH 299 0
DWIDTH 5 0
BBX 4 13 1 0
BITMAP
0F50
2F10
2900
0000
8D00
8D00
8D00
8D00
8D00
8D00
8D00
6F51
1CE1
ENDCHAR
STARTCHAR upsilondieresistonos
ENCODING 944
SWIDTH 480 0
DWIDTH 8 0
BBX 6 13 1 0
BITMAP
009B00
738582
C601D4
000000
E702F4
E700D9
E700AC
E7008D
E7007D
E7009C
C900D9
8E49F2
1AED50
ENDCHAR
STARTCHAR alpha
ENCODING 945
SWIDTH 494 0
DWIDTH 8 0
BBX 8 9 0 0
BITMAP
01AFC7C0
08E56FC0
0E8009C0
2F4008C0
3F3008C0
2F3008C0
0F6009D0
09E56EE3
01BFC4E8
ENDCHAR
STARTCHAR beta
ENCODING 946
SWIDTH 517 0
DWIDTH 8 0
BBX 7 15 1 -3
BITMAP
06DE9100
5F64E900
BA007E00
C8006F00
C801C900
C86FE200
C813BC00
C8002F40
C8000F60
C8002F40
CE64BD00
CBCEB200
C8000000
C8000000
C8000000
ENDCHAR
STARTCHAR gamma
ENCODING 947
SWIDTH 444 0
DWIDTH 7 0
BBX 7 12 0 -3
BITMAP
6F100C90
1F401F40
0C905E00
07D0AA00
03F2E600
00D9F100
008FC000
004F7000
001F4000
001F4000
001F4000
001F4000
ENDCHAR
STARTCHAR delta
ENCODING 948
SWIDTH 498 0
DWIDTH 8 0
BBX 8 12 0 0
BITMAP
007EEA00
03F74700
05F20000
01BE7100
009FFD10
09D24EA0
1F6008F0
2F3004F2
2F4004F1
0E7007E0
08E55E70
009EE900
ENDCHAR
STARTCHAR epsilon
ENCODING 949
SWIDTH 470 0
DWIDTH 8 0
BBX 7 9 0 0
BITMAP
02BED600
0CC36F50
1F500860
0D910000
03FFF100
1EA32000
3F300770
0EB36F70
03BED800
ENDCHAR
STARTCHAR zeta
ENCODING 950
SWIDTH 462 0
DWIDTH 7 0
BBX 6 15 1 -3
BITMAP
FFFFF9
3335F4
000C90
007E10
02F600
0AC000
1F5000
6E0000
8C0000
8D0000
5F5000
08EE80
0017F3
0003F1
000670
ENDCHAR
STARTCHAR eta
ENCODING 951
SWIDTH 498 0
DWIDTH 8 0
BBX 6 12 1 -3
BITMAP
E7CEB1
EE55E8
E8009C
E7008D
E7008D
E7008D
E7008D
E7008D
E7008D
00008D
00008D
00008D
ENDCHAR
STARTCHAR theta
ENCODING 952
SWIDTH 496 0
DWIDTH 8 0
BBX 7 12 0 0
BITMAP
008EE700
05F56F40
0B900AA0
0E6007D0
1F5006F0
1FFFFFF0
1F7337F0
1F5006F0
0E7008D0
0BB00BA0
05F66F40
007EE700
ENDCHAR
STARTCHAR iota
ENCODING 953
SWIDTH 299 0
DWIDTH 5 0
BBX 4 9 1 0
BITMAP
8D00
8D00
8D00
8D00
8D00
8D00
8D00
6F51
1CE1
ENDCHAR
STARTCHAR kappa
ENCODING 954
SWIDTH 491 0
DWIDTH 8 0
BBX 7 9 1 0
BITMAP
D800CC00
D806F300
D82E8000
D8AD0000
DFF60000
DABD1000
D82E9000
D806F500
D800AE10
ENDCHAR
STARTCHAR lambda
ENCODING 955
SWIDTH 485 0
DWIDTH 8 0
BBX 8 12 0 0
BITMAP
0BD20000
03E90000
009E0000
004F4000
004F9000
009FE000
00DAF400
03F2D900
08D08D00
0D903F30
2F500DA1
7F1005E4
ENDCHAR
STARTCHAR uni03BC
ENCODING 956
SWIDTH 498 0
DWIDTH 8 0
BBX 6 12 1 -3
BITMAP
D8008C
D8008C
D8008C
D8008C
D8008C
D8008C
DA009C
DE45EC
DCED9C
D80000
D80000
D80000
ENDCHAR
STARTCHAR nu
ENCODING 957
SWIDTH 427 0
DWIDTH 7 0
BBX 7 9 0 0
BITMAP
8D001F40
3F205F10
0E608B00
0A90C700
06D1F300
01F6E000
00CD9000
008F5000
004F1000
ENDCHAR
STARTCHAR xi
ENCODING 958
SWIDTH 431 0
DWIDTH 7 0
BBX 7 15 0 -3
BITMAP
008DFD00
08E63500
0C900000
07D30000
009FF800
05E73200
0E700000
2F300000
3F300000
1E800000
08F71000
006DFA00
00004F40
00002F20
00005800
ENDCHAR
STARTCHAR omicron
ENCODING 959
SWIDTH 501 0
DWIDTH 8 0
BBX 8 9 0 0
BITMAP
009EE910
08E55E90
1F6006F1
3F3002F3
4F2001F4
3F3002F3
1F6005F1
09E54D90
019EE910
ENDCHAR
STARTCHAR pi
ENCODING 960
SWIDTH 520 0
DWIDTH 8 0
BBX 8 9 0 0
BITMAP
9FFFFFF9
29D33BB2
08D00BA0
08D00BA0
08D00BA0
08D00BA0
08D00AA0
08D009D4
08D003DD
ENDCHAR
STARTCHAR rho
ENCODING 961
SWIDTH 498 0
DWIDTH 8 0
BBX 7 12 1 -3
BITMAP
06EE8000
4F75E700
BC008D00
D8005F10
E7004F20
E7004F10
E7008E00
EE55E900
EACEB100
E7000000
E7000000
E7000000
ENDCHAR
STARTCHAR sigma1
ENCODING 962
SWIDTH 472 0
DWIDTH 8 0
BBX 7 12 0 -3
BITMAP
008ED700
07E56F50
0E800A90
2F400110
3F300000
2F400000
0EA00000
06FA2000
005CFB00
00004F40
00003F10
00005700
ENDCHAR
STARTCHAR sigma
ENCODING 963
SWIDTH 498 0
DWIDTH 8 0
BBX 8 9 0 0
BITMAP
008EFFFB
07E56E62
0E8008B0
2F4004F1
3F3003F2
1F4004F2
0D8008D0
07E55E70
008EE700
ENDCHAR
STARTCHAR tau
ENCODING 964
SWIDTH 460 0
DWIDTH 7 0
BBX 7 9 0 0
BITMAP
4FFFFFA0
134F6320
001F5000
001F5000
001F5000
001F5000
001F5000
000F9300
0007E900
ENDCHAR
STARTCHAR upsilon
ENCODING 965
SWIDTH 480 0
DWIDTH 8 0
BBX 6 9 1 0
BITMAP
E702F4
E700D9
E700AC
E7008D
E7007D
E7009C
C900D9
8E49F2
1AED50
ENDCHAR
STARTCHAR phi
ENCODING 966
SWIDTH 617 0
DWIDTH 10 0
BBX 10 13 0 -4
BITMAP
03904ED600
0BC0BB6F50
2F50C808D0
4F20C804F2
4F10C803F3
3F30C805F1
0D90C80BC0
06F8DAAF40
006DFFB400
0000C80000
0000C80000
0000C80000
0000C80000
ENDCHAR
STARTCHAR chi
ENCODING 967
SWIDTH 438 0
DWIDTH 7 0
BBX 8 12 0 -3
BITMAP
8E400D80
2AD04F20
01F4AB00
00ABF500
005FE000
000F9000
004FB000
00AEF100
01E6E700
06E18C00
0C902F71
3F3008E1
ENDCHAR
STARTCHAR psi
ENCODING 968
SWIDTH 612 0
DWIDTH 10 0
BBX 10 13 0 -4
BITMAP
4F20D80E80
4F20D80AC0
4F20D806F0
4F20D805F1
3F20D804F1
2F40D806F0
0D90D80CB0
06F8EABF30
006DFFB400
0000D80000
0000D80000
0000D80000
0000D80000
ENDCHAR
STARTCHAR omega
ENCODING 969
SWIDTH 711 0
DWIDTH 11 0
BBX 11 9 0 0
BITMAP
06F20000BB00
0AC000006F10
0E8007303F40
0F600F601F50
1F500F600F60
0F601F601F50
0D803F904F30
08E4ABF8DD00
01AFB17ED300
ENDCHAR
STARTCHAR iotadieresis
ENCODING 970
SWIDTH 299 0
DWIDTH 5 0
BBX 6 12 -1 0
BITMAP
182064
2E40B9
000000
008D00
008D00
008D00
008D00
008D00
008D00
008D00
006F51
001CE1
ENDCHAR
STARTCHAR upsilondieresis
ENCODING 971
SWIDTH 480 0
DWIDTH 8 0
BBX 6 12 1 0
BITMAP
560281
9B04E2
000000
E702F4
E700D9
E700AC
E7008D
E7007D
E7009C
C900D9
8E49F2
1AED50
ENDCHAR
STARTCHAR omicrontonos
ENCODING 972
SWIDTH 501 0
DWIDTH 8 0
BBX 8 13 0 0
BITMAP
0004F100
0006B000
00066000
00000000
009EE910
08E55E90
1F6006F1
3F3002F3
4F2001F4
3F3002F3
1F6005F1
09E54D90
019EE910
ENDCHAR
STARTCHAR upsilontonos
ENCODING 973
SWIDTH 480 0
DWIDTH 8 0
BBX 6 13 1 0
BITMAP
007D00
009800
008400
000000
E702F4
E700D9
E700AC
E7008D
E7007D
E7009C
C900D9
8E49F2
1AED50
ENDCHAR
STARTCHAR omegatonos
ENCODING 974
SWIDTH 711 0
DWIDTH 11 0
BBX 11 13 0 0
BITMAP
000008C00000
00000A700000
000009300000
000000000000
06F20000BB00
0AC000006F10
0E8007303F40
0F600F601F50
1F500F600F60
0F601F601F50
0D803F904F30
08E4ABF8DD00
01AFB17ED300
ENDCHAR
STARTCHAR theta1
ENCODING 977
SWIDTH 507 0
DWIDTH 8 0
BBX 8 12 0 0
BITMAP
001AEB10
007E5D80
00AA09B0
009B09C0
006E19C0
052EBAC1
1F52CFFA
1F5009D1
1F5009C0
0E700BA0
08E56F50
009ED700
ENDCHAR
STARTCHAR Upsilon1
ENCODING 978
SWIDTH 465 0
DWIDTH 7 0
BBX 8 12 0 0
BITMAP
EB0004E6
6F500CB2
0BA03F40
06F18D00
01E6D700
00AEF200
004FB000
000F7000
000F7000
000F7000
000F7000
000F7000
ENDCHAR
STARTCHAR omega1
ENCODING 982
SWIDTH 678 0
DWIDTH 11 0
BBX 11 9 0 0
BITMAP
5FFFFFFFFF60
1BD33333EA10
0D900000AC00
0E703F308D00
0F603F307E00
0E704F308D00
0C906F50AB00
07E4DAC4E600
01BE90AEA000
ENDCHAR
STARTCHAR uni0400
ENCODING 1024
SWIDTH 496 0
DWIDTH 8 0
BBX 7 15 1 0
BITMAP
0AD20000
00A90000
00000000
CFFFFF40
CB444410
CA000000
CA000000
CA000000
CFFFFA00
CB444200
CA000000
CA000000
CA000000
CB444410
CFFFFF50
ENDCHAR
STARTCHAR uni0401
ENCODING 1025
SWIDTH 496 0
DWIDTH 8 0
BBX 7 15 1 0
BITMAP
18206500
2E40B900
00000000
CFFFFF40
CB444410
CA000000
CA000000
CA000000
CFFFFA00
CB444200
CA000000
CA000000
CA000000
CB444410
CFFFFF50
ENDCHAR
STARTCHAR uni0402
ENCODING 1026
SWIDTH 650 0
DWIDTH 10 0
BBX 10 12 0 0
BITMAP
9FFFFFFD00
244EA44300
000E800000
000E800000
000E800000
000EDDEC50
000EC65AF3
000E8000D9
000E8000BB
000E8000C9
000E8027F4
000E808C50
ENDCHAR
STARTCHAR uni0403
ENCODING 1027
SWIDTH 487 0
DWIDTH 8 0
BBX 7 15 1 0
BITMAP
0008E400
003D3000
00000000
BFFFFF30
BC444410
BB000000
BB000000
BB000000
BB000000
BB000000
BB000000
BB000000
BB000000
BB000000
BB000000
ENDCHAR
STARTCHAR uni0404
ENCODING 1028
SWIDTH 589 0
DWIDTH 9 0
BBX 9 12 0 0
BITMAP
002AEE9000
01DB56E900
08D0006F10
0D80002D40
0F60000000
1FFFFF0000
1F84440000
0F70000000
0DA0002D40
08E1006F10
01EB46E900
002BFD8000
ENDCHAR
STARTCHAR uni0405
ENCODING 1029
SWIDTH 518 0
DWIDTH 8 0
BBX 8 12 0 0
BITMAP
008DEB30
08E64AE2
0E8001E7
0F700054
0BE30000
02DFB400
0006DFA0
000006F5
271000D9
3F5000E8
0BE649F3
018DEC40
ENDCHAR
STARTCHAR uni0406
ENCODING 1030
SWIDTH 250 0
DWIDTH 4 0
BBX 2 12 1 0
BITMAP
BB
BB
BB
BB
BB
BB
BB
BB
BB
BB
BB
BB
ENDCHAR
STARTCHAR uni0407
ENCODING 1031
SWIDTH 250 0
DWIDTH 4 0
BBX 6 15 -1 0
BITMAP
380083
5D11D6
000000
00BB00
00BB00
00BB00
00BB00
00BB00
00BB00
00BB00
00BB00
00BB00
00BB00
00BB00
00BB00
ENDCHAR
STARTCHAR uni0408
ENCODING 1032
SWIDTH 483 0
DWIDTH 8 0
BBX 7 12 0 0
BITMAP
00000D90
00000D90
00000D90
00000D90
00000D90
00000D90
00000D90
00000D90
24000D80
6F101F70
2FA4AE10
04CEC400
ENDCHAR
STARTCHAR uni0409
ENCODING 1033
SWIDTH 923 0
DWIDTH 15 0
BBX 15 12 0 0
BITMAP
007FFFFF90000000
008E444D90000000
008D000D90000000
009D000D90000000
009C000D90000000
009C000DFFFE9000
00AB000DA446E900
00BA000D90007F00
00D8000D90005F10
01F6000D90008E00
2AE1000DA446E800
8D50000DFFFD8000
ENDCHAR
STARTCHAR uni040A
ENCODING 1034
SWIDTH 927 0
DWIDTH 15 0
BBX 14 12 1 0
BITMAP
BB0000C9000000
BB0000C9000000
BB0000C9000000
BB0000C9000000
BB0000C9000000
BFFFFFFFFFD910
BC4444DB446E90
BB0000C90007F0
BB0000C90004F2
BB0000C90007F0
BB0000CB447E90
BB0000CFFFD910
ENDCHAR
STARTCHAR uni040B
ENCODING 1035
SWIDTH 705 0
DWIDTH 11 0
BBX 10 12 0 0
BITMAP
6FFFFFFF00
144DB44400
000C900000
000C900000
000C900000
000CEDFD91
000CC546E8
000C90009D
000C90007F
000C90007F
000C90007F
000C90007F
ENDCHAR
STARTCHAR uni040C
ENCODING 1036
SWIDTH 544 0
DWIDTH 9 0
BBX 8 15 1 0
BITMAP
000AE300
004C2000
00000000
CA000AE1
CA006F50
CA02E900
CA0BD100
CA6F4000
CCED0000
CFCF6000
CD19E100
CA02E900
CA007F30
CA000DC0
CA0005F6
ENDCHAR
STARTCHAR uni040D
ENCODING 1037
SWIDTH 619 0
DWIDTH 10 0
BBX 8 15 1 0
BITMAP
02DB1000
001C6000
00000000
BB0002F9
BB0008F9
BB001EF9
BB008CD9
BB01E5D9
BB07D0D9
BB1E50D9
BB6D00D9
BBD600D9
BFE000D9
BF7000D9
BE1000D9
ENDCHAR
STARTCHAR uni040E
ENCODING 1038
SWIDTH 547 0
DWIDTH 9 0
BBX 9 15 0 0
BITMAP
00C71AA000
003CEB2000
0000000000
2F70009F10
0BC000EB00
06F203F600
01F708F100
00AC0DB000
005F4F6000
000EDF1000
0009FB0000
0004F60000
0006F10000
004DA00000
01FB200000
ENDCHAR
STARTCHAR uni040F
ENCODING 1039
SWIDTH 621 0
DWIDTH 10 0
BBX 8 15 1 -3
BITMAP
BB0000C9
BB0000C9
BB0000C9
BB0000C9
BB0000C9
BB0000C9
BB0000C9
BB0000C9
BB0000C9
BB0000C9
BC4444D9
BFFFFFF9
000BB000
000BB000
000BB000
ENDCHAR
STARTCHAR uni0410
ENCODING 1040
SWIDTH 576 0
DWIDTH 9 0
BBX 9 12 0 0
BITMAP
0002F60000
0007FA0000
000BCE1000
001F4F5000
006E0B9000
00AB07E000
00E703F300
04F300E800
09FFFFFD00
0DA4447F20
3F40001F70
8E00000BB0
ENDCHAR
STARTCHAR uni0411
ENCODING 1041
SWIDTH 549 0
DWIDTH 9 0
BBX 8 12 1 0
BITMAP
CFFFFF10
CB444400
C9000000
C9000000
C9000000
CFFFE910
CB446EA0
C90006F1
C90004F2
C90007F1
CB446E90
CFFFD910
ENDCHAR
STARTCHAR uni0412
ENCODING 1042
SWIDTH 545 0
DWIDTH 9 0
BBX 7 12 1 0
BITMAP
CFFFD600
CB449F30
CA000E80
CA000E80
CA006F30
CFFFF800
CB337F40
CA000CA0
CA000AC0
CA000CA0
CB448F40
CFFFD600
ENDCHAR
STARTCHAR uni0413
ENCODING 1043
SWIDTH 487 0
DWIDTH 8 0
BBX 7 12 1 0
BITMAP
BFFFFF30
BC444410
BB000000
BB000000
BB000000
BB000000
BB000000
BB000000
BB000000
BB000000
BB000000
BB000000
ENDCHAR
STARTCHAR uni0414
ENCODING 1044
SWIDTH 660 0
DWIDTH 11 0
BBX 11 15 0 -3
BITMAP
003FFFFFB000
004F644CB000
004F200BB000
005F200BB000
005F100BB000
006F000BB000
008E000BB000
00AC000BB000
00D9000BB000
02F5000BB000
2AE4444CC400
8FFFFFFFFF10
8D0000006F10
8D0000006F00
8D0000006F00
ENDCHAR
STARTCHAR uni0415
ENCODING 1045
SWIDTH 496 0
DWIDTH 8 0
BBX 7 12 1 0
BITMAP
CFFFFF40
CB444410
CA000000
CA000000
CA000000
CFFFFA00
CB444200
CA000000
CA000000
CA000000
CB444410
CFFFFF50
ENDCHAR
STARTCHAR uni0416
ENCODING 1046
SWIDTH 791 0
DWIDTH 13 0
BBX 13 12 0 0
BITMAP
3F7004F200AE00
0BD004F202F700
04F404F207E100
00CA04F20D9000
005F14F24F2000
000D74F2AA0000
000AFFFFF60000
002F97F5BD0000
00AE14F23F7000
04F704F20AE100
0CD004F202F900
6F6004F2009F20
ENDCHAR
STARTCHAR uni0417
ENCODING 1047
SWIDTH 517 0
DWIDTH 8 0
BBX 8 12 0 0
BITMAP
019EEB30
0AE65CE1
1F6002F5
141001F6
000018E1
000EFF40
00034BE1
000001F7
261000D8
3F4001F6
0CD55CE1
019EEA20
ENDCHAR
STARTCHAR uni0418
ENCODING 1048
SWIDTH 619 0
DWIDTH 10 0
BBX 8 12 1 0
BITMAP
BB0002F9
BB0008F9
BB001EF9
BB008CD9
BB01E5D9
BB07D0D9
BB1E50D9
BB6D00D9
BBD600D9
BFE000D9
BF7000D9
BE1000D9
ENDCHAR
STARTCHAR uni0419
ENCODING 1049
SWIDTH 619 0
DWIDTH 10 0
BBX 8 15 1 0
BITMAP
04E22E30
008EE800
00000000
BB0002F9
BB0008F9
BB001EF9
BB008CD9
BB01E5D9
BB07D0D9
BB1E50D9
BB6D00D9
BBD600D9
BFE000D9
BF7000D9
BE1000D9
ENDCHAR
STARTCHAR uni041A
ENCODING 1050
SWIDTH 560 0
DWIDTH 9 0
BBX 8 12 1 0
BITMAP
BB0007F4
BB001EB0
BB009F20
BB03F800
BB0BD100
BD8F5000
BFDF4000
BB0CD100
BB03F800
BB008F30
BB000DD0
BB0003F8
ENDCHAR
STARTCHAR uni041B
ENCODING 1051
SWIDTH 615 0
DWIDTH 10 0
BBX 9 12 0 0
BITMAP
007FFFFF80
008E444E80
008D000D80
008D000D80
009C000D80
009C000D80
00AB000D80
00BA000D80
00C8000D80
01F6000D80
2AE1000D80
8D50000D80
ENDCHAR
STARTCHAR uni041C
ENCODING 1052
SWIDTH 755 0
DWIDTH 12 0
BBX 10 12 1 0
BITMAP
CF300002FD
CF800007FD
CFD0000BFD
CBF2001FBD
C9D7005E8D
C99B00AA8D
C94F10E58D
CA0E54F19D
CA09A8A09D
CA05ED609D
CA01EF109D
CA00AB009D
ENDCHAR
STARTCHAR uni041D
ENCODING 1053
SWIDTH 620 0
DWIDTH 10 0
BBX 8 12 1 0
BITMAP
CA0000CA
CA0000CA
CA0000CA
CA0000CA
CA0000CA
CFFFFFFA
CB4444CA
CA0000CA
CA0000CA
CA0000CA
CA0000CA
CA0000CA
ENDCHAR
STARTCHAR uni041E
ENCODING 1054
SWIDTH 600 0
DWIDTH 10 0
BBX 8 12 1 0
BITMAP
03BFE910
2EB67EB0
9D0004F3
D80000E7
F70000D9
F60000C9
F60000C9
F70000D9
D80000E7
9D0004F4
2EB56EB0
03BFE910
ENDCHAR
STARTCHAR uni041F
ENCODING 1055
SWIDTH 620 0
DWIDTH 10 0
BBX 8 12 1 0
BITMAP
BFFFFFF9
BC4444D9
BB0000C9
BB0000C9
BB0000C9
BB0000C9
BB0000C9
BB0000C9
BB0000C9
BB0000C9
BB0000C9
BB0000C9
ENDCHAR
STARTCHAR uni0420
ENCODING 1056
SWIDTH 554 0
DWIDTH 9 0
BBX 8 12 1 0
BITMAP
CFFFD910
CB446EA0
CA0006F1
CA0003F3
CA0005F2
CA002CC0
CFFFFD30
CB432000
CA000000
CA000000
CA000000
CA000000
ENDCHAR
STARTCHAR uni0421
ENCODING 1057
SWIDTH 566 0
DWIDTH 9 0
BBX 8 12 1 0
BITMAP
03BED910
2EB56DA0
9D0005F2
E90002C3
F7000000
F6000000
F6000000
F7000000
D80002C3
9D0005F2
2EA45DA0
03CFD810
ENDCHAR
STARTCHAR uni0422
ENCODING 1058
SWIDTH 520 0
DWIDTH 8 0
BBX 8 12 0 0
BITMAP
8FFFFFFD
244AE443
0008D000
0008D000
0008D000
0008D000
0008D000
0008D000
0008D000
0008D000
0008D000
0008D000
ENDCHAR
STARTCHAR uni0423
ENCODING 1059
SWIDTH 547 0
DWIDTH 9 0
BBX 9 12 0 0
BITMAP
2F70009F10
0BC000EB00
06F203F600
01F708F100
00AC0DB000
005F4F6000
000EDF1000
0009FB0000
0004F60000
0006F10000
004DA00000
01FB200000
ENDCHAR
STARTCHAR uni0424
ENCODING 1060
SWIDTH 676 0
DWIDTH 11 0
BBX 11 12 0 0
BITMAP
00004F200000
00004F200000
006CFFFC4000
07E76F58F500
1E704F208D00
3F204F204F20
3F204F204F20
1E704F208D00
07E76F58F500
006CFFFC5000
00004F200000
00004F200000
ENDCHAR
STARTCHAR uni0425
ENCODING 1061
SWIDTH 550 0
DWIDTH 9 0
BBX 9 12 0 0
BITMAP
2F8000AE10
0AE102F800
02F709E100
00AD2F8000
002FDE1000
000AF80000
000BF80000
003FCF1000
00BD1E8000
03F608F100
0BE002F800
3F70009F10
ENDCHAR
STARTCHAR uni0426
ENCODING 1062
SWIDTH 639 0
DWIDTH 10 0
BBX 9 15 1 -3
BITMAP
BB0000C900
BB0000C900
BB0000C900
BB0000C900
BB0000C900
BB0000C900
BB0000C900
BB0000C900
BB0000C900
BB0000C900
BC4444DB30
BFFFFFFF90
0000000C90
0000000C80
0000000C80
ENDCHAR
STARTCHAR uni0427
ENCODING 1063
SWIDTH 600 0
DWIDTH 10 0
BBX 8 12 1 0
BITMAP
E80002F5
E80002F5
E80002F5
E80002F5
C90002F5
8E3026F5
1BFFFEF5
002322F5
000002F5
000002F5
000002F5
000002F5
ENDCHAR
STARTCHAR uni0428
ENCODING 1064
SWIDTH 814 0
DWIDTH 13 0
BBX 11 12 1 0
BITMAP
BB003F400AB0
BB003F400AB0
BB003F400AB0
BB003F400AB0
BB003F400AB0
BB003F400AB0
BB003F400AB0
BB003F400AB0
BB003F400AB0
BB003F400AB0
BC445F644BB0
BFFFFFFFFFB0
ENDCHAR
STARTCHAR uni0429
ENCODING 1065
SWIDTH 841 0
DWIDTH 13 0
BBX 12 15 1 -3
BITMAP
BB003F400AB0
BB003F400AB0
BB003F400AB0
BB003F400AB0
BB003F400AB0
BB003F400AB0
BB003F400AB0
BB003F400AB0
BB003F400AB0
BB003F400AB0
BC445F644BC2
BFFFFFFFFFFB
00000000009A
00000000009A
000000000099
ENDCHAR
STARTCHAR uni042A
ENCODING 1066
SWIDTH 651 0
DWIDTH 10 0
BBX 10 12 0 0
BITMAP
AFFF400000
235F400000
003F400000
003F400000
003F400000
003FFFFC50
003F7448F4
003F4000CA
003F4000AC
003F4000CA
003F7449F4
003FFFFC50
ENDCHAR
STARTCHAR uni042B
ENCODING 1067
SWIDTH 755 0
DWIDTH 12 0
BBX 10 12 1 0
BITMAP
AB000000BB
AB000000BB
AB000000BB
AB000000BB
AB000000BB
AFFFEA10BB
AC445DB0BB
AB0005F2BB
AB0003F4BB
AB0005F2BB
AC445DB0BB
AFFFEA10BB
ENDCHAR
STARTCHAR uni042C
ENCODING 1068
SWIDTH 551 0
DWIDTH 9 0
BBX 8 12 1 0
BITMAP
C9000000
C9000000
C9000000
C9000000
C9000000
CFFFE910
CB446EA0
C90006F1
C90004F2
C90007F1
CB446E90
CFFFD910
ENDCHAR
STARTCHAR uni042D
ENCODING 1069
SWIDTH 589 0
DWIDTH 9 0
BBX 8 12 1 0
BITMAP
04CFD700
2EA47F70
8E0006F1
B90001F6
000000D8
008FFFF9
002444D9
000000E8
A90001F6
8D0007F1
2EA46E80
03BED700
ENDCHAR
STARTCHAR uni042E
ENCODING 1070
SWIDTH 765 0
DWIDTH 12 0
BBX 11 12 1 0
BITMAP
BB004BEE9100
BB03FC67EB00
BB0AE1004F40
BB0D90000E80
BB0F70000C90
BFFF70000CA0
BC3F70000CA0
BB0E70000C90
BB0C90000E80
BB08E0004F40
BB01EC56EC00
BB002BEE9100
ENDCHAR
STARTCHAR uni042F
ENCODING 1071
SWIDTH 562 0
DWIDTH 9 0
BBX 8 12 0 0
BITMAP
006CFFF9
05F844D9
0BB000C9
0D9000C9
0CB000C9
06F500C9
007FFFF9
005F44D9
00CA00C9
03F400C9
09D000C9
1F7000C9
ENDCHAR
STARTCHAR uni0430
ENCODING 1072
SWIDTH 479 0
DWIDTH 8 0
BBX 7 9 0 0
BITMAP
019EE800
09D46F50
0C700D80
00000C80
02AEFF80
0CB31C80
1F500C80
0EA59F90
04DE9BB0
ENDCHAR
STARTCHAR uni0431
ENCODING 1073
SWIDTH 484 0
DWIDTH 8 0
BBX 8 12 0 0
BITMAP
00000AA0
0019EE40
01DC6100
08A00000
0D7DFA10
1FD55E90
3F6007F0
3F3004F2
2F4004F1
0E7007E0
08E55E70
009EE900
ENDCHAR
STARTCHAR uni0432
ENCODING 1074
SWIDTH 503 0
DWIDTH 8 0
BBX 7 9 1 0
BITMAP
DFFEB200
D934CB00
D8007E00
D801BB00
DFFFF300
D9239E10
D8003F30
D9339E10
DFFFC400
ENDCHAR
STARTCHAR uni0433
ENCODING 1075
SWIDTH 371 0
DWIDTH 6 0
BBX 5 9 1 0
BITMAP
DFFFA0
D93320
D80000
D80000
D80000
D80000
D80000
D80000
D80000
ENDCHAR
STARTCHAR uni0434
ENCODING 1076
SWIDTH 536 0
DWIDTH 9 0
BBX 8 11 0 -2
BITMAP
00AFFFF1
00BC58F1
00B905F1
00C905F1
00D805F1
00F605F1
04F205F1
2CC337F3
8FFFFFFF
8D00005F
8D00005F
ENDCHAR
STARTCHAR uni0435
ENCODING 1077
SWIDTH 468 0
DWIDTH 8 0
BBX 7 9 0 0
BITMAP
01AEE800
09D46F50
0F600BA0
2F3008D0
3FFFFFD0
3F533320
1F500000
0AD54A80
019EEB20
ENDCHAR
STARTCHAR uni0436
ENCODING 1078
SWIDTH 662 0
DWIDTH 11 0
BBX 11 9 0 0
BITMAP
4F606F00CC00
0CC06F03F500
04F36F09D000
00C96F1F5000
006FFFFE0000
00CB9F5F5000
05F36F0AD000
0DB06F03F700
6F406F00BE10
ENDCHAR
STARTCHAR uni0437
ENCODING 1079
SWIDTH 446 0
DWIDTH 7 0
BBX 7 9 0 0
BITMAP
03BEC400
0DB3AE10
19203F30
00007E10
009FF600
00238F20
2B201F50
1EA38F20
03CED500
ENDCHAR
STARTCHAR uni0438
ENCODING 1080
SWIDTH 509 0
DWIDTH 8 0
BBX 6 9 1 0
BITMAP
D8009F
D802FF
D808EF
D81E8F
D87A6F
D9E36F
DEB06F
DF406F
DC006F
ENDCHAR
STARTCHAR uni0439
ENCODING 1081
SWIDTH 509 0
DWIDTH 8 0
BBX 6 12 1 0
BITMAP
2F31D5
07EE90
000000
D8009F
D802FF
D808EF
D81E8F
D87A6F
D9E36F
DEB06F
DF406F
DC006F
ENDCHAR
STARTCHAR uni043A
ENCODING 1082
SWIDTH 479 0
DWIDTH 8 0
BBX 7 9 1 0
BITMAP
C800BD00
C805F400
C80D9000
C87E1000
CFF80000
CA9E2000
C81DB000
C804F600
C800AE20
ENDCHAR
STARTCHAR uni043B
ENCODING 1083
SWIDTH 509 0
DWIDTH 8 0
BBX 7 9 0 0
BITMAP
00EFFFF0
00F738F0
00F506F0
01F406F0
01F306F0
02F206F0
05F006F0
3CB006F0
8D3006F0
ENDCHAR
STARTCHAR uni043C
ENCODING 1084
SWIDTH 645 0
DWIDTH 10 0
BBX 9 9 1 0
BITMAP
DF2000BF30
DF6001FF30
DFB005FF30
DBF10ABF30
D8D61E6F30
D87B5D3F30
D82FB83F30
D80CF33F30
D807C03F30
ENDCHAR
STARTCHAR uni043D
ENCODING 1085
SWIDTH 508 0
DWIDTH 8 0
BBX 6 9 1 0
BITMAP
D8006F
D8006F
D8006F
D8006F
DFFFFF
D9338F
D8006F
D8006F
D8006F
ENDCHAR
STARTCHAR uni043E
ENCODING 1086
SWIDTH 501 0
DWIDTH 8 0
BBX 8 9 0 0
BITMAP
009EE910
08E55E90
1F6006F1
3F3002F3
4F2001F4
3F3002F3
1F6005F1
09E54D90
019EE910
ENDCHAR
STARTCHAR uni043F
ENCODING 1087
SWIDTH 509 0
DWIDTH 8 0
BBX 6 9 1 0
BITMAP
DFFFFF
DA338F
D8006F
D8006F
D8006F
D8006F
D8006F
D8006F
D8006F
ENDCHAR
STARTCHAR uni0440
ENCODING 1088
SWIDTH 493 0
DWIDTH 8 0
BBX 7 12 1 -3
BITMAP
E7CEB100
ED56EA00
E7007F00
E6004F10
E6004F20
E6004F20
E7007F00
ED55EA00
E9CEA100
E6000000
E6000000
E6000000
ENDCHAR
STARTCHAR uni0441
ENCODING 1089
SWIDTH 461 0
DWIDTH 7 0
BBX 7 9 0 0
BITMAP
01AEE800
0AD45E60
1F5009B0
3F300010
4F200000
3F300000
1F500790
0AD45E60
01AEE800
ENDCHAR
STARTCHAR uni0442
ENCODING 1090
SWIDTH 424 0
DWIDTH 7 0
BBX 7 9 0 0
BITMAP
9FFFFF60
136F4310
004F1000
004F1000
004F1000
004F1000
004F1000
004F1000
004F1000
ENDCHAR
STARTCHAR uni0443
ENCODING 1091
SWIDTH 416 0
DWIDTH 7 0
BBX 7 12 0 -3
BITMAP
9E004F30
4F207E00
0E60BA00
0AA0E500
06E3F100
02FAC000
00CF8000
008F3000
005E0000
008A0000
16E40000
4E800000
ENDCHAR
STARTCHAR uni0444
ENCODING 1092
SWIDTH 628 0
DWIDTH 10 0
BBX 10 15 0 -3
BITMAP
0000BA0000
0000BA0000
0000BA0000
01BEEEEC20
09E4CB4DA0
0E60BA06F1
2F40BA03F3
3F30BA02F4
2F30BA02F3
1F60BA05F1
0AD4CB4DB0
02CEEEEC20
0000BA0000
0000BA0000
0000BA0000
ENDCHAR
STARTCHAR uni0445
ENCODING 1093
SWIDTH 438 0
DWIDTH 7 0
BBX 7 9 0 0
BITMAP
4F404F40
0BB0BB00
04F5F400
00BFB000
005F5000
00CEC000
05F4F400
0CA0AC00
5F303F50
ENDCHAR
STARTCHAR uni0446
ENCODING 1094
SWIDTH 524 0
DWIDTH 8 0
BBX 7 12 1 -3
BITMAP
D8006F00
D8006F00
D8006F00
D8006F00
D8006F00
D8006F00
D8006F00
D9338F20
DFFFFFD0
000008C0
000008C0
000008B0
ENDCHAR
STARTCHAR uni0447
ENCODING 1095
SWIDTH 479 0
DWIDTH 8 0
BBX 7 9 0 0
BITMAP
3F300D80
3F300D80
3F300D80
1F400D80
0DA12E80
04EFFF80
00021D80
00000D80
00000D80
ENDCHAR
STARTCHAR uni0448
ENCODING 1096
SWIDTH 703 0
DWIDTH 11 0
BBX 10 9 1 0
BITMAP
D801F504F1
D801F504F1
D801F504F1
D801F504F1
D801F504F1
D801F504F1
D801F504F1
D934F736F1
DFFFFFFFF1
ENDCHAR
STARTCHAR uni0449
ENCODING 1097
SWIDTH 722 0
DWIDTH 12 0
BBX 10 12 1 -3
BITMAP
E702F306F0
E702F306F0
E702F306F0
E702F306F0
E702F306F0
E702F306F0
E702F306F0
E935F538F3
EFFFFFFFFF
000000005F
000000005E
000000005E
ENDCHAR
STARTCHAR uni044A
ENCODING 1098
SWIDTH 538 0
DWIDTH 9 0
BBX 9 9 0 0
BITMAP
AFFC000000
23AC000000
009C000000
009FFFB200
009C33BC00
009C005F10
009C004F10
009C33BC00
009FFFB200
ENDCHAR
STARTCHAR uni044B
ENCODING 1099
SWIDTH 679 0
DWIDTH 11 0
BBX 9 9 1 0
BITMAP
D800000D80
D800000D80
D800000D80
DFFEA10D80
D934E90D80
D8008D0D80
D8008D0D80
D934D80D80
DFFEA10D80
ENDCHAR
STARTCHAR uni044C
ENCODING 1100
SWIDTH 478 0
DWIDTH 8 0
BBX 6 9 1 0
BITMAP
D80000
D80000
D80000
DFFEA1
D934E9
D8008D
D8008D
D934D8
DFFEA1
ENDCHAR
STARTCHAR uni044D
ENCODING 1101
SWIDTH 472 0
DWIDTH 8 0
BBX 7 9 0 0
BITMAP
01BEC300
0BC4AE10
2F301E60
01000C90
002FFFA0
02133C90
2F301E60
0CB49E10
02BEC300
ENDCHAR
STARTCHAR uni044E
ENCODING 1102
SWIDTH 706 0
DWIDTH 11 0
BBX 10 9 1 0
BITMAP
D8006DFB20
D805F84CC0
D80BC002F5
DFFF9000D8
D93D7000C9
D80A8000D7
D806C002F4
D801E84CC0
D8003CFB20
ENDCHAR
STARTCHAR uni044F
ENCODING 1103
SWIDTH 482 0
DWIDTH 8 0
BBX 7 9 0 0
BITMAP
03CFFF80
0EA33D80
3F300C80
1F700C80
06FFFF80
01F73D80
08E10C80
1E800C80
6F100C80
ENDCHAR
STARTCHAR uni0450
ENCODING 1104
SWIDTH 468 0
DWIDTH 8 0
BBX 7 12 0 0
BITMAP
02EA0000
002D5000
00000000
01AEE800
09D46F50
0F600BA0
2F3008D0
3FFFFFD0
3F533320
1F500000
0AD54A80
019EEB20
ENDCHAR
STARTCHAR uni0451
ENCODING 1105
SWIDTH 468 0
DWIDTH 8 0
BBX 7 12 0 0
BITMAP
04701820
07D02E40
00000000
01AEE800
09D46F50
0F600BA0
2F3008D0
3FFFFFD0
3F533320
1F500000
0AD54A80
019EEB20
ENDCHAR
STARTCHAR uni0452
ENCODING 1106
SWIDTH 482 0
DWIDTH 8 0
BBX 7 15 0 -3
BITMAP
0F600000
FFFF4000
3F831000
0F9CEA10
0FF66F70
0F800BA0
0F600AB0
0F600AB0
0F600AB0
0F600AB0
0F600AB0
0F600AB0
00000AA0
00004E80
0002EB10
ENDCHAR
STARTCHAR uni0453
ENCODING 1107
SWIDTH 371 0
DWIDTH 6 0
BBX 5 12 1 0
BITMAP
01BC10
06C100
000000
DFFFA0
D93320
D80000
D80000
D80000
D80000
D80000
D80000
D80000
ENDCHAR
STARTCHAR uni0454
ENCODING 1108
SWIDTH 472 0
DWIDTH 8 0
BBX 7 9 0 0
BITMAP
008EE800
07E55E60
0E7008C0
1F400120
2FFFA000
1F632000
0D7007B0
07E55E70
008EE800
ENDCHAR
STARTCHAR uni0455
ENCODING 1109
SWIDTH 455 0
DWIDTH 7 0
BBX 7 9 0 0
BITMAP
02BED500
0BC48F30
0E700940
0AE50000
019FD500
0001AF40
2B300E70
0DB46F40
02BED700
ENDCHAR
STARTCHAR uni0456
ENCODING 1110
SWIDTH 229 0
DWIDTH 4 0
BBX 2 12 1 0
BITMAP
74
B7
00
D8
D8
D8
D8
D8
D8
D8
D8
D8
ENDCHAR
STARTCHAR uni0457
ENCODING 1111
SWIDTH 234 0
DWIDTH 4 0
BBX 6 12 -1 0
BITMAP
470182
7D02E4
000000
00D800
00D800
00D800
00D800
00D800
00D800
00D800
00D800
00D800
ENDCHAR
STARTCHAR uni0458
ENCODING 1112
SWIDTH 223 0
DWIDTH 4 0
BBX 4 15 -1 -3
BITMAP
0083
00D5
0000
00E7
00E7
00E7
00E7
00E7
00E7
00E7
00E7
00E7
00E7
15F5
2EB0
ENDCHAR
STARTCHAR uni0459
ENCODING 1113
SWIDTH 729 0
DWIDTH 12 0
BBX 12 9 0 0
BITMAP
00FFFFB00000
00F73BB00000
01F40AB00000
01F40AFFFB20
02F30AC33CC0
03F20AB005F1
05F00AB005F1
3CB00AC33CB0
9C200AFFFB20
ENDCHAR
STARTCHAR uni045A
ENCODING 1114
SWIDTH 743 0
DWIDTH 12 0
BBX 11 9 1 0
BITMAP
D8006F000000
D8006F000000
D8006F000000
DFFFFFFEC400
D9338F339E10
D8006F001F40
D8006F001F40
D8006F339E10
D8006FFFD400
ENDCHAR
STARTCHAR uni045B
ENCODING 1115
SWIDTH 499 0
DWIDTH 8 0
BBX 7 12 0 0
BITMAP
0F600000
CFFF6000
2F831000
0F9CEA10
0FF66F60
0F800B90
0F600AB0
0F600AB0
0F600AB0
0F600AB0
0F600AB0
0F600AB0
ENDCHAR
STARTCHAR uni045C
ENCODING 1116
SWIDTH 479 0
DWIDTH 8 0
BBX 7 12 1 0
BITMAP
002EA000
00A90000
00000000
C800BD00
C805F400
C80D9000
C87E1000
CFF80000
CA9E2000
C81DB000
C804F600
C800AE20
ENDCHAR
STARTCHAR uni045D
ENCODING 1117
SWIDTH 509 0
DWIDTH 8 0
BBX 6 12 1 0
BITMAP
1CC100
01B700
000000
D8009F
D802FF
D808EF
D81E8F
D87A6F
D9E36F
DEB06F
DF406F
DC006F
ENDCHAR
STARTCHAR uni045E
ENCODING 1118
SWIDTH 416 0
DWIDTH 7 0
BBX 7 15 0 -3
BITMAP
0B808B00
03CFC300
00000000
9E004F30
4F207E00
0E60BA00
0AA0E500
06E3F100
02FAC000
00CF8000
008F3000
005E0000
008A0000
16E40000
4E800000
ENDCHAR
STARTCHAR uni045F
ENCODING 1119
SWIDTH 509 0
DWIDTH 8 0
BBX 6 12 1 -3
BITMAP
D8006F
D8006F
D8006F
D8006F
D8006F
D8006F
D8006F
D9338F
DFFFFF
009C00
009C00
009C00
ENDCHAR
STARTCHAR uni0460
ENCODING 1120
SWIDTH 754 0
DWIDTH 12 0
BBX 10 12 1 0
BITMAP
D900AC006F
D900AC006F
D900AC006F
D900AC006F
D900AC006F
D900AC006F
D900AC006F
D900AC006F
D900AD006F
BA00CE008E
7F57FE85E9
09EE64DEA1
ENDCHAR
STARTCHAR uni0461
ENCODING 1121
SWIDTH 650 0
DWIDTH 10 0
BBX 10 9 0 0
BITMAP
1F507E00C8
1F507E00C8
1F507E00C8
1F507E00C8
1F507E00C8
1F507E00C8
0F508F00D7
0CB4DF76F4
03CE94DE70
ENDCHAR
STARTCHAR uni0462
ENCODING 1122
SWIDTH 551 0
DWIDTH 9 0
BBX 10 12 -1 0
BITMAP
00C9000000
00C9000000
4FFFF00000
13DA300000
00C9000000
00CFFFE910
00CB446EA0
00C90006F1
00C90004F2
00C90007F1
00CB446E90
00CFFFD910
ENDCHAR
STARTCHAR uni0463
ENCODING 1123
SWIDTH 477 0
DWIDTH 8 0
BBX 8 12 -1 0
BITMAP
00D80000
00D80000
1FFFF900
03D93200
00D80000
00D80000
00DFFEA1
00D934E9
00D8008D
00D8008D
00D934D8
00DFFEA1
ENDCHAR
STARTCHAR uni0464
ENCODING 1124
SWIDTH 772 0
DWIDTH 12 0
BBX 11 12 1 0
BITMAP
BB003BEE8000
BB02EB56E800
BB09D0007F10
BB0E80003E30
BB1F60000000
BFFFFFFE0000
BC4F73330000
BB0F60000000
BB0D90002D30
BB08D0007F10
BB01EA46E800
BB003BFD7000
ENDCHAR
STARTCHAR uni0465
ENCODING 1125
SWIDTH 646 0
DWIDTH 10 0
BBX 9 9 1 0
BITMAP
D801AED600
D80AD47F30
D81F400B90
D84F100110
DFFFFFC000
D97F332000
D82F400A80
D80BC46F40
D801AED500
ENDCHAR
STARTCHAR uni0466
ENCODING 1126
SWIDTH 526 0
DWIDTH 8 0
BBX 9 12 0 0
BITMAP
0004F40000
0009F80000
000DEC0000
002F7F1000
006E1F5000
00BA0BA000
00E607E000
04FFFFF300
08D7F5E700
0D84F2AB00
2F44F26F10
6F14F22F50
ENDCHAR
STARTCHAR uni0467
ENCODING 1127
SWIDTH 470 0
DWIDTH 8 0
BBX 8 9 0 0
BITMAP
001F7000
006FB000
00ACF100
01F4D600
05E08B00
0AFFFF10
0E6F8E60
4F1F69B0
9C0F65F1
ENDCHAR
STARTCHAR uni0468
ENCODING 1128
SWIDTH 759 0
DWIDTH 12 0
BBX 11 12 1 0
BITMAP
9D0000CB0000
9D0002FE0000
9D0006EF4000
9D000AAC8000
9D000E68C000
9D004F24F200
9D008D00E600
9FFFFFFFFA00
9D46F7DA9E00
9D06F1C93F30
9D0AB0C90E80
9D0E70C90AC0
ENDCHAR
STARTCHAR uni0469
ENCODING 1129
SWIDTH 654 0
DWIDTH 10 0
BBX 9 9 1 0
BITMAP
AB002F6000
AB007FB000
AB00CCF100
AB02F3E500
AB07D09A00
AFFFFFFE10
AC5F6F7E50
AB6E1F5BA0
ABAA1F57E0
ENDCHAR
STARTCHAR uni046A
ENCODING 1130
SWIDTH 747 0
DWIDTH 12 0
BBX 10 12 1 0
BITMAP
0BFFFFFFC0
03F9447F50
00AD00CC00
003F64F400
000ADCB000
07DFFFFD70
6F74CC47F6
BA00BB00BB
D800BB009D
E800BB008D
E800BB008D
E800BB008D
ENDCHAR
STARTCHAR uni046B
ENCODING 1131
SWIDTH 645 0
DWIDTH 10 0
BBX 9 9 1 0
BITMAP
0BFFFFF300
04F63DB000
00CA4F4000
005FBC0000
09EFFFB200
7E59E4BC00
B908D04F10
D808D03F30
D808D03F30
ENDCHAR
STARTCHAR uni046C
ENCODING 1132
SWIDTH 980 0
DWIDTH 16 0
BBX 14 12 1 0
BITMAP
BB001EFFFFFF80
BB0007F544BE10
BB0001E901E800
BB00007F28E100
BB00001EAE7000
BFFFFFFFFFFC50
BC33CD64F94AF2
BB01F600F700E7
BB02F400F700D9
BB03F400F700C9
BB03F400F700C9
BB03F400F700C9
ENDCHAR
STARTCHAR uni046D
ENCODING 1133
SWIDTH 856 0
DWIDTH 14 0
BBX 12 9 1 0
BITMAP
D8006FFFFF80
D8000DB39F10
D80007E1D900
D80001EBF200
DFFFFFFFFD50
D935F85F68F2
D806F02F40E7
D808D02F40C9
D808D02F40C9
ENDCHAR
STARTCHAR uni046E
ENCODING 1134
SWIDTH 454 0
DWIDTH 7 0
BBX 7 18 0 -3
BITMAP
02D3C600
003E8000
00000000
0FFE9100
0335D900
00006E00
00005F00
0002CA00
02FFC100
0035D900
00005F10
00003F30
00005F10
0024DA00
1DFEA100
5F200000
3F300000
06A00000
ENDCHAR
STARTCHAR uni046F
ENCODING 1135
SWIDTH 423 0
DWIDTH 7 0
BBX 6 15 0 -3
BITMAP
08A4D1
009D20
000000
0FFE91
0335E8
00008C
0002C9
02FFD1
0034CB
00006E
0024CB
1DFEB2
5F2000
3F4000
06A000
ENDCHAR
STARTCHAR uni0470
ENCODING 1136
SWIDTH 600 0
DWIDTH 10 0
BBX 9 12 0 0
BITMAP
5F10F609C0
5F10F609C0
5F10F609C0
5F10F609C0
5F20F609C0
3F30F60BB0
1E70F61E70
08E4F7AE10
01AFFFD400
0003F80000
0000F60000
0000F60000
ENDCHAR
STARTCHAR uni0471
ENCODING 1137
SWIDTH 612 0
DWIDTH 10 0
BBX 10 13 0 -4
BITMAP
4F20D80E80
4F20D80AC0
4F20D806F0
4F20D805F1
3F20D804F1
2F40D806F0
0D90D80CB0
06F8EABF30
006DFFB400
0000D80000
0000D80000
0000D80000
0000D80000
ENDCHAR
STARTCHAR uni0472
ENCODING 1138
SWIDTH 593 0
DWIDTH 10 0
BBX 9 12 0 0
BITMAP
003BED6000
02EB68F700
09C0007E10
0E60001F50
2F40000E70
3FFFFFFF80
3F63333E80
2F50000E70
0E90002F50
09E1008E10
02EB58F700
003BED7000
ENDCHAR
STARTCHAR uni0473
ENCODING 1139
SWIDTH 497 0
DWIDTH 8 0
BBX 8 9 0 0
BITMAP
008EE800
07E55E70
0E8007E0
2F4003F2
3FFFFFF4
2F6335F2
0E7007E0
07E55E70
008EE800
ENDCHAR
STARTCHAR uni0474
ENCODING 1140
SWIDTH 553 0
DWIDTH 9 0
BBX 9 12 0 0
BITMAP
9E00002D50
5F3000AD20
1F7000E700
0BB003F300
07E007E000
03F30AA000
00D70E5000
009A2F1000
005E6C0000
001FC80000
000CF40000
0008F10000
ENDCHAR
STARTCHAR uni0475
ENCODING 1141
SWIDTH 443 0
DWIDTH 7 0
BBX 7 9 0 0
BITMAP
6F000AD0
2F304F60
0D708C00
08A0C800
04E0E400
01F5E000
00BCA000
007F6000
003F2000
ENDCHAR
STARTCHAR uni0476
ENCODING 1142
SWIDTH 553 0
DWIDTH 9 0
BBX 9 15 0 0
BITMAP
0BC8D10000
00A9B70000
0000000000
9E00002D50
5F3000AD20
1F7000E700
0BB003F300
07E007E000
03F30AA000
00D70E5000
009A2F1000
005E6C0000
001FC80000
000CF40000
0008F10000
ENDCHAR
STARTCHAR uni0477
ENCODING 1143
SWIDTH 443 0
DWIDTH 7 0
BBX 7 12 0 0
BITMAP
6E6F4000
06D7C000
00000000
6F000AD0
2F304F60
0D708C00
08A0C800
04E0E400
01F5E000
00BCA000
007F6000
003F2000
ENDCHAR
STARTCHAR uni0478
ENCODING 1144
SWIDTH 1017 0
DWIDTH 16 0
BBX 15 15 1 -3
BITMAP
03BFE91000000000
2EB67EB000000000
9D0004F300000000
D80000E70E8009C0
F70000D90AC00D80
F60000C906F12F40
F60000C901F46E00
F70000D900C89A00
D80000E7008CD600
9D0004F4003FF200
2EB56EB0000ED000
03BFE910000B8000
00000000000E4000
00000000039D0000
000000000AD40000
ENDCHAR
STARTCHAR uni0479
ENCODING 1145
SWIDTH 918 0
DWIDTH 15 0
BBX 15 12 0 -3
BITMAP
009EE9108E003F40
08E55E904F307E00
1F6006F10E70BA00
3F3002F30AA0E600
4F2001F406E3F200
3F3002F301FAC000
1F6005F100CF8000
09E54D90007F4000
019EE910004E0000
00000000008A0000
0000000015E50000
000000004E900000
ENDCHAR
STARTCHAR uni047A
ENCODING 1146
SWIDTH 593 0
DWIDTH 10 0
BBX 9 14 0 -1
BITMAP
0000D60000
003CFE7000
02EBEBF700
09D0117E00
0E70002F50
1F50000E70
3F30000D80
3F30000D80
1F40000E70
0E70001F50
09C0107E10
02EAEBE800
004CFE8000
0000E70000
ENDCHAR
STARTCHAR uni047B
ENCODING 1147
SWIDTH 498 0
DWIDTH 8 0
BBX 8 11 0 -1
BITMAP
00099000
009FF900
08ECCE80
0E7007E1
2F3003F3
3F2002F4
2F3003F3
0E7006E1
08ECCD80
009FF900
00099000
ENDCHAR
STARTCHAR uni047C
ENCODING 1148
SWIDTH 752 0
DWIDTH 12 0
BBX 10 15 1 0
BITMAP
0009EB4100
000E16CE00
00004D0000
08B0760A90
6F500004E7
BB0000009C
D90000007E
D90000007F
D9009A007F
D900AC007F
D900AC007F
D900AC007E
BB00CE009C
6F67FE85E7
08ED54DE90
ENDCHAR
STARTCHAR uni047D
ENCODING 1149
SWIDTH 654 0
DWIDTH 10 0
BBX 10 12 0 0
BITMAP
0004ED6100
000963AE60
00000D4000
02C51B1B70
0BC10005F3
0E600000D7
1F500000C9
1F506D00C9
1F507E00C9
0E608F00D7
0BC4DF86F3
02CEA4DE80
ENDCHAR
STARTCHAR uni047E
ENCODING 1150
SWIDTH 754 0
DWIDTH 12 0
BBX 10 15 1 0
BITMAP
009FFFFD00
00008A0000
0000000000
D900AC006F
D900AC006F
D900AC006F
D900AC006F
D900AC006F
D900AC006F
D900AC006F
D900AC006F
D900AD006F
BA00CE008E
7F57FE85E9
09ED64DEA1
ENDCHAR
STARTCHAR uni047F
ENCODING 1151
SWIDTH 650 0
DWIDTH 10 0
BBX 10 12 0 0
BITMAP
007FFFFF10
00006D0000
0000000000
1F507E00C8
1F507E00C8
1F507E00C8
1F507E00C8
1F507E00C8
1F507E00C8
0F508F00D7
0CB4DF76F4
03CE94DE70
ENDCHAR
STARTCHAR uni0480
ENCODING 1152
SWIDTH 570 0
DWIDTH 9 0
BBX 9 15 0 -3
BITMAP
003CFD7000
02EA47F700
0AD0008E00
0E80004C10
1F60000000
2F50000000
2F50000000
1F60000000
0E80000000
09D0000000
03F9310000
004DF60000
0000F60000
0000F60000
0000F60000
ENDCHAR
STARTCHAR uni0481
ENCODING 1153
SWIDTH 472 0
DWIDTH 8 0
BBX 7 12 0 -3
BITMAP
008ED600
07E56F40
0E700B90
2F400110
3F300000
2F400000
0E700000
08E41000
009FA000
000BA000
000BA000
000BA000
ENDCHAR
STARTCHAR uni0482
ENCODING 1154
SWIDTH 547 0
DWIDTH 9 0
BBX 7 10 1 0
BITMAP
00001E30
01817B00
01ADE300
0009F910
001E4AA0
D66B0010
3CF50000
07DE6000
1E339000
7B000000
ENDCHAR
STARTCHAR uni0483
ENCODING 1155
SWIDTH 0 0
DWIDTH 0 0
BBX 6 3 -7 9
BITMAP
00005A
1FFFFC
1F3000
ENDCHAR
STARTCHAR uni0484
ENCODING 1156
SWIDTH 0 0
DWIDTH 0 0
BBX 6 2 -6 10
BITMAP
03AEA0
DC61D2
ENDCHAR
STARTCHAR uni0485
ENCODING 1157
SWIDTH 0 0
DWIDTH 0 0
BBX 3 3 -5 10
BITMAP
4F00
1E20
0730
ENDCHAR
STARTCHAR uni0486
ENCODING 1158
SWIDTH 0 0
DWIDTH 0 0
BBX 2 3 -4 10
BITMAP
7D
89
81
ENDCHAR
STARTCHAR uni0488
ENCODING 1160
SWIDTH 0 0
DWIDTH 0 0
BBX 16 15 -12 -3
BITMAP
0000006EB0000000
000000A283000000
0000000000000000
01BE5000000AE600
0483A00000392B00
0000000000000000
0000000000000000
4EC1000000004EB1
8375000000009384
0000000000000000
0000000000000000
01CE4000000BE500
0573900000482A00
0000005EB0000000
000000A284000000
ENDCHAR
STARTCHAR uni0489
ENCODING 1161
SWIDTH 0 0
DWIDTH 0 0
BBX 15 15 -12 -3
BITMAP
0000000750000000
0000000D20000000
0046002B00000000
001D10000006C100
00095000007B2000
0000000000000000
0000000000000000
8B8000000000B820
0390000000004780
0000000000000000
0000000000000000
001AA000003B0000
00B71009400D3000
0000000E10037000
0000002A00000000
ENDCHAR
STARTCHAR uni048A
ENCODING 1162
SWIDTH 666 0
DWIDTH 11 0
BBX 10 18 1 -3
BITMAP
00D61A9000
004DEB1000
0000000000
BB0002F900
BB0008F900
BB001EF900
BB008CD900
BB01E5D900
BB07D0D900
BB1E50D900
BB6D00D900
BBD600D900
BFE000D900
BF7000D900
BE1000DDB1
00000006F1
00000009C0
0000000C30
ENDCHAR
STARTCHAR uni048B
ENCODING 1163
SWIDTH 550 0
DWIDTH 9 0
BBX 8 15 1 -3
BITMAP
0C809A00
03CEC200
00000000
D8009F00
D802FF00
D808EF00
D81E8F00
D87A6F00
D9E36F00
DEB06F00
DF406F00
DC006FA5
000000F6
000003F3
00000780
ENDCHAR
STARTCHAR uni048C
ENCODING 1164
SWIDTH 551 0
DWIDTH 9 0
BBX 10 12 -1 0
BITMAP
00C9000000
00C9000000
4FFFF00000
13DA300000
00C9000000
00CFFFE910
00CB446EA0
00C90006F1
00C90004F2
00C90007F1
00CB446E90
00CFFFD910
ENDCHAR
STARTCHAR uni048D
ENCODING 1165
SWIDTH 477 0
DWIDTH 8 0
BBX 8 14 -1 0
BITMAP
00740000
00D80000
1FFFF900
03D93200
00D80000
00D80000
00D80000
00D80000
00DFFEA1
00D934E9
00D8008D
00D8008D
00D934D8
00DFFEA1
ENDCHAR
STARTCHAR uni048E
ENCODING 1166
SWIDTH 557 0
DWIDTH 9 0
BBX 8 12 1 0
BITMAP
CFFFD910
CB446EA0
CA0006F1
CA0003F3
CA008BF2
CA006FD0
CFFFFED1
CB4320A3
CA000000
CA000000
CA000000
CA000000
ENDCHAR
STARTCHAR uni048F
ENCODING 1167
SWIDTH 496 0
DWIDTH 8 0
BBX 7 12 1 -3
BITMAP
E8CEA100
EE57F800
E7009E00
E6005F10
E6004F20
E6015F10
E709ED00
ED48F900
E9CEBE10
E6000400
E6000000
E6000000
ENDCHAR
STARTCHAR uni0490
ENCODING 1168
SWIDTH 479 0
DWIDTH 8 0
BBX 7 15 1 0
BITMAP
00002910
00004F20
00004F20
CFFFFF20
CB444400
C9000000
C9000000
C9000000
C9000000
C9000000
C9000000
C9000000
C9000000
C9000000
C9000000
ENDCHAR
STARTCHAR uni0491
ENCODING 1169
SWIDTH 395 0
DWIDTH 6 0
BBX 5 12 1 0
BITMAP
000540
000BA0
000BA0
EFFFA0
E93320
E70000
E70000
E70000
E70000
E70000
E70000
E70000
ENDCHAR
STARTCHAR uni0492
ENCODING 1170
SWIDTH 487 0
DWIDTH 8 0
BBX 8 12 0 0
BITMAP
0BFFFFF3
0BC44441
0BB00000
0BB00000
5CD62000
BEEC4000
0BB00000
0BB00000
0BB00000
0BB00000
0BB00000
0BB00000
ENDCHAR
STARTCHAR uni0493
ENCODING 1171
SWIDTH 371 0
DWIDTH 6 0
BBX 6 9 0 0
BITMAP
0DFFFA
0D9332
0D8000
0D8000
DFFF50
2D9310
0D8000
0D8000
0D8000
ENDCHAR
STARTCHAR uni0494
ENCODING 1172
SWIDTH 539 0
DWIDTH 9 0
BBX 7 14 1 -2
BITMAP
BFFFFF30
BC444410
BB000000
BB000000
BB000000
BFFEA200
BC46CD10
BB001E70
BB000AB0
BB0009C0
BB000AB0
BB000C80
00017F20
0005D500
ENDCHAR
STARTCHAR uni0495
ENCODING 1173
SWIDTH 443 0
DWIDTH 7 0
BBX 6 11 1 -2
BITMAP
EFFF90
E93320
E70000
E70000
EFEA20
E95CD0
E702F5
E700E7
E701F5
001AC0
003C20
ENDCHAR
STARTCHAR uni0496
ENCODING 1174
SWIDTH 833 0
DWIDTH 13 0
BBX 13 15 0 -3
BITMAP
3F7004F200AE00
0BD004F202F700
04F404F207E100
00CA04F20D9000
005F14F24F2000
000D74F2AA0000
000AFFFFF60000
002F97F5BD0000
00AE14F23F7000
04F704F20AE100
0CD004F202F900
6F6004F2009FF0
000000000006F0
000000000006F0
000000000006F0
ENDCHAR
STARTCHAR uni0497
ENCODING 1175
SWIDTH 696 0
DWIDTH 11 0
BBX 11 12 0 -3
BITMAP
4F606F00CC00
0CC06F03F500
04F36F09D000
00C96F1F5000
006FFFFE0000
00CB9F5F5000
05F36F0AD000
0DB06F03F700
6F406F00BFC0
000000000AB0
000000000AB0
000000000AB0
ENDCHAR
STARTCHAR uni0498
ENCODING 1176
SWIDTH 517 0
DWIDTH 8 0
BBX 8 16 0 -4
BITMAP
019EEB30
0AE65CE1
1F6002F5
141001F6
000018E1
000EFF40
00034BE1
000001F7
261000D8
3F4001F6
0CD55CE1
019EEA20
0008C000
0008C000
0008C000
0008C000
ENDCHAR
STARTCHAR uni0499
ENCODING 1177
SWIDTH 446 0
DWIDTH 7 0
BBX 7 13 0 -4
BITMAP
03BEC400
0DB3AE10
19203F30
00007E10
009FF600
00238F20
2B201F50
1EA38F20
03CED500
002F4000
002F4000
002F4000
002F4000
ENDCHAR
STARTCHAR uni049A
ENCODING 1178
SWIDTH 617 0
DWIDTH 10 0
BBX 9 15 1 -3
BITMAP
BB0007F400
BB001EB000
BB009F2000
BB03F80000
BB0BD10000
BD8F500000
BFDF400000
BB0CD10000
BB03F80000
BB008F3000
BB000DD000
BB0003FF20
0000004F20
0000004F20
0000004F20
ENDCHAR
STARTCHAR uni049B
ENCODING 1179
SWIDTH 524 0
DWIDTH 8 0
BBX 7 12 1 -3
BITMAP
C800BD00
C805F400
C80D9000
C87E1000
CFF80000
CA9E2000
C81DB000
C804F600
C800AFF0
000007E0
000007E0
000007E0
ENDCHAR
STARTCHAR uni049C
ENCODING 1180
SWIDTH 553 0
DWIDTH 9 0
BBX 8 12 1 0
BITMAP
C90006F3
C9000BC0
C9001F60
C9006E10
C9C4B800
C9C6F200
CFFFE000
CBD8F600
C9C4AD00
C9214F60
C9000CD0
C90005F6
ENDCHAR
STARTCHAR uni049D
ENCODING 1181
SWIDTH 498 0
DWIDTH 8 0
BBX 7 9 1 0
BITMAP
D8003F60
D8009D00
D893E600
D8D9D000
DFFF8000
DAEBE100
D8B3E800
D8008E20
D8002F90
ENDCHAR
STARTCHAR uni049E
ENCODING 1182
SWIDTH 570 0
DWIDTH 9 0
BBX 9 12 0 0
BITMAP
08D0005F60
08D001EB00
DFFF5AE200
29E35F7000
08D1DC0000
08FFF40000
08E4DB0000
08D05F5000
08D00BD100
08D003F800
08D0009F20
08D0001EB0
ENDCHAR
STARTCHAR uni049F
ENCODING 1183
SWIDTH 462 0
DWIDTH 7 0
BBX 9 12 -1 0
BITMAP
00C9000000
6FFFC00000
13CA200000
00C900EA00
00C906F200
00C90D9000
00C95F2000
00CFFA0000
00CB7F2000
00C90CB000
00C903F500
00C900AE10
ENDCHAR
STARTCHAR uni04A0
ENCODING 1184
SWIDTH 710 0
DWIDTH 11 0
BBX 12 12 0 0
BITMAP
6FFFF1003F90
1337F100CE10
0005F106F500
0005F12EA000
0005F1BE1000
0005FFF70000
0005F5BD1000
0005F12F8000
0005F108F200
0005F101EB00
0005F1006F50
0005F1000CD1
ENDCHAR
STARTCHAR uni04A1
ENCODING 1185
SWIDTH 607 0
DWIDTH 10 0
BBX 10 9 0 0
BITMAP
6FFFB009E2
133BB03F60
000AB0BB00
000AB5F200
000AFFA000
000AC7F400
000AB0BD10
000AB02F80
000AB007F4
ENDCHAR
STARTCHAR uni04A2
ENCODING 1186
SWIDTH 662 0
DWIDTH 11 0
BBX 9 15 1 -3
BITMAP
CA0000CA00
CA0000CA00
CA0000CA00
CA0000CA00
CA0000CA00
CFFFFFFA00
CB4444CA00
CA0000CA00
CA0000CA00
CA0000CA00
CA0000CA00
CA0000CFD0
00000008D0
00000008D0
00000008D0
ENDCHAR
STARTCHAR uni04A3
ENCODING 1187
SWIDTH 541 0
DWIDTH 9 0
BBX 8 12 1 -3
BITMAP
D8006F00
D8006F00
D8006F00
D8006F00
DFFFFF00
D9338F00
D8006F00
D8006F00
D8006FF3
000003F3
000003F3
000003F3
ENDCHAR
STARTCHAR uni04A4
ENCODING 1188
SWIDTH 829 0
DWIDTH 13 0
BBX 12 12 1 0
BITMAP
CA0000CFFFFA
CA0000CB3332
CA0000CA0000
CA0000CA0000
CA0000CA0000
CA0000CA0000
CFFFFFFA0000
CB4444CA0000
CA0000CA0000
CA0000CA0000
CA0000CA0000
CA0000CA0000
ENDCHAR
STARTCHAR uni04A5
ENCODING 1189
SWIDTH 614 0
DWIDTH 10 0
BBX 9 9 1 0
BITMAP
E7007FFF30
E7007E3310
E7007D0000
E7007D0000
EFFFFD0000
E9339D0000
E7007D0000
E7007D0000
E7007D0000
ENDCHAR
STARTCHAR uni04A6
ENCODING 1190
SWIDTH 880 0
DWIDTH 14 0
BBX 13 14 1 -2
BITMAP
AFFFFFF9000000
AC4444D9000000
AB0000C9000000
AB0000C9000000
AB0000C9000000
AB0000CFFC6000
AB0000CB59F600
AB0000C9009E00
AB0000C9004F20
AB0000C9002F40
AB0000C9003F30
AB0000C9005F10
0000000004D900
000000000DA100
ENDCHAR
STARTCHAR uni04A7
ENCODING 1191
SWIDTH 755 0
DWIDTH 12 0
BBX 11 11 1 -2
BITMAP
EFFFFD000000
E9339D000000
E7007D000000
E7007D000000
E7007FFEA200
E7007E45DD00
E7007D002F50
E7007D000E70
E7007D001F50
00000001BC00
00000003C200
ENDCHAR
STARTCHAR uni04A8
ENCODING 1192
SWIDTH 641 0
DWIDTH 10 0
BBX 10 12 0 0
BITMAP
006C06ED30
04F64F7AD0
0BB0AC02F4
0E70D900E7
1F50E800D8
2F50E800D8
2F50D900D8
0F70CB01F7
0DA08F36F3
07F22EDEC0
01CD5AFF93
001AED64C9
ENDCHAR
STARTCHAR uni04A9
ENCODING 1193
SWIDTH 528 0
DWIDTH 8 0
BBX 8 9 0 0
BITMAP
02C38E80
0AB4F6F4
0F57D0C8
2F49C0B9
2F49D0C9
1F57F3E8
0CA2FEF4
05F7AFE4
006DD57D
ENDCHAR
STARTCHAR uni04AA
ENCODING 1194
SWIDTH 566 0
DWIDTH 9 0
BBX 8 16 1 -4
BITMAP
03BED910
2EB56DA0
9D0005F2
E90002C3
F7000000
F6000000
F6000000
F7000000
D80002C3
9D0005F2
2EA45DA0
03CFD810
001F5000
001F5000
001F5000
001F5000
ENDCHAR
STARTCHAR uni04AB
ENCODING 1195
SWIDTH 461 0
DWIDTH 7 0
BBX 7 13 0 -4
BITMAP
01AEE800
0AD45E60
1F5009B0
3F300120
4F200000
3F300000
1F5008A0
0AD45E60
01AEE800
001F5000
001F5000
001F5000
001F5000
ENDCHAR
STARTCHAR uni04AC
ENCODING 1196
SWIDTH 520 0
DWIDTH 8 0
BBX 8 15 0 -3
BITMAP
8FFFFFFD
244AE443
0008D000
0008D000
0008D000
0008D000
0008D000
0008D000
0008D000
0008D000
0008D000
0008FF10
00005F10
00005F10
00005F10
ENDCHAR
STARTCHAR uni04AD
ENCODING 1197
SWIDTH 424 0
DWIDTH 7 0
BBX 7 12 0 -3
BITMAP
9FFFFF60
136F4310
004F1000
004F1000
004F1000
004F1000
004F1000
004F1000
004FF400
0002F400
0002F400
0002F400
ENDCHAR
STARTCHAR uni04AE
ENCODING 1198
SWIDTH 524 0
DWIDTH 8 0
BBX 8 12 0 0
BITMAP
8F1000AE
2F7001F7
0AC007F1
04F30DA0
00D93F30
006EAC00
001EF500
0009E000
0008E000
0008E000
0008E000
0008E000
ENDCHAR
STARTCHAR uni04AF
ENCODING 1199
SWIDTH 444 0
DWIDTH 7 0
BBX 7 12 0 -3
BITMAP
6F100C90
1F401F40
0C905E00
07D0AA00
03F2E600
00D9F100
008FC000
004F7000
001F4000
001F4000
001F4000
001F4000
ENDCHAR
STARTCHAR uni04B0
ENCODING 1200
SWIDTH 524 0
DWIDTH 8 0
BBX 8 12 0 0
BITMAP
8F1000AD
1F7001F7
09C007E1
02F30D80
00A93F10
003EA900
00DFFF50
0029E310
0008E000
0008E000
0008E000
0008E000
ENDCHAR
STARTCHAR uni04B1
ENCODING 1201
SWIDTH 444 0
DWIDTH 7 0
BBX 7 12 0 -3
BITMAP
6F100C90
1F401F40
0C805F10
08D09B00
03F2D600
00E8F200
00AFD000
017FA200
07FFFC00
001F4000
001F4000
001F4000
ENDCHAR
STARTCHAR uni04B2
ENCODING 1202
SWIDTH 559 0
DWIDTH 9 0
BBX 9 15 0 -3
BITMAP
2F8000AE10
0AE102F800
02F709E100
00AD2F8000
002FDE1000
000AF80000
000BF80000
003FCF1000
00BD1E8000
03F608F100
0BE002F800
3F70009FB0
0000000BA0
0000000BA0
0000000BA0
ENDCHAR
STARTCHAR uni04B3
ENCODING 1203
SWIDTH 465 0
DWIDTH 7 0
BBX 7 12 0 -3
BITMAP
4F404F40
0BB0BB00
04F5F400
00BFB000
005F5000
00CEC000
05F4F400
0CA0AC00
5F303FF0
000005F0
000005F0
000005F0
ENDCHAR
STARTCHAR uni04B4
ENCODING 1204
SWIDTH 781 0
DWIDTH 13 0
BBX 12 15 0 -3
BITMAP
7FFFFFC03F40
133F83203F40
001F60003F40
001F60003F40
001F60003F40
001F60003F40
001F60003F40
001F60003F40
001F60003F40
001F60003F40
001F84445F71
001FFFFFFFF4
0000000002F4
0000000002F3
0000000002F3
ENDCHAR
STARTCHAR uni04B5
ENCODING 1205
SWIDTH 587 0
DWIDTH 9 0
BBX 9 12 0 -3
BITMAP
9FFFF07E00
23E9307E00
00D7007E00
00D7007E00
00D7007E00
00D7007E00
00D7007E00
00D9339E20
00DFFFFFC0
00000008B0
00000008B0
00000008A0
ENDCHAR
STARTCHAR uni04B6
ENCODING 1206
SWIDTH 638 0
DWIDTH 10 0
BBX 9 15 1 -3
BITMAP
E80002F500
E80002F500
E80002F500
E80002F500
C90002F500
8E3026F500
1BFFFEF500
002322F500
000002F500
000002F500
000002F500
000002FF70
0000000E70
0000000E70
0000000E70
ENDCHAR
STARTCHAR uni04B7
ENCODING 1207
SWIDTH 512 0
DWIDTH 8 0
BBX 8 12 0 -3
BITMAP
3F300D80
3F300D80
3F300D80
1F400D80
0DA12E80
04EFFF80
00021D80
00000D80
00000DFB
000000AB
000000AB
000000AB
ENDCHAR
STARTCHAR uni04B8
ENCODING 1208
SWIDTH 595 0
DWIDTH 10 0
BBX 8 12 1 0
BITMAP
E80002F5
E80002F5
E80002F5
E80322F5
C90A72F5
9E2A75F5
1CFFFFF5
003B82F5
000A72F5
000112F5
000002F5
000002F5
ENDCHAR
STARTCHAR uni04B9
ENCODING 1209
SWIDTH 483 0
DWIDTH 8 0
BBX 6 9 1 0
BITMAP
F500BA
F500BA
F521BA
E6B6BA
BBB7CA
3EFFFA
00B7BA
0032BA
0000BA
ENDCHAR
STARTCHAR uni04BA
ENCODING 1210
SWIDTH 595 0
DWIDTH 10 0
BBX 8 12 1 0
BITMAP
F6000000
F6000000
F6000000
F6000000
F6000000
FCDFEA20
FB645DB0
F60005F1
F60004F3
F60004F3
F60004F3
F60004F3
ENDCHAR
STARTCHAR uni04BB
ENCODING 1211
SWIDTH 482 0
DWIDTH 8 0
BBX 6 12 1 0
BITMAP
F60000
F60000
F60000
F9CEA1
FF66F6
F800B9
F600AB
F600AB
F600AB
F600AB
F600AB
F600AB
ENDCHAR
STARTCHAR uni04BC
ENCODING 1212
SWIDTH 674 0
DWIDTH 11 0
BBX 10 12 0 0
BITMAP
00004CFC30
0004F85BE1
000CB000E8
4B1F60009B
2F7F40008D
06EFFFFFFE
004F411111
003F400000
001F600000
000BC00000
0003FA45A2
00003BEEB2
ENDCHAR
STARTCHAR uni04BD
ENCODING 1213
SWIDTH 518 0
DWIDTH 8 0
BBX 9 9 -1 0
BITMAP
0001AFC300
000AC4AE10
1A2F301F50
0EAE000D70
05EFFFFF80
007E333320
004F200200
000DC45E40
0002BFD700
ENDCHAR
STARTCHAR uni04BE
ENCODING 1214
SWIDTH 674 0
DWIDTH 11 0
BBX 10 16 0 -4
BITMAP
00004CFC30
0004F85BE1
000CB000E8
4B1F60009B
2F7F40008D
06EFFFFFFE
004F411111
003F400000
001F600000
000BC00000
0003FA45A2
00003BEEB2
000001F500
000001F500
000001F500
000001F500
ENDCHAR
STARTCHAR uni04BF
ENCODING 1215
SWIDTH 518 0
DWIDTH 8 0
BBX 9 12 -1 -3
BITMAP
0001AFC300
000AC4AE10
1A2F301F50
0EAE000D70
05EFFFFF80
007E333320
004F200200
000DC45E40
0002BFF700
00000D8000
00000D8000
00000D8000
ENDCHAR
STARTCHAR uni04C0
ENCODING 1216
SWIDTH 250 0
DWIDTH 4 0
BBX 2 12 1 0
BITMAP
BB
BB
BB
BB
BB
BB
BB
BB
BB
BB
BB
BB
ENDCHAR
STARTCHAR uni04C1
ENCODING 1217
SWIDTH 791 0
DWIDTH 13 0
BBX 13 15 0 0
BITMAP
0000D61A900000
00004DEB200000
00000000000000
3F7004F200AE00
0BD004F202F700
04F404F207E100
00CA04F20D9000
005F14F24F2000
000D74F2AA0000
000AFFFFF60000
002F97F5BD0000
00AE14F23F7000
04F704F20AE100
0CD004F202F900
6F6004F2009F20
ENDCHAR
STARTCHAR uni04C2
ENCODING 1218
SWIDTH 662 0
DWIDTH 11 0
BBX 11 12 0 0
BITMAP
000E51B80000
0005DEB10000
000000000000
4F606F00CC00
0CC06F03F500
04F36F09D000
00C96F1F5000
006FFFFE0000
00CB9F5F5000
05F36F0AD000
0DB06F03F700
6F406F00BE10
ENDCHAR
STARTCHAR uni04C3
ENCODING 1219
SWIDTH 553 0
DWIDTH 9 0
BBX 8 14 1 -2
BITMAP
C9000AE1
C9005F50
C901DA00
C909E100
C94F4000
CFFFB500
CB56AF50
C9000AD0
C90005F2
C90003F4
C90004F3
C90006F1
00004D90
0000DA10
ENDCHAR
STARTCHAR uni04C4
ENCODING 1220
SWIDTH 481 0
DWIDTH 8 0
BBX 6 11 1 -2
BITMAP
D801CB
D80BC1
D89D10
DFFD60
DA48F6
D8009D
D8005F
D8005F
D8008C
0005E5
000870
ENDCHAR
STARTCHAR uni04C5
ENCODING 1221
SWIDTH 662 0
DWIDTH 11 0
BBX 10 15 0 -3
BITMAP
007FFFFF80
008E444E80
008D000D80
008D000D80
009C000D80
009C000D80
00AB000D80
00BA000D80
00C8000D80
01F6000D80
2AE1000D80
8D50000DDB
000000006F
00000000AB
00000001C3
ENDCHAR
STARTCHAR uni04C6
ENCODING 1222
SWIDTH 551 0
DWIDTH 9 0
BBX 9 12 0 -3
BITMAP
00EFFFF000
00F738F000
00F506F000
01F406F000
01F306F000
02F206F000
05F006F000
3CB006F000
8D3006FA50
0000000E70
0000003F30
0000006900
ENDCHAR
STARTCHAR uni04C7
ENCODING 1223
SWIDTH 620 0
DWIDTH 10 0
BBX 8 15 1 -3
BITMAP
BB0000C9
BB0000C9
BB0000C9
BB0000C9
BB0000C9
BFFFFFF9
BC4444D9
BB0000C9
BB0000C9
BB0000C9
BB0000C9
BB0000C9
000000D9
000015F6
00004EA0
ENDCHAR
STARTCHAR uni04C8
ENCODING 1224
SWIDTH 498 0
DWIDTH 8 0
BBX 6 12 1 -3
BITMAP
E7007D
E7007D
E7007D
EFFFFD
E9339D
E7007D
E7007D
E7007D
E7007D
00008D
0003CA
000EC2
ENDCHAR
STARTCHAR uni04C9
ENCODING 1225
SWIDTH 671 0
DWIDTH 11 0
BBX 10 15 1 -3
BITMAP
CA0000CA00
CA0000CA00
CA0000CA00
CA0000CA00
CA0000CA00
CFFFFFFA00
CB4444CA00
CA0000CA00
CA0000CA00
CA0000CA00
CA0000CA00
CA0000CDB1
00000004F2
00000008D0
0000000B40
ENDCHAR
STARTCHAR uni04CA
ENCODING 1226
SWIDTH 550 0
DWIDTH 9 0
BBX 8 12 1 -3
BITMAP
D8006F00
D8006F00
D8006F00
D8006F00
DFFFFF00
D9338F00
D8006F00
D8006F00
D8006FA5
000000F6
000003F3
00000780
ENDCHAR
STARTCHAR uni04CB
ENCODING 1227
SWIDTH 600 0
DWIDTH 10 0
BBX 8 15 1 -3
BITMAP
E80002F5
E80002F5
E80002F5
E80002F5
C90002F5
8E3026F5
1BFFFEF5
002322F5
000002F5
000002F5
000002F5
00005FF5
00005F10
00005F10
00005F10
ENDCHAR
STARTCHAR uni04CC
ENCODING 1228
SWIDTH 479 0
DWIDTH 8 0
BBX 7 12 0 -3
BITMAP
3F300D80
3F300D80
3F300D80
1F400D80
0DA12E80
04EFFF80
00021D80
00000D80
0002FF80
0002F400
0002F400
0002F400
ENDCHAR
STARTCHAR uni04CD
ENCODING 1229
SWIDTH 801 0
DWIDTH 13 0
BBX 12 15 1 -3
BITMAP
CF300002FD00
CF800007FD00
CFD0000BFD00
CBF2001FBD00
C9D7005E8D00
C99B00AA8D00
C94F10E58D00
CA0E54F19D00
CA09A8A09D00
CA05ED609D00
CA01EF109D00
CA00AB009FB3
0000000003F3
0000000006E0
000000000A50
ENDCHAR
STARTCHAR uni04CE
ENCODING 1230
SWIDTH 687 0
DWIDTH 11 0
BBX 10 12 1 -3
BITMAP
DF2000BF30
DF6001FF30
DFB005FF30
DBF10ABF30
D8D61E6F30
D87B5D3F30
D82FB83F30
D80CF33F30
D807C03FB7
00000000C9
00000001E6
00000004B0
ENDCHAR
STARTCHAR uni04CF
ENCODING 1231
SWIDTH 250 0
DWIDTH 4 0
BBX 2 12 1 0
BITMAP
BB
BB
BB
BB
BB
BB
BB
BB
BB
BB
BB
BB
ENDCHAR
STARTCHAR uni04D0
ENCODING 1232
SWIDTH 576 0
DWIDTH 9 0
BBX 9 15 0 0
BITMAP
009A16D000
001BED4000
0000000000
0002F60000
0007FA0000
000BCE1000
001F4F5000
006E0B9000
00AB07E000
00E703F300
04F300E800
09FFFFFD00
0DA4447F20
3F40001F70
8E00000BB0
ENDCHAR
STARTCHAR uni04D1
ENCODING 1233
SWIDTH 479 0
DWIDTH 8 0
BBX 7 12 0 0
BITMAP
04E22E30
008EE800
00000000
019EE800
09D46F50
0C700D80
00000C80
02AEFF80
0CB31C80
1F500C80
0EA59F90
04DE9BB0
ENDCHAR
STARTCHAR uni04D2
ENCODING 1234
SWIDTH 576 0
DWIDTH 9 0
BBX 9 15 0 0
BITMAP
0065028000
00AA05E100
0000000000
0002F60000
0007FA0000
000BCE1000
001F4F5000
006E0B9000
00AB07E000
00E703F300
04F300E800
09FFFFFD00
0DA4447F20
3F40001F70
8E00000BB0
ENDCHAR
STARTCHAR uni04D3
ENCODING 1235
SWIDTH 479 0
DWIDTH 8 0
BBX 7 12 0 0
BITMAP
03800830
05D11D50
00000000
019EE800
09D46F50
0C700D80
00000C80
02AEFF80
0CB31C80
1F500C80
0EA59F90
04DE9BB0
ENDCHAR
STARTCHAR uni04D4
ENCODING 1236
SWIDTH 812 0
DWIDTH 13 0
BBX 13 12 0 0
BITMAP
000007FFFFFF30
00001EFB333310
00007EAB000000
0000D89C000000
0006F29C000000
000DB08FFFFA00
006F408D333200
00DD008E000000
05FFFFFE000000
0CD5559F000000
4F60006F333320
CD00005FFFFF90
ENDCHAR
STARTCHAR uni04D5
ENCODING 1237
SWIDTH 728 0
DWIDTH 12 0
BBX 12 9 0 0
BITMAP
02BED46DE900
0CC49EF75E70
1D402FB007D0
00000F7005F0
05CEEFFFFFF1
2F932F722220
5F100FA00000
2F74ADF736A0
07EEA25DFD60
ENDCHAR
STARTCHAR uni04D6
ENCODING 1238
SWIDTH 496 0
DWIDTH 8 0
BBX 7 15 1 0
BITMAP
0F41C700
05DEA100
00000000
CFFFFF40
CB444410
CA000000
CA000000
CA000000
CFFFFA00
CB444200
CA000000
CA000000
CA000000
CB444410
CFFFFF50
ENDCHAR
STARTCHAR uni04D7
ENCODING 1239
SWIDTH 468 0
DWIDTH 8 0
BBX 7 12 0 0
BITMAP
05D13F20
009EE600
00000000
01AEE800
09D46F50
0F600BA0
2F3008D0
3FFFFFD0
3F533320
1F500000
0AD54A80
019EEB20
ENDCHAR
STARTCHAR uni04D8
ENCODING 1240
SWIDTH 597 0
DWIDTH 10 0
BBX 9 12 0 0
BITMAP
02ADFC5000
02A549F600
0000009E10
0000002F50
0000000E80
0000000C90
5FFFFFFF90
4F43333E80
2F40001F50
0D90007E10
06F847F600
006CFD5000
ENDCHAR
STARTCHAR uni04D9
ENCODING 1241
SWIDTH 465 0
DWIDTH 7 0
BBX 7 9 0 0
BITMAP
05DFC400
0A649E10
00000D80
00000AA0
3FFFFFC0
2F633BB0
0F500E70
0AD49E10
01BFC300
ENDCHAR
STARTCHAR uni04DA
ENCODING 1242
SWIDTH 597 0
DWIDTH 10 0
BBX 9 15 0 0
BITMAP
0182065000
02E40B9000
0000000000
02ADFC5000
02A549F600
0000009E10
0000002F50
0000000E80
0000000C90
5FFFFFFF90
4F43333E80
2F40001F50
0D90007E10
06F847F600
006CFD5000
ENDCHAR
STARTCHAR uni04DB
ENCODING 1243
SWIDTH 465 0
DWIDTH 7 0
BBX 7 12 0 0
BITMAP
04701810
08C03E30
00000000
05DFC400
0A649E10
00000D80
00000AA0
3FFFFFC0
2F633BB0
0F500E70
0AD49E10
01BFC300
ENDCHAR
STARTCHAR uni04DC
ENCODING 1244
SWIDTH 791 0
DWIDTH 13 0
BBX 13 15 0 0
BITMAP
00008305600000
0001D609B00000
00000000000000
3F7004F200AE00
0BD004F202F700
04F404F207E100
00CA04F20D9000
005F14F24F2000
000D74F2AA0000
000AFFFFF60000
002F97F5BD0000
00AE14F23F7000
04F704F20AE100
0CD004F202F900
6F6004F2009F20
ENDCHAR
STARTCHAR uni04DD
ENCODING 1245
SWIDTH 662 0
DWIDTH 11 0
BBX 11 12 0 0
BITMAP
001820650000
002E50AA0000
000000000000
4F606F00CC00
0CC06F03F500
04F36F09D000
00C96F1F5000
006FFFFE0000
00CB9F5F5000
05F36F0AD000
0DB06F03F700
6F406F00BE10
ENDCHAR
STARTCHAR uni04DE
ENCODING 1246
SWIDTH 517 0
DWIDTH 8 0
BBX 8 15 0 0
BITMAP
02810740
04E30D70
00000000
019EEB30
0AE65CE1
1F6002F5
141001F6
000018E1
000EFF40
00034BE1
000001F7
261000D8
3F4001F6
0CD55CE1
019EEA20
ENDCHAR
STARTCHAR uni04DF
ENCODING 1247
SWIDTH 446 0
DWIDTH 7 0
BBX 7 12 0 0
BITMAP
06503800
0B906D10
00000000
03BEC400
0DB3AE10
19203F30
00007E10
009FF600
00238F20
2B201F50
1EA38F20
03CED500
ENDCHAR
STARTCHAR uni04E0
ENCODING 1248
SWIDTH 510 0
DWIDTH 8 0
BBX 8 12 0 0
BITMAP
0DFFFFD0
03445F80
00009D00
0004F300
001D8000
003FE910
00025DA0
000006F1
172003F3
1F7006F1
0AE55EB0
019EE910
ENDCHAR
STARTCHAR uni04E1
ENCODING 1249
SWIDTH 510 0
DWIDTH 8 0
BBX 8 12 0 -3
BITMAP
0DFFFFD0
03335F70
0000BC00
0005F300
001D9000
004FD810
00135DA0
000005F1
172003F3
1F6005F1
0AE55DA0
01AEE910
ENDCHAR
STARTCHAR uni04E2
ENCODING 1250
SWIDTH 619 0
DWIDTH 10 0
BBX 8 15 1 0
BITMAP
00222200
04FFFF40
00000000
BB0002F9
BB0008F9
BB001EF9
BB008CD9
BB01E5D9
BB07D0D9
BB1E50D9
BB6D00D9
BBD600D9
BFE000D9
BF7000D9
BE1000D9
ENDCHAR
STARTCHAR uni04E3
ENCODING 1251
SWIDTH 509 0
DWIDTH 8 0
BBX 6 12 1 0
BITMAP
022221
2FFFF6
000000
D8009F
D802FF
D808EF
D81E8F
D87A6F
D9E36F
DEB06F
DF406F
DC006F
ENDCHAR
STARTCHAR uni04E4
ENCODING 1252
SWIDTH 619 0
DWIDTH 10 0
BBX 8 15 1 0
BITMAP
03800820
06D11E50
00000000
BB0002F9
BB0008F9
BB001EF9
BB008CD9
BB01E5D9
BB07D0D9
BB1E50D9
BB6D00D9
BBD600D9
BFE000D9
BF7000D9
BE1000D9
ENDCHAR
STARTCHAR uni04E5
ENCODING 1253
SWIDTH 509 0
DWIDTH 8 0
BBX 6 12 1 0
BITMAP
281073
4E20D7
000000
D8009F
D802FF
D808EF
D81E8F
D87A6F
D9E36F
DEB06F
DF406F
DC006F
ENDCHAR
STARTCHAR uni04E6
ENCODING 1254
SWIDTH 600 0
DWIDTH 10 0
BBX 8 15 1 0
BITMAP
04701810
07C03E40
00000000
03BFE910
2EB67EB0
9D0004F3
D80000E7
F70000D9
F60000C9
F60000C9
F70000D9
D80000E7
9D0004F4
2EB56EB0
03BFE910
ENDCHAR
STARTCHAR uni04E7
ENCODING 1255
SWIDTH 501 0
DWIDTH 8 0
BBX 8 12 0 0
BITMAP
03800820
06D11E50
00000000
009EE910
08E55E90
1F6006F1
3F3002F3
4F2001F4
3F3002F3
1F6005F1
09E54D90
019EE910
ENDCHAR
STARTCHAR uni04E8
ENCODING 1256
SWIDTH 593 0
DWIDTH 10 0
BBX 9 12 0 0
BITMAP
003BED6000
02EB68F700
09C0007E10
0E60001F50
2F40000E70
3FFFFFFF80
3F63333E80
2F50000E70
0E90002F50
09E1008E10
02EB58F700
003BED7000
ENDCHAR
STARTCHAR uni04E9
ENCODING 1257
SWIDTH 497 0
DWIDTH 8 0
BBX 8 9 0 0
BITMAP
008EE800
07E55E70
0E8007E0
2F4003F2
3FFFFFF4
2F6335F2
0E7007E0
07E55E70
008EE800
ENDCHAR
STARTCHAR uni04EA
ENCODING 1258
SWIDTH 593 0
DWIDTH 10 0
BBX 9 15 0 0
BITMAP
0048018200
007D02E400
0000000000
003BED6000
02EB68F700
09C0007E10
0E60001F50
2F40000E70
3FFFFFFF80
3F63333E80
2F50000E70
0E90002F50
09E1008E10
02EB58F700
003BED7000
ENDCHAR
STARTCHAR uni04EB
ENCODING 1259
SWIDTH 497 0
DWIDTH 8 0
BBX 8 12 0 0
BITMAP
04701810
07C03E40
00000000
008EE800
07E55E70
0E8007E0
2F4003F2
3FFFFFF4
2F6335F2
0E7007E0
07E55E70
008EE800
ENDCHAR
STARTCHAR uni04EC
ENCODING 1260
SWIDTH 589 0
DWIDTH 9 0
BBX 8 15 1 0
BITMAP
05602810
09A04E20
00000000
04CFD700
2EA47F70
8E0006F1
B90001F6
000000D8
008FFFF9
002444D9
000000E8
A90001F6
8D0007F1
2EA46E80
03BED700
ENDCHAR
STARTCHAR uni04ED
ENCODING 1261
SWIDTH 472 0
DWIDTH 8 0
BBX 7 12 0 0
BITMAP
05602810
09B04E20
00000000
01BEC300
0BC4AE10
2F301E60
01000C90
002FFFA0
02133C90
2F301E60
0CB49E10
02BEC300
ENDCHAR
STARTCHAR uni04EE
ENCODING 1262
SWIDTH 547 0
DWIDTH 9 0
BBX 9 15 0 0
BITMAP
0022221000
00CFFFB000
0000000000
2F70009F10
0BC000EB00
06F203F600
01F708F100
00AC0DB000
005F4F6000
000EDF1000
0009FB0000
0004F60000
0006F10000
004DA00000
01FB200000
ENDCHAR
STARTCHAR uni04EF
ENCODING 1263
SWIDTH 416 0
DWIDTH 7 0
BBX 7 15 0 -3
BITMAP
01222100
0BFFFC00
00000000
9E004F30
4F207E00
0E60BA00
0AA0E500
06E3F100
02FAC000
00CF8000
008F3000
005E0000
008A0000
16E40000
4E800000
ENDCHAR
STARTCHAR uni04F0
ENCODING 1264
SWIDTH 547 0
DWIDTH 9 0
BBX 9 15 0 0
BITMAP
0083046000
00D608B000
0000000000
2F70009F10
0BC000EB00
06F203F600
01F708F100
00AC0DB000
005F4F6000
000EDF1000
0009FB0000
0004F60000
0006F10000
004DA00000
01FB200000
ENDCHAR
STARTCHAR uni04F1
ENCODING 1265
SWIDTH 416 0
DWIDTH 7 0
BBX 7 15 0 -3
BITMAP
07404700
0D707C00
00000000
9E004F30
4F207E00
0E60BA00
0AA0E500
06E3F100
02FAC000
00CF8000
008F3000
005E0000
008A0000
16E40000
4E800000
ENDCHAR
STARTCHAR uni04F2
ENCODING 1266
SWIDTH 547 0
DWIDTH 9 0
BBX 9 15 0 0
BITMAP
0009C7E300
001C4D4000
0000000000
2F70009F10
0BC000EB00
06F203F600
01F708F100
00AC0DB000
005F4F6000
000EDF1000
0009FB0000
0004F60000
0006F10000
004DA00000
01FB200000
ENDCHAR
STARTCHAR uni04F3
ENCODING 1267
SWIDTH 416 0
DWIDTH 7 0
BBX 7 15 0 -3
BITMAP
008D6E40
01C5C500
00000000
9E004F30
4F207E00
0E60BA00
0AA0E500
06E3F100
02FAC000
00CF8000
008F3000
005E0000
008A0000
16E40000
4E800000
ENDCHAR
STARTCHAR uni04F4
ENCODING 1268
SWIDTH 600 0
DWIDTH 10 0
BBX 8 15 1 0
BITMAP
05602800
0AA05E20
00000000
E80002F5
E80002F5
E80002F5
E80002F5
C90002F5
8E3026F5
1BFFFEF5
002322F5
000002F5
000002F5
000002F5
000002F5
ENDCHAR
STARTCHAR uni04F5
ENCODING 1269
SWIDTH 479 0
DWIDTH 8 0
BBX 7 12 0 0
BITMAP
06503800
0B905D10
00000000
3F300D80
3F300D80
3F300D80
1F400D80
0DA12E80
04EFFF80
00021D80
00000D80
00000D80
ENDCHAR
STARTCHAR uni04F6
ENCODING 1270
SWIDTH 487 0
DWIDTH 8 0
BBX 7 15 1 -3
BITMAP
BFFFFF30
BC444410
BB000000
BB000000
BB000000
BB000000
BB000000
BB000000
BB000000
BB000000
BB000000
BFE00000
07E00000
07E00000
07E00000
ENDCHAR
STARTCHAR uni04F7
ENCODING 1271
SWIDTH 371 0
DWIDTH 6 0
BBX 5 12 1 -3
BITMAP
DFFFA0
D93320
D80000
D80000
D80000
D80000
D80000
D80000
DFB000
0AB000
0AB000
0AB000
ENDCHAR
STARTCHAR uni04F8
ENCODING 1272
SWIDTH 755 0
DWIDTH 12 0
BBX 10 15 1 0
BITMAP
0028008300
005E11D600
0000000000
AB000000AB
AB000000AB
AB000000AB
AB000000AB
AB000000AB
AFFFEA10AB
AC445DC0AB
AB0005F2AB
AB0002F4AB
AB0005F2AB
AC445DB0AB
AFFFEA10AB
ENDCHAR
STARTCHAR uni04F9
ENCODING 1273
SWIDTH 679 0
DWIDTH 11 0
BBX 9 12 1 0
BITMAP
0082055000
01E50AA000
0000000000
D800000D80
D800000D80
D800000D80
DFFEA10D80
D934E90D80
D8008D0D80
D8008D0D80
D934D80D80
DFFEA10D80
ENDCHAR
STARTCHAR uni04FA
ENCODING 1274
SWIDTH 520 0
DWIDTH 8 0
BBX 8 15 0 -3
BITMAP
03FFFFFB
03F74443
03F40000
03F40000
03F40000
6FFFD000
15F72000
03F40000
03F40000
03F40000
03F71000
03FF7000
000E7000
026F5000
05EA0000
ENDCHAR
STARTCHAR uni04FB
ENCODING 1275
SWIDTH 410 0
DWIDTH 7 0
BBX 7 12 0 -3
BITMAP
04FFFF50
04F53310
04F20000
04F20000
6FFFD000
16F52000
04F20000
04F51000
04FF6000
000F6000
027F3000
07E80000
ENDCHAR
STARTCHAR uni04FC
ENCODING 1276
SWIDTH 570 0
DWIDTH 9 0
BBX 9 15 0 -3
BITMAP
2F8000AE10
0AE102F800
02F709E100
00AD2F8000
002FDE1000
000AF80000
000BF80000
003FCF1000
00BD1E8000
03F608F100
0BE002FA20
3F70009FE0
00000009C0
0000005DA0
000001EC20
ENDCHAR
STARTCHAR uni04FD
ENCODING 1277
SWIDTH 476 0
DWIDTH 8 0
BBX 8 12 0 -3
BITMAP
4F404F40
0BB0BB00
04F5F400
00BFB000
005F5000
00CEC000
05F4F400
0CA0AD31
5F303FF3
000003F3
000039F1
00009E60
ENDCHAR
STARTCHAR uni04FE
ENCODING 1278
SWIDTH 550 0
DWIDTH 9 0
BBX 9 12 0 0
BITMAP
2F8000AE10
09E102F700
02F709E100
009D2F6000
001EDD0000
00AFFF8000
002DFC2000
005FCF3000
00CD1EA000
04F608F200
0BE002F900
3F70009F20
ENDCHAR
STARTCHAR uni04FF
ENCODING 1279
SWIDTH 438 0
DWIDTH 7 0
BBX 7 9 0 0
BITMAP
4F404F40
0CB0BC00
05F5F500
00DFC000
09FFFA00
02CEC200
04F4F300
0CA0AB00
5F303F50
ENDCHAR
STARTCHAR uni0500
ENCODING 1280
SWIDTH 555 0
DWIDTH 9 0
BBX 8 12 0 0
BITMAP
000000BB
000000BB
000000BB
000000BB
000000BB
019EFFFB
0BD544CB
1F5000BB
3F3000BB
1F6000BB
0AE544CB
019EFFFB
ENDCHAR
STARTCHAR uni0501
ENCODING 1281
SWIDTH 496 0
DWIDTH 8 0
BBX 7 12 0 0
BITMAP
000008D0
000008D0
000008D0
02BFCAD0
0BD56ED0
1F5008D0
3F3008D0
4F2008D0
3F3008D0
1F5008D0
0BD55ED0
02BFC9D0
ENDCHAR
STARTCHAR uni0502
ENCODING 1282
SWIDTH 723 0
DWIDTH 12 0
BBX 12 12 0 0
BITMAP
000000AC0000
000000AC0000
000000AC0000
000000AC0000
000000AC0000
019EFFFC0000
0AE544BC08B0
1F6000AC06F0
3F4000AC05F1
1F6000AC07F0
0AE644BC4DA0
019EFFFFEA10
ENDCHAR
STARTCHAR uni0503
ENCODING 1283
SWIDTH 743 0
DWIDTH 12 0
BBX 11 12 0 0
BITMAP
000009B00000
000009B00000
000009B00000
01AEBBB00000
08E66FB00540
0E800AB008C0
2F4009B006E0
3F3009B005F0
2F3009B006E0
0F7009C00AB0
09E56DF57F40
01BFC2AFD600
ENDCHAR
STARTCHAR uni0504
ENCODING 1284
SWIDTH 685 0
DWIDTH 11 0
BBX 10 12 0 0
BITMAP
7FFEA10000
2445DB0000
00006F1000
00006F1000
0002CB0064
03FFD100AB
0145E9008D
00007F007E
00005F208D
00004F20BA
00001F97F4
000006EE70
ENDCHAR
STARTCHAR uni0505
ENCODING 1285
SWIDTH 562 0
DWIDTH 9 0
BBX 9 9 0 0
BITMAP
7FEB300000
133BD00000
0005F10000
0019D03F20
0EFF401F50
023AD00F60
0004F12F40
0003F6AD00
0000AEC300
ENDCHAR
STARTCHAR uni0506
ENCODING 1286
SWIDTH 470 0
DWIDTH 8 0
BBX 7 14 0 -2
BITMAP
5FFC5000
1338F200
0000D800
0000BA00
0000C800
0016F300
0BFF8000
0238F400
0000D900
0000BA00
0000BD90
00008FD0
00000AA0
00000B20
ENDCHAR
STARTCHAR uni0507
ENCODING 1287
SWIDTH 443 0
DWIDTH 7 0
BBX 6 11 1 -2
BITMAP
FFD800
336F60
000C90
003E60
9FFB00
235F50
000C90
000BC6
0009FB
0000B8
0001C1
ENDCHAR
STARTCHAR uni0508
ENCODING 1288
SWIDTH 834 0
DWIDTH 13 0
BBX 13 12 0 0
BITMAP
005FFFFF700000
006F444F700000
006F000F700000
007F000F700000
007E000F700720
007E000F700E70
008D000F700C90
009C000F700BA0
00AA000F700CA0
00D8000E801F70
18F3000BD5BE10
6E700002CEC300
ENDCHAR
STARTCHAR uni0509
ENCODING 1289
SWIDTH 698 0
DWIDTH 11 0
BBX 11 9 0 0
BITMAP
00CFFFD00000
00D939D00000
00D708D00E50
00E708D00C80
00E608D00BA0
00F508D00BA0
02F307D00D70
2AE004F67F20
6D40008EE500
ENDCHAR
STARTCHAR uni050A
ENCODING 1290
SWIDTH 864 0
DWIDTH 14 0
BBX 12 12 1 0
BITMAP
CA0000D90000
CA0000D90000
CA0000D90000
CA0000D90000
CA0000D90073
CFFFFFF900C9
CB4444D900AB
CA0000D9009C
CA0000D900AB
CA0000C900E8
CA00008E5AF2
CA00001BEC40
ENDCHAR
STARTCHAR uni050B
ENCODING 1291
SWIDTH 716 0
DWIDTH 11 0
BBX 10 9 1 0
BITMAP
E7006F0000
E7006F0000
E7006F00C7
EFFFFF00AB
E9338F008C
E7005F009C
E7004F10BA
E7001E86F4
E70005DE70
ENDCHAR
STARTCHAR uni050C
ENCODING 1292
SWIDTH 541 0
DWIDTH 9 0
BBX 8 12 0 0
BITMAP
003BEE90
02EB4580
09D00000
0E800000
1F600000
2F500043
2F5000AB
1F60008D
0E80007E
0AD000AC
02EB47F6
003BED60
ENDCHAR
STARTCHAR uni050D
ENCODING 1293
SWIDTH 452 0
DWIDTH 7 0
BBX 7 9 0 0
BITMAP
008EE800
07E54500
0E700000
2F400000
3F300620
2F400E70
0E700E70
07E65F40
008EE800
ENDCHAR
STARTCHAR uni050E
ENCODING 1294
SWIDTH 616 0
DWIDTH 10 0
BBX 10 12 0 0
BITMAP
9FFFFFFE00
244AD44300
0009D00000
0009D00000
0009D00550
0009D008D0
0009D006F0
0009D005F1
0009D006F0
0008E00AC0
0004F77F60
00009EE700
ENDCHAR
STARTCHAR uni050F
ENCODING 1295
SWIDTH 558 0
DWIDTH 9 0
BBX 9 9 0 0
BITMAP
6FFFFF9000
134F631000
001F400000
001F407D00
001F405F10
001F404F20
000F506F00
000CB4DA00
0003DEA100
ENDCHAR
STARTCHAR uni0510
ENCODING 1296
SWIDTH 589 0
DWIDTH 9 0
BBX 8 12 1 0
BITMAP
04BEEA20
3FA45DD1
9D0002F6
AC000032
4F610000
07FFF100
4F944000
BC000000
CA000054
AD0001F7
4FA45CE2
03BEEB30
ENDCHAR
STARTCHAR uni0511
ENCODING 1297
SWIDTH 470 0
DWIDTH 8 0
BBX 7 9 0 0
BITMAP
02BED600
0CC36F50
1F500860
0D910000
03FFF100
1EA32000
3F300770
0EB36F70
03BED800
ENDCHAR
STARTCHAR uni0512
ENCODING 1298
SWIDTH 664 0
DWIDTH 11 0
BBX 10 15 0 -3
BITMAP
007FFFFF80
008E444E80
008D000D80
008D000D80
009C000D80
009C000D80
00AB000D80
00BA000D80
00C8000D80
01F6000D80
2AE1000DA3
8D50000DFE
000000007D
00000004CB
0000000ED3
ENDCHAR
STARTCHAR uni0513
ENCODING 1299
SWIDTH 553 0
DWIDTH 9 0
BBX 9 12 0 -3
BITMAP
00EFFFF000
00F738F000
00F506F000
01F406F000
01F306F000
02F206F000
05F006F000
3CB006F310
8D3006FF60
0000000F50
0000027F30
000007E800
ENDCHAR
STARTCHAR uni1E00
ENCODING 7680
SWIDTH 576 0
DWIDTH 9 0
BBX 9 16 0 -4
BITMAP
0002F60000
0007FA0000
000BCE1000
001F4F5000
006E0B9000
00AB07E000
00E703F300
04F300E800
09FFFFFD00
0DA4447F20
3F40001F70
8E00000BB0
0000000000
0003E70000
00075A0000
0003E80000
ENDCHAR
STARTCHAR uni1E01
ENCODING 7681
SWIDTH 479 0
DWIDTH 8 0
BBX 7 13 0 -4
BITMAP
019EE800
09D46F50
0C700D80
00000C80
02AEFF80
0CB31C80
1F500C80
0EA59F90
04DE9BB0
00000000
006E4000
00A48000
006E4000
ENDCHAR
STARTCHAR uni1E3E
ENCODING 7742
SWIDTH 755 0
DWIDTH 12 0
BBX 10 15 1 0
BITMAP
00001BD200
00006C1000
0000000000
CF300002FD
CF800007FD
CFD0000BFD
CBF2001FBD
C9D7005E8D
C99B00AA8D
C94F10E58D
CA0E54F19D
CA09A8A09D
CA05ED609D
CA01EF109D
CA00AB009D
ENDCHAR
STARTCHAR uni1E3F
ENCODING 7743
SWIDTH 752 0
DWIDTH 12 0
BBX 10 12 1 0
BITMAP
00000AD200
00005C2000
0000000000
E8CEA2BEC2
ED56FE85DB
E700BD007E
E600AB006F
E600AB006F
E600AB006F
E600AB006F
E600AB006F
E600AB006F
ENDCHAR
STARTCHAR Wgrave
ENCODING 7808
SWIDTH 761 0
DWIDTH 12 0
BBX 12 15 0 0
BITMAP
0000AD200000
00000A900000
000000000000
5F1008E000BA
2F400BF200E7
0E600EF501F4
0C902FA804F2
09B06C6B06E0
06E0993E09B0
03F2C50E2B80
01F5F20B6E50
00DAD008AF20
00AEA005EE00
007F7002FC00
004F3000D900
ENDCHAR
STARTCHAR wgrave
ENCODING 7809
SWIDTH 649 0
DWIDTH 10 0
BBX 10 12 0 0
BITMAP
001BD20000
0000B80000
0000000000
7D007D007D
4F10BF20AA
1F40EE50D6
0C74E991F3
09A7A5D4E0
05EB71F9B0
02FF30CE70
00DE009F40
00AA005F10
ENDCHAR
STARTCHAR Wacute
ENCODING 7810
SWIDTH 761 0
DWIDTH 12 0
BBX 12 15 0 0
BITMAP
0000008E3000
000003D30000
000000000000
5F1008E000BA
2F400BF200E7
0E600EF501F4
0C902FA804F2
09B06C6B06E0
06E0993E09B0
03F2C50E2B80
01F5F20B6E50
00DAD008AF20
00AEA005EE00
007F7002FC00
004F3000D900
ENDCHAR
STARTCHAR wacute
ENCODING 7811
SWIDTH 649 0
DWIDTH 10 0
BBX 10 12 0 0
BITMAP
000009E300
00004D2000
0000000000
7D007D007D
4F10BF20AA
1F40EE50D6
0C74E991F3
09A7A5D4E0
05EB71F9B0
02FF30CE70
00DE009F40
00AA005F10
ENDCHAR
STARTCHAR Wdieresis
ENCODING 7812
SWIDTH 761 0
DWIDTH 12 0
BBX 12 15 0 0
BITMAP
000182065000
0002E40B9000
000000000000
5F1008E000BA
2F400BF200E7
0E600EF501F4
0C902FA804F2
09B06C6B06E0
06E0993E09B0
03F2C50E2B80
01F5F20B6E50
00DAD008AF20
00AEA005EE00
007F7002FC00
004F3000D900
ENDCHAR
STARTCHAR wdieresis
ENCODING 7813
SWIDTH 649 0
DWIDTH 10 0
BBX 10 12 0 0
BITMAP
0018107400
003E30C800
0000000000
7D007D007D
4F10BF20AA
1F40EE50D6
0C74E991F3
09A7A5D4E0
05EB71F9B0
02FF30CE70
00DE009F40
00AA005F10
ENDCHAR
STARTCHAR uni1EA0
ENCODING 7840
SWIDTH 576 0
DWIDTH 9 0
BBX 9 15 0 -3
BITMAP
0002F60000
0007FA0000
000BCE1000
001F4F5000
006E0B9000
00AB07E000
00E703F300
04F300E800
09FFFFFD00
0DA4447F20
3F40001F70
8E00000BB0
0000000000
0001D50000
0000830000
ENDCHAR
STARTCHAR uni1EA1
ENCODING 7841
SWIDTH 479 0
DWIDTH 8 0
BBX 7 12 0 -3
BITMAP
019EE800
09D46F50
0C700D80
00000C80
02AEFF80
0CB31C80
1F500C80
0EA59F90
04DE9BB0
00000000
004D2000
00281000
ENDCHAR
STARTCHAR uni1EA2
ENCODING 7842
SWIDTH 576 0
DWIDTH 9 0
BBX 9 16 0 0
BITMAP
0000D90000
00003F1000
0000C60000
0000000000
0002F60000
0007FA0000
000BCE1000
001F4F5000
006E0B9000
00AB07E000
00E703F300
04F300E800
09FFFFFD00
0DA4447F20
3F40001F70
8E00000BB0
ENDCHAR
STARTCHAR uni1EA3
ENCODING 7843
SWIDTH 479 0
DWIDTH 8 0
BBX 7 13 0 0
BITMAP
0008C200
0001C600
0007B100
00000000
019EE800
09D46F50
0C700D80
00000C80
02AEFF80
0CB31C80
1F500C80
0EA59F90
04DE9BB0
ENDCHAR
STARTCHAR uni1EA4
ENCODING 7844
SWIDTH 576 0
DWIDTH 9 0
BBX 9 16 0 0
BITMAP
0000000BA0
0008EB3C10
006D2AA000
0000000000
0002F60000
0007FA0000
000BCE1000
001F4F5000
006E0B9000
00AB07E000
00E703F300
04F300E800
09FFFFFD00
0DA4447F20
3F40001F70
8E00000BB0
ENDCHAR
STARTCHAR uni1EA5
ENCODING 7845
SWIDTH 479 0
DWIDTH 8 0
BBX 9 13 0 0
BITMAP
0000006E20
004EE4A500
02D66D2000
0000000000
019EE80000
09D46F5000
0C700D8000
00000C8000
02AEFF8000
0CB31C8000
1F500C8000
0EA59F9000
04DE9BB000
ENDCHAR
STARTCHAR uni1EA6
ENCODING 7846
SWIDTH 576 0
DWIDTH 9 0
BBX 9 16 0 0
BITMAP
6E10000000
0A58EB1000
006D2B9000
0000000000
0002F60000
0007FA0000
000BCE1000
001F4F5000
006E0B9000
00AB07E000
00E703F300
04F300E800
09FFFFFD00
0DA4447F20
3F40001F70
8E00000BB0
ENDCHAR
STARTCHAR uni1EA7
ENCODING 7847
SWIDTH 479 0
DWIDTH 8 0
BBX 8 13 -1 0
BITMAP
2E600000
06A4ED40
002D56C2
00000000
0019EE80
009D46F5
00C700D8
000000C8
002AEFF8
00CB31C8
01F500C8
00EA59F9
004DE9BB
ENDCHAR
STARTCHAR uni1EA8
ENCODING 7848
SWIDTH 576 0
DWIDTH 9 0
BBX 9 17 0 0
BITMAP
0000007B00
0000002D20
0009DC9800
007B18A000
0000000000
0002F60000
0007FA0000
000BCE1000
001F4F5000
006E0B9000
00AB07E000
00E703F300
04F300E800
09FFFFFD00
0DA4447F20
3F40001F70
8E00000BB0
ENDCHAR
STARTCHAR uni1EA9
ENCODING 7849
SWIDTH 479 0
DWIDTH 8 0
BBX 8 14 0 0
BITMAP
000003C3
00000097
005DD7C1
02D33D20
00000000
019EE800
09D46F50
0C700D80
00000C80
02AEFF80
0CB31C80
1F500C80
0EA59F90
04DE9BB0
ENDCHAR
STARTCHAR uni1EAA
ENCODING 7850
SWIDTH 576 0
DWIDTH 9 0
BBX 9 18 0 0
BITMAP
000B964000
00187D1000
0000000000
0008EB1000
006B19A000
0000000000
0002F60000
0007FA0000
000BCE1000
001F4F5000
006E0B9000
00AB07E000
00E703F300
04F300E800
09FFFFFD00
0DA4447F20
3F40001F70
8E00000BB0
ENDCHAR
STARTCHAR uni1EAB
ENCODING 7851
SWIDTH 479 0
DWIDTH 8 0
BBX 7 15 0 0
BITMAP
006C2800
0093D400
00000000
004DD400
02D44D20
00000000
019EE800
09D46F50
0C700D80
00000C80
02AEFF80
0CB31C80
1F500C80
0EA59F90
04DE9BB0
ENDCHAR
STARTCHAR uni1EAC
ENCODING 7852
SWIDTH 576 0
DWIDTH 9 0
BBX 9 18 0 -3
BITMAP
0005E90000
002C3B5000
0000000000
0002F60000
0007FA0000
000BCE1000
001F4F5000
006E0B9000
00AB07E000
00E703F300
04F300E800
09FFFFFD00
0DA4447F20
3F40001F70
8E00000BB0
0000000000
0001D50000
0000830000
ENDCHAR
STARTCHAR uni1EAD
ENCODING 7853
SWIDTH 479 0
DWIDTH 8 0
BBX 7 15 0 -3
BITMAP
002DC200
00A77A00
00000000
019EE800
09D46F50
0C700D80
00000C80
02AEFF80
0CB31C80
1F500C80
0EA59F90
04DE9BB0
00000000
004D2000
00281000
ENDCHAR
STARTCHAR uni1EAE
ENCODING 7854
SWIDTH 576 0
DWIDTH 9 0
BBX 9 17 0 0
BITMAP
00005C0000
0000840000
005D1B8000
000AEC1000
0000000000
0002F60000
0007FA0000
000BCE1000
001F4F5000
006E0B9000
00AB07E000
00E703F300
04F300E800
09FFFFFD00
0DA4447F20
3F40001F70
8E00000BB0
ENDCHAR
STARTCHAR uni1EAF
ENCODING 7855
SWIDTH 479 0
DWIDTH 8 0
BBX 7 14 0 0
BITMAP
0001E200
00038000
00E46D00
006ED500
00000000
019EE800
09D46F50
0C700D80
00000C80
02AEFF80
0CB31C80
1F500C80
0EA59F90
04DE9BB0
ENDCHAR
STARTCHAR uni1EB0
ENCODING 7856
SWIDTH 576 0
DWIDTH 9 0
BBX 9 17 0 0
BITMAP
0007A00000
0000B00000
005D1B8000
000AEC1000
0000000000
0002F60000
0007FA0000
000BCE1000
001F4F5000
006E0B9000
00AB07E000
00E703F300
04F300E800
09FFFFFD00
0DA4447F20
3F40001F70
8E00000BB0
ENDCHAR
STARTCHAR uni1EB1
ENCODING 7857
SWIDTH 479 0
DWIDTH 8 0
BBX 7 14 0 0
BITMAP
002E1000
00083000
00E46D00
006ED500
00000000
019EE800
09D46F50
0C700D80
00000C80
02AEFF80
0CB31C80
1F500C80
0EA59F90
04DE9BB0
ENDCHAR
STARTCHAR uni1EB2
ENCODING 7858
SWIDTH 576 0
DWIDTH 9 0
BBX 9 18 0 0
BITMAP
0000A90000
00005E0000
0000D40000
004D1B6000
000AEB1000
0000000000
0002F60000
0007FA0000
000BCE1000
001F4F5000
006E0B9000
00AB07E000
00E703F300
04F300E800
09FFFFFD00
0DA4447F20
3F40001F70
8E00000BB0
ENDCHAR
STARTCHAR uni1EB3
ENCODING 7859
SWIDTH 479 0
DWIDTH 8 0
BBX 7 15 0 0
BITMAP
0006B100
0002D400
00089000
00E47B00
006ED300
00000000
019EE800
09D46F50
0C700D80
00000C80
02AEFF80
0CB31C80
1F500C80
0EA59F90
04DE9BB0
ENDCHAR
STARTCHAR uni1EB4
ENCODING 7860
SWIDTH 576 0
DWIDTH 9 0
BBX 9 18 0 0
BITMAP
000BA46000
00186E2000
0000000000
004D1B7000
000AEB1000
0000000000
0002F60000
0007FA0000
000BCE1000
001F4F5000
006E0B9000
00AB07E000
00E703F300
04F300E800
09FFFFFD00
0DA4447F20
3F40001F70
8E00000BB0
ENDCHAR
STARTCHAR uni1EB5
ENCODING 7861
SWIDTH 479 0
DWIDTH 8 0
BBX 7 15 0 0
BITMAP
006D2A00
0093D600
00000000
00E46C00
006ED400
00000000
019EE800
09D46F50
0C700D80
00000C80
02AEFF80
0CB31C80
1F500C80
0EA59F90
04DE9BB0
ENDCHAR
STARTCHAR uni1EB6
ENCODING 7862
SWIDTH 576 0
DWIDTH 9 0
BBX 9 18 0 -3
BITMAP
009A16D000
001BED4000
0000000000
0002F60000
0007FA0000
000BCE1000
001F4F5000
006E0B9000
00AB07E000
00E703F300
04F300E800
09FFFFFD00
0DA4447F20
3F40001F70
8E00000BB0
0000000000
0001D50000
0000830000
ENDCHAR
STARTCHAR uni1EB7
ENCODING 7863
SWIDTH 479 0
DWIDTH 8 0
BBX 7 15 0 -3
BITMAP
04E22E30
008EE800
00000000
019EE800
09D46F50
0C700D80
00000C80
02AEFF80
0CB31C80
1F500C80
0EA59F90
04DE9BB0
00000000
004D2000
00281000
ENDCHAR
STARTCHAR uni1EB8
ENCODING 7864
SWIDTH 496 0
DWIDTH 8 0
BBX 7 15 1 -3
BITMAP
CFFFFF40
CB444410
CA000000
CA000000
CA000000
CFFFFA00
CB444200
CA000000
CA000000
CA000000
CB444410
CFFFFF50
00000000
007C0000
00470000
ENDCHAR
STARTCHAR uni1EB9
ENCODING 7865
SWIDTH 468 0
DWIDTH 8 0
BBX 7 12 0 -3
BITMAP
01AEE800
09D46F50
0F600BA0
2F3008D0
3FFFFFD0
3F533320
1F500000
0AD54A80
019EEB20
00000000
000C7000
00074000
ENDCHAR
STARTCHAR uni1EBA
ENCODING 7866
SWIDTH 496 0
DWIDTH 8 0
BBX 7 16 1 0
BITMAP
005D4000
0009A000
004D2000
00000000
CFFFFF40
CB444410
CA000000
CA000000
CA000000
CFFFFA00
CB444200
CA000000
CA000000
CA000000
CB444410
CFFFFF50
ENDCHAR
STARTCHAR uni1EBB
ENCODING 7867
SWIDTH 468 0
DWIDTH 8 0
BBX 7 13 0 0
BITMAP
000AB100
0001D400
00099000
00000000
01AEE800
09D46F50
0F600BA0
2F3008D0
3FFFFFD0
3F533320
1F500000
0AD54A80
019EEB20
ENDCHAR
STARTCHAR uni1EBC
ENCODING 7868
SWIDTH 496 0
DWIDTH 8 0
BBX 7 16 1 0
BITMAP
00101200
0AF69800
1D1BD200
00000000
CFFFFF40
CB444410
CA000000
CA000000
CA000000
CFFFFA00
CB444200
CA000000
CA000000
CA000000
CB444410
CFFFFF50
ENDCHAR
STARTCHAR uni1EBD
ENCODING 7869
SWIDTH 468 0
DWIDTH 8 0
BBX 7 13 0 0
BITMAP
00000200
02EC3D20
0684DA00
00000000
01AEE800
09D46F50
0F600BA0
2F3008D0
3FFFFFD0
3F533320
1F500000
0AD54A80
019EEB20
ENDCHAR
STARTCHAR uni1EBE
ENCODING 7870
SWIDTH 496 0
DWIDTH 8 0
BBX 8 16 1 0
BITMAP
000003F4
02CE7790
1B93D400
00000000
CFFFFF40
CB444410
CA000000
CA000000
CA000000
CFFFFA00
CB444200
CA000000
CA000000
CA000000
CB444410
CFFFFF50
ENDCHAR
STARTCHAR uni1EBF
ENCODING 7871
SWIDTH 468 0
DWIDTH 8 0
BBX 9 13 0 0
BITMAP
0000008D10
006ED3C400
03D48C1000
0000000000
01AEE80000
09D46F5000
0F600BA000
2F3008D000
3FFFFFD000
3F53332000
1F50000000
0AD54A8000
019EEB2000
ENDCHAR
STARTCHAR uni1EC0
ENCODING 7872
SWIDTH 496 0
DWIDTH 8 0
BBX 8 16 0 0
BITMAP
C9000000
2C3CE600
01B93D40
00000000
0CFFFFF4
0CB44441
0CA00000
0CA00000
0CA00000
0CFFFFA0
0CB44420
0CA00000
0CA00000
0CA00000
0CB44441
0CFFFFF5
ENDCHAR
STARTCHAR uni1EC1
ENCODING 7873
SWIDTH 468 0
DWIDTH 8 0
BBX 8 13 -1 0
BITMAP
3F400000
0786ED30
003D48C1
00000000
001AEE80
009D46F5
00F600BA
02F3008D
03FFFFFD
03F53332
01F50000
00AD54A8
0019EEB2
ENDCHAR
STARTCHAR uni1EC2
ENCODING 7874
SWIDTH 496 0
DWIDTH 8 0
BBX 7 17 1 0
BITMAP
00000C60
000006A0
03DD7D20
1C61C500
00000000
CFFFFF40
CB444410
CA000000
CA000000
CA000000
CFFFFA00
CB444200
CA000000
CA000000
CA000000
CB444410
CFFFFF50
ENDCHAR
STARTCHAR uni1EC3
ENCODING 7875
SWIDTH 468 0
DWIDTH 8 0
BBX 8 14 0 0
BITMAP
000004C2
000001B5
007DD8B0
04C25C10
00000000
01AEE800
09D46F50
0F600BA0
2F3008D0
3FFFFFD0
3F533320
1F500000
0AD54A80
019EEB20
ENDCHAR
STARTCHAR uni1EC4
ENCODING 7876
SWIDTH 496 0
DWIDTH 8 0
BBX 7 18 1 0
BITMAP
03D49000
073C8000
00000000
02CD6000
1B62C400
00000000
CFFFFF40
CB444410
CA000000
CA000000
CA000000
CFFFFA00
CB444200
CA000000
CA000000
CA000000
CB444410
CFFFFF50
ENDCHAR
STARTCHAR uni1EC5
ENCODING 7877
SWIDTH 468 0
DWIDTH 8 0
BBX 7 15 0 0
BITMAP
008B3700
0094E300
00000000
005DC300
04D25C10
00000000
01AEE800
09D46F50
0F600BA0
2F3008D0
3FFFFFD0
3F533320
1F500000
0AD54A80
019EEB20
ENDCHAR
STARTCHAR uni1EC6
ENCODING 7878
SWIDTH 496 0
DWIDTH 8 0
BBX 7 18 1 -3
BITMAP
01BE4000
07A4C100
00000000
CFFFFF40
CB444410
CA000000
CA000000
CA000000
CFFFFA00
CB444200
CA000000
CA000000
CA000000
CB444410
CFFFFF50
00000000
007C0000
00470000
ENDCHAR
STARTCHAR uni1EC7
ENCODING 7879
SWIDTH 468 0
DWIDTH 8 0
BBX 7 15 0 -3
BITMAP
003DC100
00B59800
00000000
01AEE800
09D46F50
0F600BA0
2F3008D0
3FFFFFD0
3F533320
1F500000
0AD54A80
019EEB20
00000000
000C7000
00074000
ENDCHAR
STARTCHAR uni1EC8
ENCODING 7880
SWIDTH 250 0
DWIDTH 4 0
BBX 3 16 1 0
BITMAP
8C20
1B60
7B10
0000
BB00
BB00
BB00
BB00
BB00
BB00
BB00
BB00
BB00
BB00
BB00
BB00
ENDCHAR
STARTCHAR uni1EC9
ENCODING 7881
SWIDTH 234 0
DWIDTH 4 0
BBX 3 13 1 0
BITMAP
AB10
1D50
9900
0000
D800
D800
D800
D800
D800
D800
D800
D800
D800
ENDCHAR
STARTCHAR uni1ECA
ENCODING 7882
SWIDTH 250 0
DWIDTH 4 0
BBX 2 15 1 -3
BITMAP
BB
BB
BB
BB
BB
BB
BB
BB
BB
BB
BB
BB
00
B9
65
ENDCHAR
STARTCHAR uni1ECB
ENCODING 7883
SWIDTH 229 0
DWIDTH 4 0
BBX 2 15 1 -3
BITMAP
74
B7
00
D8
D8
D8
D8
D8
D8
D8
D8
D8
00
D7
84
ENDCHAR
STARTCHAR uni1ECC
ENCODING 7884
SWIDTH 600 0
DWIDTH 10 0
BBX 8 15 1 -3
BITMAP
03BFE910
2EB67EB0
9D0004F3
D80000E7
F70000D9
F60000C9
F60000C9
F70000D9
D80000E7
9D0004F4
2EB56EB0
03BFE910
00000000
000D7000
00084000
ENDCHAR
STARTCHAR uni1ECD
ENCODING 7885
SWIDTH 501 0
DWIDTH 8 0
BBX 8 12 0 -3
BITMAP
009EE910
08E55E90
1F6006F1
3F3002F3
4F2001F4
3F3002F3
1F6005F1
09E54D90
019EE910
00000000
000A9000
00065000
ENDCHAR
STARTCHAR uni1ECE
ENCODING 7886
SWIDTH 600 0
DWIDTH 10 0
BBX 8 16 1 0
BITMAP
000AB100
0001E400
000A9000
00000000
03BFE910
2EB67EB0
9D0004F3
D80000E7
F70000D9
F60000C9
F60000C9
F70000D9
D80000E7
9D0004F4
2EB56EB0
03BFE910
ENDCHAR
STARTCHAR uni1ECF
ENCODING 7887
SWIDTH 501 0
DWIDTH 8 0
BBX 8 13 0 0
BITMAP
0009C200
0001C600
0008A100
00000000
009EE910
08E55E90
1F6006F1
3F3002F3
4F2001F4
3F3002F3
1F6005F1
09E54D90
019EE910
ENDCHAR
STARTCHAR uni1ED0
ENCODING 7888
SWIDTH 600 0
DWIDTH 10 0
BBX 9 16 1 0
BITMAP
0000008D10
006ED3C300
04D48B1000
0000000000
03BFE91000
2EB67EB000
9D0004F300
D80000E700
F70000D900
F60000C900
F60000C900
F70000D900
D80000E700
9D0004F400
2EB56EB000
03BFE91000
ENDCHAR
STARTCHAR uni1ED1
ENCODING 7889
SWIDTH 501 0
DWIDTH 8 0
BBX 9 13 0 0
BITMAP
0000007E10
005ED4B500
03D56C2000
0000000000
009EE91000
08E55E9000
1F6006F100
3F3002F300
4F2001F400
3F3002F300
1F6005F100
09E54D9000
019EE91000
ENDCHAR
STARTCHAR uni1ED2
ENCODING 7890
SWIDTH 600 0
DWIDTH 10 0
BBX 9 16 0 0
BITMAP
3F30000000
0886ED3000
004D38B100
0000000000
003BFE9100
02EB67EB00
09D0004F30
0D80000E70
0F70000D90
0F60000C90
0F60000C90
0F70000D90
0D80000E70
09D0004F40
02EB56EB00
003BFE9100
ENDCHAR
STARTCHAR uni1ED3
ENCODING 7891
SWIDTH 501 0
DWIDTH 8 0
BBX 9 13 -1 0
BITMAP
2E50000000
0695ED3000
003D57C200
0000000000
0009EE9100
008E55E900
01F6006F10
03F3002F30
04F2001F40
03F3002F30
01F6005F10
009E54D900
0019EE9100
ENDCHAR
STARTCHAR uni1ED4
ENCODING 7892
SWIDTH 600 0
DWIDTH 10 0
BBX 8 17 1 0
BITMAP
000004C1
000001B4
007DD8A0
04C25C10
00000000
03BFE910
2EB67EB0
9D0004F3
D80000E7
F70000D9
F60000C9
F60000C9
F70000D9
D80000E7
9D0004F4
2EB56EB0
03BFE910
ENDCHAR
STARTCHAR uni1ED5
ENCODING 7893
SWIDTH 501 0
DWIDTH 8 0
BBX 8 14 0 0
BITMAP
000003C2
000001A6
006DD7C1
03D24D20
00000000
009EE910
08E55E90
1F6006F1
3F3002F3
4F2001F4
3F3002F3
1F6005F1
09E54D90
019EE910
ENDCHAR
STARTCHAR uni1ED6
ENCODING 7894
SWIDTH 600 0
DWIDTH 10 0
BBX 8 18 1 0
BITMAP
008B3700
0094E200
00000000
006DC200
04D26C10
00000000
03BFE910
2EB67EB0
9D0004F3
D80000E7
F70000D9
F60000C9
F60000C9
F70000D9
D80000E7
9D0004F4
2EB56EB0
03BFE910
ENDCHAR
STARTCHAR uni1ED7
ENCODING 7895
SWIDTH 501 0
DWIDTH 8 0
BBX 8 15 0 0
BITMAP
007C2800
0093E400
00000000
004DD300
03D34C20
00000000
009EE910
08E55E90
1F6006F1
3F3002F3
4F2001F4
3F3002F3
1F6005F1
09E54D90
019EE910
ENDCHAR
STARTCHAR uni1ED8
ENCODING 7896
SWIDTH 600 0
DWIDTH 10 0
BBX 8 18 1 -3
BITMAP
003DB100
01C59800
00000000
03BFE910
2EB67EB0
9D0004F3
D80000E7
F70000D9
F60000C9
F60000C9
F70000D9
D80000E7
9D0004F4
2EB56EB0
03BFE910
00000000
000D7000
00084000
ENDCHAR
STARTCHAR uni1ED9
ENCODING 7897
SWIDTH 501 0
DWIDTH 8 0
BBX 8 15 0 -3
BITMAP
002DC200
00A67900
00000000
009EE910
08E55E90
1F6006F1
3F3002F3
4F2001F4
3F3002F3
1F6005F1
09E54D90
019EE910
00000000
000A9000
00065000
ENDCHAR
STARTCHAR uni1EDA
ENCODING 7898
SWIDTH 592 0
DWIDTH 9 0
BBX 10 15 0 0
BITMAP
00002DA000
0000A90011
00000000B8
003BED72E4
02EB58FF90
0AC0008F10
0E70003F50
2F40000F70
4F30000E80
4F30000E80
2F40000F70
0E70002F40
0AC0008E00
02EA58F600
003BED6000
ENDCHAR
STARTCHAR uni1EDB
ENCODING 7899
SWIDTH 502 0
DWIDTH 8 0
BBX 9 12 0 0
BITMAP
0001BC1000
0006C10000
0000000C20
008EE83E00
07E55EF700
0E7007E000
2F4003F300
3F2002F400
2F3003F200
0E7007E000
07E55E8000
008EE80000
ENDCHAR
STARTCHAR uni1EDC
ENCODING 7900
SWIDTH 592 0
DWIDTH 9 0
BBX 10 15 0 0
BITMAP
004E800000
0003D30011
00000000B8
003BED72E4
02EB58FF90
0AC0008F10
0E70003F50
2F40000F70
4F30000E80
4F30000E80
2F40000F70
0E70002F40
0AC0008E00
02EA58F600
003BED6000
ENDCHAR
STARTCHAR uni1EDD
ENCODING 7901
SWIDTH 502 0
DWIDTH 8 0
BBX 9 12 0 0
BITMAP
01DB100000
001C600000
0000000C20
008EE83E00
07E55EF700
0E7007E000
2F4003F300
3F2002F400
2F3003F200
0E7007E000
07E55E8000
008EE80000
ENDCHAR
STARTCHAR uni1EDE
ENCODING 7902
SWIDTH 592 0
DWIDTH 9 0
BBX 10 16 0 0
BITMAP
0000CA0000
00002E2000
0000B80011
00000000B8
003BED72E4
02EB58FF90
0AC0008F10
0E70003F50
2F40000F70
4F30000E80
4F30000E80
2F40000F70
0E70002F40
0AC0008E00
02EA58F600
003BED6000
ENDCHAR
STARTCHAR uni1EDF
ENCODING 7903
SWIDTH 502 0
DWIDTH 8 0
BBX 9 13 0 0
BITMAP
0008C20000
0001C60000
0007B10000
0000000C20
008EE83E00
07E55EF700
0E7007E000
2F4003F300
3F2002F400
2F3003F200
0E7007E000
07E55E8000
008EE80000
ENDCHAR
STARTCHAR uni1EE0
ENCODING 7904
SWIDTH 592 0
DWIDTH 9 0
BBX 10 16 0 0
BITMAP
0001002000
003EB3E000
00875E8011
00000000B8
003BED72E4
02EB58FF90
0AC0008F10
0E70003F50
2F40000F70
4F30000E80
4F30000E80
2F40000F70
0E70002F40
0AC0008E00
02EA58F600
003BED6000
ENDCHAR
STARTCHAR uni1EE1
ENCODING 7905
SWIDTH 502 0
DWIDTH 8 0
BBX 9 13 0 0
BITMAP
0000021000
01DD4C4000
04A3DB0000
0000000C20
008EE83E00
07E55EF700
0E7007E000
2F4003F300
3F2002F400
2F3003F200
0E7007E000
07E55E8000
008EE80000
ENDCHAR
STARTCHAR uni1EE2
ENCODING 7906
SWIDTH 592 0
DWIDTH 9 0
BBX 10 17 0 -3
BITMAP
0000000011
00000000B8
003BED72E4
02EB58FF90
0AC0008F10
0E70003F50
2F40000F70
4F30000E80
4F30000E80
2F40000F70
0E70002F40
0AC0008E00
02EA58F600
003BED6000
0000000000
0001D50000
0000820000
ENDCHAR
STARTCHAR uni1EE3
ENCODING 7907
SWIDTH 502 0
DWIDTH 8 0
BBX 9 13 0 -3
BITMAP
0000000C20
008EE83E00
07E55EF700
0E7007E000
2F4003F300
3F2002F400
2F3003F200
0E7007E000
07E55E8000
008EE80000
0000000000
000B900000
0006500000
ENDCHAR
STARTCHAR uni1EE4
ENCODING 7908
SWIDTH 561 0
DWIDTH 9 0
BBX 7 15 1 -3
BITMAP
F70006F0
F70006F0
F70006F0
F70006F0
F70006F0
F70006F0
F70006F0
F70006F0
E70007F0
C90009D0
6F747F60
07DED600
00000000
004E2000
00281000
ENDCHAR
STARTCHAR uni1EE5
ENCODING 7909
SWIDTH 483 0
DWIDTH 8 0
BBX 6 12 1 -3
BITMAP
F600AA
F600AA
F600AA
F600AA
F600AA
F600AA
E700BA
AD48FA
2CEABA
000000
04E200
028100
ENDCHAR
STARTCHAR uni1EE6
ENCODING 7910
SWIDTH 561 0
DWIDTH 9 0
BBX 7 16 1 0
BITMAP
001E7000
0005E000
000E4000
00000000
F70006F0
F70006F0
F70006F0
F70006F0
F70006F0
F70006F0
F70006F0
F70006F0
E70007F0
C90009D0
6F747F60
07DED600
ENDCHAR
STARTCHAR uni1EE7
ENCODING 7911
SWIDTH 483 0
DWIDTH 8 0
BBX 6 13 1 0
BITMAP
00AB10
001D40
009900
000000
F600AA
F600AA
F600AA
F600AA
F600AA
F600AA
E700BA
AD48FA
2CEABA
ENDCHAR
STARTCHAR uni1EE8
ENCODING 7912
SWIDTH 608 0
DWIDTH 10 0
BBX 10 15 1 0
BITMAP
0002DA0000
000A900000
0000000032
F70006F0B7
F70006F3E3
F70006FE70
F70006F000
F70006F000
F70006F000
F70006F000
F70006F000
E70007E000
BB000BC000
4F848F4000
06DFD50000
ENDCHAR
STARTCHAR uni1EE9
ENCODING 7913
SWIDTH 549 0
DWIDTH 9 0
BBX 8 12 1 0
BITMAP
001CC100
007B1000
00000038
F600AA7A
F600AFC2
F600AA00
F600AA00
F600AA00
F600AA00
E700BA00
AD48FA00
2CEABA00
ENDCHAR
STARTCHAR uni1EEA
ENCODING 7914
SWIDTH 608 0
DWIDTH 10 0
BBX 10 15 1 0
BITMAP
03E8000000
003D300000
0000000032
F70006F0B7
F70006F3E3
F70006FE70
F70006F000
F70006F000
F70006F000
F70006F000
F70006F000
E70007E000
BB000BC000
4F848F4000
06DFD50000
ENDCHAR
STARTCHAR uni1EEB
ENCODING 7915
SWIDTH 549 0
DWIDTH 9 0
BBX 8 12 1 0
BITMAP
2DB10000
01C60000
00000038
F600AA7A
F600AFC2
F600AA00
F600AA00
F600AA00
F600AA00
E700BA00
AD48FA00
2CEABA00
ENDCHAR
STARTCHAR uni1EEC
ENCODING 7916
SWIDTH 608 0
DWIDTH 10 0
BBX 10 16 1 0
BITMAP
000CA00000
0002E30000
000B800000
0000000032
F70006F0B7
F70006F3E3
F70006FE70
F70006F000
F70006F000
F70006F000
F70006F000
F70006F000
E70007E000
BB000BC000
4F848F4000
06DFD50000
ENDCHAR
STARTCHAR uni1EED
ENCODING 7917
SWIDTH 549 0
DWIDTH 9 0
BBX 8 13 1 0
BITMAP
009C2000
001C6000
007A1000
00000038
F600AA7A
F600AFC2
F600AA00
F600AA00
F600AA00
F600AA00
E700BA00
AD48FA00
2CEABA00
ENDCHAR
STARTCHAR uni1EEE
ENCODING 7918
SWIDTH 608 0
DWIDTH 10 0
BBX 10 16 1 0
BITMAP
0010020000
03EB3E0000
0875E80000
0000000032
F70006F0B7
F70006F3E3
F70006FE70
F70006F000
F70006F000
F70006F000
F70006F000
F70006F000
E70007E000
BB000BC000
4F848F4000
06DFD50000
ENDCHAR
STARTCHAR uni1EEF
ENCODING 7919
SWIDTH 549 0
DWIDTH 9 0
BBX 8 13 1 0
BITMAP
00002100
1DD4C400
5A3DB000
00000038
F600AA7A
F600AFC2
F600AA00
F600AA00
F600AA00
F600AA00
E700BA00
AD48FA00
2CEABA00
ENDCHAR
STARTCHAR uni1EF0
ENCODING 7920
SWIDTH 608 0
DWIDTH 10 0
BBX 10 16 1 -3
BITMAP
0000000032
F70006F0B7
F70006F3E3
F70006FE70
F70006F000
F70006F000
F70006F000
F70006F000
F70006F000
E70007E000
BB000BC000
4F848F4000
06DFD50000
0000000000
001D600000
0008300000
ENDCHAR
STARTCHAR uni1EF1
ENCODING 7921
SWIDTH 549 0
DWIDTH 9 0
BBX 8 13 1 -3
BITMAP
00000038
F600AA7A
F600AFC2
F600AA00
F600AA00
F600AA00
F600AA00
E700BA00
AD48FA00
2CEABA00
00000000
00D70000
00840000
ENDCHAR
STARTCHAR Ygrave
ENCODING 7922
SWIDTH 524 0
DWIDTH 8 0
BBX 8 15 0 0
BITMAP
00AD2000
000A9000
00000000
8F1000AE
2F7001F7
0AC007F1
04F30DA0
00D93F30
006EAC00
001EF500
0009E000
0008E000
0008E000
0008E000
0008E000
ENDCHAR
STARTCHAR ygrave
ENCODING 7923
SWIDTH 416 0
DWIDTH 7 0
BBX 7 15 0 -3
BITMAP
07F50000
006C1000
00000000
9E004F30
4F207E00
0E60BA00
0AA0E500
06E3F100
02FAC000
00CF8000
008F3000
005E0000
008A0000
16E40000
4E800000
ENDCHAR
STARTCHAR uni1EF4
ENCODING 7924
SWIDTH 524 0
DWIDTH 8 0
BBX 8 15 0 -3
BITMAP
8F1000AE
2F7001F7
0AC007F1
04F30DA0
00D93F30
006EAC00
001EF500
0009E000
0008E000
0008E000
0008E000
0008E000
00000000
0008C000
00047000
ENDCHAR
STARTCHAR uni1EF5
ENCODING 7925
SWIDTH 416 0
DWIDTH 7 0
BBX 7 13 0 -4
BITMAP
9E004F30
4F207E00
0E60BA00
0AA0E500
06E3F100
02FAC000
00CF8000
008F3000
005E0000
008A0000
16E40000
4E80D600
00008400
ENDCHAR
STARTCHAR uni1EF6
ENCODING 7926
SWIDTH 524 0
DWIDTH 8 0
BBX 8 16 0 0
BITMAP
0005D400
00009A00
0004D200
00000000
8F1000AE
2F7001F7
0AC007F1
04F30DA0
00D93F30
006EAC00
001EF500
0009E000
0008E000
0008E000
0008E000
0008E000
ENDCHAR
STARTCHAR uni1EF7
ENCODING 7927
SWIDTH 416 0
DWIDTH 7 0
BBX 7 16 0 -3
BITMAP
001E7000
0005E000
000F4000
00000000
9E004F30
4F207E00
0E60BA00
0AA0E500
06E3F100
02FAC000
00CF8000
008F3000
005E0000
008A0000
16E40000
4E800000
ENDCHAR
STARTCHAR uni1EF8
ENCODING 7928
SWIDTH 524 0
DWIDTH 8 0
BBX 8 16 0 0
BITMAP
00010120
00AF6980
01D1BD20
00000000
8F1000AE
2F7001F7
0AC007F1
04F30DA0
00D93F30
006EAC00
001EF500
0009E000
0008E000
0008E000
0008E000
0008E000
ENDCHAR
STARTCHAR uni1EF9
ENCODING 7929
SWIDTH 416 0
DWIDTH 7 0
BBX 7 16 0 -3
BITMAP
00100200
06F85B00
0C38E400
00000000
9E004F30
4F207E00
0E60BA00
0AA0E500
06E3F100
02FAC000
00CF8000
008F3000
005E0000
008A0000
16E40000
4E800000
ENDCHAR
STARTCHAR uni1F4D
ENCODING 8013
SWIDTH 634 0
DWIDTH 10 0
BBX 14 12 -4 0
BITMAP
1F38D008DFC500
0E4C608F85AF40
068A01F7000BC0
000005F20006F1
000007F00004F2
000007E00004F3
000007E00004F3
000007F00004F2
000005F20006F1
000001F7000BC0
0000009F85AF40
00000008DFC500
ENDCHAR
STARTCHAR uni2000
ENCODING 8192
SWIDTH 447 0
DWIDTH 7 0
BBX 1 1 0 0
BITMAP
00
ENDCHAR
STARTCHAR uni2001
ENCODING 8193
SWIDTH 876 0
DWIDTH 14 0
BBX 1 1 0 0
BITMAP
00
ENDCHAR
STARTCHAR uni2002
ENCODING 8194
SWIDTH 447 0
DWIDTH 7 0
BBX 1 1 0 0
BITMAP
00
ENDCHAR
STARTCHAR uni2003
ENCODING 8195
SWIDTH 876 0
DWIDTH 14 0
BBX 1 1 0 0
BITMAP
00
ENDCHAR
STARTCHAR uni2004
ENCODING 8196
SWIDTH 305 0
DWIDTH 5 0
BBX 1 1 0 0
BITMAP
00
ENDCHAR
STARTCHAR uni2005
ENCODING 8197
SWIDTH 233 0
DWIDTH 4 0
BBX 1 1 0 0
BITMAP
00
ENDCHAR
STARTCHAR uni2006
ENCODING 8198
SWIDTH 162 0
DWIDTH 3 0
BBX 1 1 0 0
BITMAP
00
ENDCHAR
STARTCHAR uni2007
ENCODING 8199
SWIDTH 491 0
DWIDTH 8 0
BBX 1 1 0 0
BITMAP
00
ENDCHAR
STARTCHAR uni2008
ENCODING 8200
SWIDTH 249 0
DWIDTH 4 0
BBX 1 1 0 0
BITMAP
00
ENDCHAR
STARTCHAR uni2009
ENCODING 8201
SWIDTH 190 0
DWIDTH 3 0
BBX 1 1 0 0
BITMAP
00
ENDCHAR
STARTCHAR uni200A
ENCODING 8202
SWIDTH 105 0
DWIDTH 2 0
BBX 1 1 0 0
BITMAP
00
ENDCHAR
STARTCHAR uni200B
ENCODING 8203
SWIDTH 0 0
DWIDTH 0 0
BBX 1 1 0 0
BITMAP
00
ENDCHAR
STARTCHAR uni2010
ENCODING 8208
SWIDTH 248 0
DWIDTH 4 0
BBX 4 2 0 3
BITMAP
9FF9
2332
ENDCHAR
STARTCHAR uni2011
ENCODING 8209
SWIDTH 248 0
DWIDTH 4 0
BBX 4 2 0 3
BITMAP
9FF9
2332
ENDCHAR
STARTCHAR endash
ENCODING 8211
SWIDTH 572 0
DWIDTH 9 0
BBX 7 2 1 4
BITMAP
BFFFFFC0
23333320
ENDCHAR
STARTCHAR emdash
ENCODING 8212
SWIDTH 678 0
DWIDTH 11 0
BBX 9 2 1 4
BITMAP
BFFFFFFFF0
2333333330
ENDCHAR
STARTCHAR uni2015
ENCODING 8213
SWIDTH 678 0
DWIDTH 11 0
BBX 9 2 1 4
BITMAP
BFFFFFFFF0
2333333330
ENDCHAR
STARTCHAR underscoredbl
ENCODING 8215
SWIDTH 402 0
DWIDTH 6 0
BBX 7 4 0 -4
BITMAP
CFFFFF40
23333310
CFFFFF40
23333310
ENDCHAR
STARTCHAR quoteleft
ENCODING 8216
SWIDTH 194 0
DWIDTH 3 0
BBX 3 4 0 8
BITMAP
0680
0D60
2F30
3F20
ENDCHAR
STARTCHAR quoteright
ENCODING 8217
SWIDTH 194 0
DWIDTH 3 0
BBX 3 4 0 8
BITMAP
0E70
0F60
3F20
5900
ENDCHAR
STARTCHAR quotesinglbase
ENCODING 8218
SWIDTH 194 0
DWIDTH 3 0
BBX 3 4 0 -2
BITMAP
0620
0F50
3F20
6800
ENDCHAR
STARTCHAR quotereversed
ENCODING 8219
SWIDTH 194 0
DWIDTH 3 0
BBX 3 4 0 8
BITMAP
5F00
4F10
1F40
0860
ENDCHAR
STARTCHAR quotedblleft
ENCODING 8220
SWIDTH 333 0
DWIDTH 5 0
BBX 5 4 0 8
BITMAP
0592B0
0C79B0
1F4D80
2F4E70
ENDCHAR
STARTCHAR quotedblright
ENCODING 8221
SWIDTH 337 0
DWIDTH 5 0
BBX 5 4 0 8
BITMAP
0C8AB0
0D7BA0
2F4E60
4A2B10
ENDCHAR
STARTCHAR quotedblbase
ENCODING 8222
SWIDTH 326 0
DWIDTH 5 0
BBX 5 4 0 -2
BITMAP
0E5C70
0F5E70
3F4F30
684A00
ENDCHAR
STARTCHAR dagger
ENCODING 8224
SWIDTH 482 0
DWIDTH 8 0
BBX 8 12 0 0
BITMAP
000D8000
000D8000
000D8000
6FFFFFF2
133DA330
000D8000
000D8000
000D8000
000D8000
000D8000
000D8000
000D8000
ENDCHAR
STARTCHAR daggerdbl
ENCODING 8225
SWIDTH 500 0
DWIDTH 8 0
BBX 8 15 0 -3
BITMAP
000BA000
000BA000
000BA000
4FFFFFF4
133CB331
000BA000
000BA000
000BA000
000BA000
000BA000
133CB331
4FFFFFF4
000BA000
000BA000
000BA000
ENDCHAR
STARTCHAR bullet
ENCODING 8226
SWIDTH 336 0
DWIDTH 5 0
BBX 4 4 1 4
BITMAP
7EB0
DFF3
BFF2
1530
ENDCHAR
STARTCHAR twodotenleader
ENCODING 8229
SWIDTH 420 0
DWIDTH 7 0
BBX 5 2 1 0
BITMAP
770760
AA0BA0
ENDCHAR
STARTCHAR ellipsis
ENCODING 8230
SWIDTH 590 0
DWIDTH 9 0
BBX 8 2 1 0
BITMAP
77076094
AA0BA1D6
ENDCHAR
STARTCHAR uni2027
ENCODING 8231
SWIDTH 181 0
DWIDTH 3 0
BBX 3 2 0 4
BITMAP
3D20
1810
ENDCHAR
STARTCHAR perthousand
ENCODING 8240
SWIDTH 818 0
DWIDTH 13 0
BBX 13 12 0 0
BITMAP
0AEA0000000000
5C1B6056000000
790780C3000000
5C1B65A0000000
0AEA1C30000000
00005B00000000
0000C300000000
0005B0AE9AEA00
000C35B1BB1C50
004B0780870970
008305B1BB1C50
000000AE9AEA00
ENDCHAR
STARTCHAR minute
ENCODING 8242
SWIDTH 174 0
DWIDTH 3 0
BBX 2 4 0 8
BITMAP
3F
3E
3D
3D
ENDCHAR
STARTCHAR second
ENCODING 8243
SWIDTH 319 0
DWIDTH 5 0
BBX 4 4 1 8
BITMAP
E3C4
E2C4
E1C2
E0C1
ENDCHAR
STARTCHAR guilsinglleft
ENCODING 8249
SWIDTH 271 0
DWIDTH 4 0
BBX 3 6 1 1
BITMAP
0880
3E10
C700
C700
3E10
0880
ENDCHAR
STARTCHAR guilsinglright
ENCODING 8250
SWIDTH 271 0
DWIDTH 4 0
BBX 4 6 0 1
BITMAP
1D20
07B0
00D6
00D6
07B0
1D20
ENDCHAR
STARTCHAR exclamdbl
ENCODING 8252
SWIDTH 491 0
DWIDTH 8 0
BBX 6 12 1 0
BITMAP
BA00CA
BA00C9
BA00C9
BA00C9
AA00B9
A900B9
A900B8
A900B8
650065
000000
550064
9900A8
ENDCHAR
STARTCHAR fraction
ENCODING 8260
SWIDTH 403 0
DWIDTH 6 0
BBX 6 9 0 1
BITMAP
00002A
000096
0003D0
000B50
004C00
00C300
05A000
0D2000
380000
ENDCHAR
STARTCHAR uni2074
ENCODING 8308
SWIDTH 329 0
DWIDTH 5 0
BBX 5 6 0 6
BITMAP
005F20
01DF20
088F20
2D1F20
7FFFC0
001F20
ENDCHAR
STARTCHAR uni207F
ENCODING 8319
SWIDTH 374 0
DWIDTH 6 0
BBX 6 7 0 5
BITMAP
1F7E80
1F87F1
1F32F2
1F31F3
1F31F3
1F31F3
1F31F3
ENDCHAR
STARTCHAR franc
ENCODING 8355
SWIDTH 480 0
DWIDTH 8 0
BBX 8 12 0 0
BITMAP
0CFFFFF2
0CB44441
0CA00000
0CA00000
0CA00000
0CFFFF80
0CB44420
0CA00000
0CA00000
BFFF7000
2ED31000
0CA00000
ENDCHAR
STARTCHAR lira
ENCODING 8356
SWIDTH 510 0
DWIDTH 8 0
BBX 8 12 0 0
BITMAP
002AED40
00CC4AE2
02F401F5
04F20021
04F20000
4FFFF600
04F30000
4FFFF600
03F40000
04F30000
19E44442
3FFFFFFA
ENDCHAR
STARTCHAR uni20A6
ENCODING 8358
SWIDTH 691 0
DWIDTH 11 0
BBX 11 12 0 0
BITMAP
03F70003F400
03FD0003F400
03FF4003F400
03FBA003F400
03F6F203F400
AFFFFFFFFFB0
25F65F65F620
AFFFFFFFFFB0
25F633EAF620
03F4008FF400
03F4001EF400
03F40007F400
ENDCHAR
STARTCHAR peseta
ENCODING 8359
SWIDTH 709 0
DWIDTH 11 0
BBX 10 12 1 0
BITMAP
CFFD700000
CA36F55F00
C900BA5F00
C9009FFFF4
C900AB7F21
C903E65F00
CFFFA05F00
CA31005F00
C900005F00
C900005F10
C900004F61
C900000BE4
ENDCHAR
STARTCHAR uni20A8
ENCODING 8360
SWIDTH 911 0
DWIDTH 15 0
BBX 13 12 1 0
BITMAP
CFFFC500000000
CB449F40000000
CA000CA0000000
CA000AC08EE900
CA000CB6E55E70
CA006F59C00760
CFFFF806F81000
CB45F4006DE700
CA00CB00007F80
CA006F3A6009C0
CA000E99E54D90
CA0008F29EEA10
ENDCHAR
STARTCHAR uni20A9
ENCODING 8361
SWIDTH 634 0
DWIDTH 10 0
BBX 10 12 0 0
BITMAP
6F009C00D8
4F20BE00F6
1F40DF12F3
0E60FD34F1
AFFFFFFFFC
2AC6CA9AB2
07D6A79A80
AFFFFFFFFC
24FC75DF52
00EE31FF10
00BF10ED00
009E00CA00
ENDCHAR
STARTCHAR uni20AA
ENCODING 8362
SWIDTH 669 0
DWIDTH 11 0
BBX 9 9 1 0
BITMAP
EFFFD40BA0
E834BD0BA0
E6005F1BA0
E66E4F2BA0
E66E4F2BA0
E66E4F2BA0
E66E000C90
E66E335F60
E66FFFFA00
ENDCHAR
STARTCHAR dong
ENCODING 8363
SWIDTH 510 0
DWIDTH 8 0
BBX 9 15 0 -3
BITMAP
000008D000
0002FFFF20
00003BF300
02BFCAD000
0BD56ED000
1F5008D000
3F3008D000
4F2008D000
3F3008D000
1F5008D000
0BD55ED000
02BFC9D000
0000000000
0CFFFFF500
0233333100
ENDCHAR
STARTCHAR Euro
ENCODING 8364
SWIDTH 493 0
DWIDTH 8 0
BBX 8 12 0 0
BITMAP
0006DFD1
005F8450
00CA0000
00E70000
3FFFFC00
01F60000
3FFFFC00
00F60000
00E80000
00AD0000
003FA450
0004CFD1
ENDCHAR
STARTCHAR uni20B1
ENCODING 8369
SWIDTH 648 0
DWIDTH 10 0
BBX 10 12 0 0
BITMAP
05FFFFC300
05F444BE20
AFFFFFFFFF
27F4333CB3
AFFFFFFFFF
27F434AF64
05FFFFF800
05F4431000
05F1000000
05F1000000
05F1000000
05F1000000
ENDCHAR
STARTCHAR uni20B9
ENCODING 8377
SWIDTH 462 0
DWIDTH 7 0
BBX 7 12 0 0
BITMAP
6FFFFFD0
244AF720
0000E900
6FFFFFD0
2444EA20
0017F500
8FFF9000
3FB10000
07F50000
00BE1000
002EB000
0006F600
ENDCHAR
STARTCHAR uni20BA
ENCODING 8378
SWIDTH 500 0
DWIDTH 8 0
BBX 8 12 0 0
BITMAP
00F70000
00F9A200
02FFB100
7FF80000
74F9A200
02FFB100
7FF802F5
74F703F4
00F705F2
00F70AC0
00FA9F40
00DFC400
ENDCHAR
STARTCHAR uni20BC
ENCODING 8380
SWIDTH 575 0
DWIDTH 9 0
BBX 9 9 0 0
BITMAP
0001F40000
0001F40000
004DFE7000
03FAFAF700
0BB1F48D00
1F51F42F40
3F31F40F60
4F21F40E70
4F21F40E70
ENDCHAR
STARTCHAR uni20BD
ENCODING 8381
SWIDTH 583 0
DWIDTH 9 0
BBX 9 12 0 0
BITMAP
04FFFEC400
04F544AF20
04F2000E80
04F2000BA0
04F2000D90
04F2016F40
AFFFFFF800
27F5431000
AFFFF40000
27F5410000
04F2000000
04F2000000
ENDCHAR
STARTCHAR uni2105
ENCODING 8453
SWIDTH 640 0
DWIDTH 10 0
BBX 9 12 1 0
BITMAP
5EC2000000
E378038000
F0000B5000
E4783C0000
5ED2B50000
0003C00000
000A500000
003D1BE900
00A56A1C40
03D0870960
06506A1C40
00001BE900
ENDCHAR
STARTCHAR uni2113
ENCODING 8467
SWIDTH 422 0
DWIDTH 7 0
BBX 6 12 0 0
BITMAP
002CE5
00AC9D
00C86F
00D87E
00D8CA
00DDF3
02DF80
2FFA00
14D800
00BA00
006E50
0008C0
ENDCHAR
STARTCHAR uni2116
ENCODING 8470
SWIDTH 886 0
DWIDTH 14 0
BBX 13 12 1 0
BITMAP
CD0009B05EE600
CF4009B1F55F10
CFA009B4E00E40
CAF109B4E00E40
C8B709B1F55F10
C85D09B06EE600
C80E49B0000000
C808A9B1FFFF10
C802EAB0222200
C800CFB0000000
C8006FB0000000
C8001EB0000000
ENDCHAR
STARTCHAR trademark
ENCODING 8482
SWIDTH 547 0
DWIDTH 9 0
BBX 8 4 0 8
BITMAP
3FF7C0B4
0462D2C4
04629B84
04627A64
ENDCHAR
STARTCHAR Omega
ENCODING 8486
SWIDTH 581 0
DWIDTH 9 0
BBX 9 12 0 0
BITMAP
003CEC4000
02EA48F400
0AD000BC00
0E80005F10
1F60003F30
2F50003F40
1F50003F40
0F60004F20
0C90007E00
06E100C800
04DB2AE410
1FFF4FFF30
ENDCHAR
STARTCHAR estimated
ENCODING 8494
SWIDTH 636 0
DWIDTH 10 0
BBX 9 9 1 0
BITMAP
007DEB3000
0AA215D200
5F20009B00
AF20009F00
CFFFFFFF20
AF20000000
5F20000000
0B92138200
008DEC6000
ENDCHAR
STARTCHAR oneeighth
ENCODING 8539
SWIDTH 666 0
DWIDTH 11 0
BBX 10 12 0 0
BITMAP
05B3000000
5BF3000000
00E3008400
00E302D000
00E30A6000
00E33C0000
0000B48ED4
0005B0E5A9
000D308FF3
006900E399
00A201F49B
0000007ED3
ENDCHAR
STARTCHAR threeeighths
ENCODING 8540
SWIDTH 736 0
DWIDTH 12 0
BBX 11 12 0 0
BITMAP
0AED40000000
141A90000000
00EF30057000
0009A00D3000
2B29A06A0000
09EC31D20000
00000788ED40
00001D1E6A90
00009707FF30
0002D00E48A0
0007501F48B0
00000007ED40
ENDCHAR
STARTCHAR fiveeighths
ENCODING 8541
SWIDTH 736 0
DWIDTH 12 0
BBX 11 12 0 0
BITMAP
0CFF60000000
0E2000000000
0FED30084000
041A902D1000
2A2A90960000
09EC23D00000
00000B58ED40
00004B0E5A90
0000C308FF30
0005A00E3990
0009201F49B0
00000007ED30
ENDCHAR
STARTCHAR seveneighths
ENCODING 8542
SWIDTH 692 0
DWIDTH 11 0
BBX 11 12 0 0
BITMAP
4FFFC0000000
000A70000000
002E10390000
008900B50000
01E304B00000
06C00C300000
00006A2DEA00
0000D26C3F10
0007801EFA00
001D107B2F20
0057008B2F30
0000002CE900
ENDCHAR
STARTCHAR partialdiff
ENCODING 8706
SWIDTH 497 0
DWIDTH 8 0
BBX 8 12 0 0
BITMAP
04DFC400
0465BF20
00001E90
000008E0
019ED8F1
08E54DF2
0E7004F3
1F4003F2
1F4004F1
0E7008C0
07E55E50
008EE700
ENDCHAR
STARTCHAR Delta
ENCODING 8710
SWIDTH 614 0
DWIDTH 10 0
BBX 10 12 0 0
BITMAP
0000CC0000
0002FF1000
0007DE6000
000C8AB000
002F45F100
007E01F500
00C900CA00
02F4007E00
07E0003F40
0D90000D90
3F74444BD0
8FFFFFFFF3
ENDCHAR
STARTCHAR product
ENCODING 8719
SWIDTH 614 0
DWIDTH 10 0
BBX 8 14 1 -2
BITMAP
BFFFFFF9
BB3333D9
BA0000C9
BA0000C9
BA0000C9
BA0000C9
BA0000C9
BA0000C9
BA0000C9
BA0000C9
BA0000C9
BA0000C9
BA0000C9
BA0000C9
ENDCHAR
STARTCHAR summation
ENCODING 8721
SWIDTH 513 0
DWIDTH 8 0
BBX 9 14 0 -2
BITMAP
6FFFFFF800
2F83333100
07E2000000
00BB000000
002E700000
0006E20000
0000BC0000
0000AC0000
0006F30000
002E700000
00BC000000
06E2000000
2E93333300
6FFFFFFF10
ENDCHAR
STARTCHAR minus
ENCODING 8722
SWIDTH 499 0
DWIDTH 8 0
BBX 6 2 1 4
BITMAP
BFFFFB
233332
ENDCHAR
STARTCHAR radical
ENCODING 8730
SWIDTH 536 0
DWIDTH 9 0
BBX 9 12 0 0
BITMAP
0000006F10
000000AB00
000000E600
000004F200
000009C000
00000D7000
6FE13F3000
14F57D0000
00BAC90000
006EF40000
001FE00000
000AA00000
ENDCHAR
STARTCHAR infinity
ENCODING 8734
SWIDTH 874 0
DWIDTH 14 0
BBX 14 9 0 0
BITMAP
007ED6007EE600
06E56E46E56F50
0E7007CD6009C0
2F3001FE0005F0
4F2000CB0004F2
2F3001FE0005F1
0E7007CD6009C0
07E56E46E56F50
007EE6007EE600
ENDCHAR
STARTCHAR integral
ENCODING 8747
SWIDTH 235 0
DWIDTH 4 0
BBX 6 15 -1 -3
BITMAP
001BE6
008E41
00AA00
00BA00
00BA00
00BA00
00BA00
00BA00
00BA00
00BA00
00BA00
00BA00
00BA00
14E700
3EB100
ENDCHAR
STARTCHAR approxequal
ENCODING 8776
SWIDTH 492 0
DWIDTH 8 0
BBX 7 6 0 2
BITMAP
1AEB4170
3A69FFC0
00002410
1AEB4170
3A69FFC0
00002410
ENDCHAR
STARTCHAR notequal
ENCODING 8800
SWIDTH 479 0
DWIDTH 8 0
BBX 6 8 1 1
BITMAP
0000A1
0004A0
DFFFFA
348A43
00C200
DFFFFA
3D4442
480000
ENDCHAR
STARTCHAR lessequal
ENCODING 8804
SWIDTH 445 0
DWIDTH 7 0
BBX 6 9 0 0
BITMAP
00004B
004CE8
3CE710
4FA300
029FB4
00029E
000001
133333
7FFFFF
ENDCHAR
STARTCHAR greaterequal
ENCODING 8805
SWIDTH 460 0
DWIDTH 7 0
BBX 6 9 1 0
BITMAP
B50000
7ED600
005CD5
0028E8
4AFA30
E92000
100000
333332
EFFFF8
ENDCHAR
STARTCHAR lozenge
ENCODING 9674
SWIDTH 442 0
DWIDTH 7 0
BBX 7 12 0 0
BITMAP
003F4000
00AFB000
01F6F200
08C0B900
0E605E10
6E100E70
6E100E70
0E605E10
07D0B900
01F6F200
009FB000
003F4000
ENDCHAR
STARTCHAR uniEE01
ENCODING 60929
SWIDTH 271 0
DWIDTH 4 0
BBX 3 9 1 1
BITMAP
4900
6D10
0000
0000
0000
0000
0000
4900
6D10
ENDCHAR
STARTCHAR uniEE02
ENCODING 60930
SWIDTH 298 0
DWIDTH 5 0
BBX 5 4 0 5
BITMAP
2D0F10
2D0F10
2D0F10
2D0F10
ENDCHAR
STARTCHAR uniF6C3
ENCODING 63171
SWIDTH 235 0
DWIDTH 4 0
BBX 3 3 0 -1
BITMAP
0C70
0E50
2B00
ENDCHAR
STARTCHAR uniFB01
ENCODING 64257
SWIDTH 489 0
DWIDTH 8 0
BBX 7 12 0 0
BITMAP
008EEA00
06F75700
08C00000
AFFF3BA0
19D20BA0
09C00BA0
09C00BA0
09C00BA0
09C00BA0
09C00BA0
09C00BA0
09C00BA0
ENDCHAR
STARTCHAR uniFB02
ENCODING 64258
SWIDTH 503 0
DWIDTH 8 0
BBX 7 12 0 0
BITMAP
007EFC80
03F84AD0
05F108D0
7FFF78D0
17F218D0
05F008D0
05F008D0
05F008D0
05F008D0
05F008D0
05F008D0
05F008D0
ENDCHAR
STARTCHAR uniFB03
ENCODING 64259
SWIDTH 744 0
DWIDTH 12 0
BBX 11 12 0 0
BITMAP
007ED08EEB00
03F834F75700
05F107D00000
7FFFFFFF4AB0
17F228D20AB0
05F008D00AB0
05F008D00AB0
05F008D00AB0
05F008D00AB0
05F008D00AB0
05F008D00AB0
05F008D00AB0
ENDCHAR
STARTCHAR uniFB04
ENCODING 64260
SWIDTH 744 0
DWIDTH 12 0
BBX 11 12 0 0
BITMAP
007ED09EEC70
03F835F64CB0
05F107D00AB0
7FFFFFFF5AB0
17F228D21AB0
05F008D00AB0
05F008D00AB0
05F008D00AB0
05F008D00AB0
05F008D00AB0
05F008D00AB0
05F008D00AB0
ENDCHAR
STARTCHAR uniFEFF
ENCODING 65279
SWIDTH 0 0
DWIDTH 0 0
BBX 1 1 0 0
BITMAP
00
ENDCHAR
STARTCHAR uniFFFC
ENCODING 65532
SWIDTH 1024 0
DWIDTH 16 0
BBX 16 15 0 -3
BITMAP
4FF2EF4CF6AF88FD
490000000000000D
490000000000000D
0000000000000000
490000000000000D
4909EC2FFC000B0D
002A177FFC000B00
492A177B0A381C0D
4909EC2FFC18E80D
0000000000000000
490000000000000D
490000000000000D
0000000000000000
490000000000000D
4FF2EF4CF6AF88FD
ENDCHAR
STARTCHAR uniFFFD
ENCODING 65533
SWIDTH 1025 0
DWIDTH 16 0
BBX 16 15 0 -2
BITMAP
00000005A0000000
0000005FFA000000
000005FFFFA00000
00005FFFFFFA0000
0005FFA216FFA000
005FFE02608FFA00
05FFFE9CF06FFFA0
1EFFFFFFA09FFFF7
05FFFFFB05FFFFA0
005FFFF51FFFFA00
0005FFFFFFFFA000
00005FF42FFA0000
000005FFFFA00000
0000005FFA000000
00000005A0000000
ENDCHAR
STARTCHAR .notdef
ENCODING -1
SWIDTH 392 0
DWIDTH 6 0
BBX 6 12 0 0
BITMAP
3FFFF7
360035
361045
334225
335505
333605
333605
335505
334225
361045
360035
3FFFF7
ENDCHAR
STARTCHAR glyph369
ENCODING -1
SWIDTH 364 0
DWIDTH 6 0
BBX 5 3 0 9
BITMAP
1F38D0
0E4C60
068A00
ENDCHAR
STARTCHAR uni2009.locl
ENCODING -1
SWIDTH 124 0
DWIDTH 2 0
BBX 1 1 0 0
BITMAP
00
ENDCHAR
STARTCHAR f_f.dlig
ENCODING -1
SWIDTH 546 0
DWIDTH 9 0
BBX 9 12 0 0
BITMAP
007ED1AE80
03F838E520
05F10AB000
7FFFFFFF20
17F22BB200
05F00AB000
05F00AB000
05F00AB000
05F00AB000
05F00AB000
05F00AB000
05F00AB000
ENDCHAR
STARTCHAR longs_t.dlig
ENCODING -1
SWIDTH 544 0
DWIDTH 9 0
BBX 8 12 0 0
BITMAP
008EEB50
03F73CB0
05F10AB0
7FF0EFFF
17F02AC2
05F00AB0
05F00AB0
05F00AB0
05F00AB0
05F00AB0
05F008E4
037002DE
ENDCHAR
STARTCHAR s_t.dlig
ENCODING -1
SWIDTH 710 0
DWIDTH 11 0
BBX 11 12 0 0
BITMAP
00001AEE8000
00008E56F400
00007B00E700
02BEEE3FFFC0
0BC48F42E810
0E700B40D700
0BD30000D700
01BFB300D700
0003BF30D700
2A200E70D700
0DB36F40CB30
03BED7005EA0
ENDCHAR
STARTCHAR two.dnom
ENCODING -1
SWIDTH 329 0
DWIDTH 5 0
BBX 5 6 0 0
BITMAP
0AEC10
5D1C60
001E40
00B900
0AA000
5FFFA0
ENDCHAR
STARTCHAR one.dnom
ENCODING -1
SWIDTH 329 0
DWIDTH 5 0
BBX 4 6 0 0
BITMAP
03A7
1CD7
00A7
00A7
00A7
00A7
ENDCHAR
STARTCHAR zero.dnom
ENCODING -1
SWIDTH 329 0
DWIDTH 5 0
BBX 5 6 0 0
BITMAP
09EB10
3E2B70
5D0990
5D0990
3E1B70
09EB10
ENDCHAR
STARTCHAR nine.c2sc
ENCODING -1
SWIDTH 447 0
DWIDTH 7 0
BBX 7 9 0 0
BITMAP
03CEB200
0DB4CC00
3F204F20
3F202F40
1EA3AF40
04DEAF20
00007E00
0038F600
01FC6000
ENDCHAR
STARTCHAR eight.c2sc
ENCODING -1
SWIDTH 447 0
DWIDTH 7 0
BBX 7 9 0 0
BITMAP
02BEC400
0CC4AE00
0F604F20
0CA18E00
02FFF400
0CA39E10
2F301F50
1EA38F20
04CFD500
ENDCHAR
STARTCHAR seven.c2sc
ENCODING -1
SWIDTH 447 0
DWIDTH 7 0
BBX 7 9 0 0
BITMAP
6FFFFF80
13334F40
00008C00
0001E600
0006E100
000D8000
004F2000
00BA0000
03F40000
ENDCHAR
STARTCHAR six.c2sc
ENCODING -1
SWIDTH 447 0
DWIDTH 7 0
BBX 7 9 0 0
BITMAP
004BE300
04F94100
0BA00000
0FADE600
1FC48F30
1F400E60
0F600E60
0AD48F20
01AED500
ENDCHAR
STARTCHAR five.c2sc
ENCODING -1
SWIDTH 447 0
DWIDTH 7 0
BBX 6 9 1 0
BITMAP
6FFFF2
7D4441
9A0000
ADED60
9B48F3
0000E7
6200E7
BB48F3
2BED60
ENDCHAR
STARTCHAR four.c2sc
ENCODING -1
SWIDTH 447 0
DWIDTH 7 0
BBX 7 9 0 0
BITMAP
0002F900
000BF900
005EC900
00D6C900
08C0C900
2E30C900
8FFFFFB0
1333CA20
0000C900
ENDCHAR
STARTCHAR three.c2sc
ENCODING -1
SWIDTH 447 0
DWIDTH 7 0
BBX 7 9 0 0
BITMAP
04CEC300
1E93AD00
27104F10
00019D00
008FF500
00139E10
28102F30
2F839E10
05DEC400
ENDCHAR
STARTCHAR two.c2sc
ENCODING -1
SWIDTH 447 0
DWIDTH 7 0
BBX 7 9 0 0
BITMAP
03CEC400
1EA3AE10
4E103F30
00006F10
0002E700
001DB000
01CB1000
0BD43320
3FFFFF90
ENDCHAR
STARTCHAR one.c2sc
ENCODING -1
SWIDTH 447 0
DWIDTH 7 0
BBX 4 9 1 0
BITMAP
26B9
DCEA
10BA
00BA
00BA
00BA
00BA
00BA
00BA
ENDCHAR
STARTCHAR zero.c2sc
ENCODING -1
SWIDTH 447 0
DWIDTH 7 0
BBX 7 9 0 0
BITMAP
01BEC300
0BC4AD00
1F502F30
2F300F50
3F300F60
3F301F50
1F502F30
0BC4AD00
02BEC300
ENDCHAR
STARTCHAR Z.c2sc
ENCODING -1
SWIDTH 454 0
DWIDTH 7 0
BBX 7 9 0 0
BITMAP
5FFFFF80
13337F30
0001D900
0008D100
003F5000
00CA0000
06E20000
2E933320
6FFFFFA0
ENDCHAR
STARTCHAR Y.c2sc
ENCODING -1
SWIDTH 458 0
DWIDTH 7 0
BBX 7 9 0 0
BITMAP
8E100AD0
1F702F60
09D08D00
02F6E700
00AFE100
003F7000
001F5000
001F5000
001F5000
ENDCHAR
STARTCHAR X.c2sc
ENCODING -1
SWIDTH 478 0
DWIDTH 8 0
BBX 8 9 0 0
BITMAP
4F500BD0
0AD03F50
02F6BB00
008EF300
002FC000
009EF400
03F5AC00
0BC03F60
5F4009E1
ENDCHAR
STARTCHAR W.c2sc
ENCODING -1
SWIDTH 655 0
DWIDTH 10 0
BBX 11 9 0 0
BITMAP
6E006F105F10
3F20AF408C00
0F40DC70B900
0C71E6B0D600
09A5B2E1F200
05D870D6E000
02FC40ACB000
00EF106F8000
00BC003F5000
ENDCHAR
STARTCHAR V.c2sc
ENCODING -1
SWIDTH 487 0
DWIDTH 8 0
BBX 8 9 0 0
BITMAP
8E0002F5
3F3006F1
0D700AB0
08C00E60
03F14F10
00D69B00
008AD600
003EF100
000DB000
ENDCHAR
STARTCHAR U.c2sc
ENCODING -1
SWIDTH 488 0
DWIDTH 8 0
BBX 7 9 0 0
BITMAP
2F4006F0
2F4006F0
2F4006F0
2F4006F0
2F4006F0
2F4006F0
1F5007D0
0BC45E80
01AEE910
ENDCHAR
STARTCHAR T.c2sc
ENCODING -1
SWIDTH 456 0
DWIDTH 7 0
BBX 7 9 0 0
BITMAP
9FFFFFD0
234F7330
001F5000
001F5000
001F5000
001F5000
001F5000
001F5000
001F5000
ENDCHAR
STARTCHAR S.c2sc
ENCODING -1
SWIDTH 453 0
DWIDTH 7 0
BBX 7 9 0 0
BITMAP
03BED600
0EA36F50
2F400970
0DD61000
02AFE800
00017F60
5D100BA0
2E935E70
03CFE800
ENDCHAR
STARTCHAR R.c2sc
ENCODING -1
SWIDTH 465 0
DWIDTH 7 0
BBX 7 9 1 0
BITMAP
FFFE9100
F835E800
F6009C00
F602D900
FFFFC100
F83D9000
F606F100
F601E800
F6008E10
ENDCHAR
STARTCHAR Q.c2sc
ENCODING -1
SWIDTH 519 0
DWIDTH 8 0
BBX 8 11 0 -2
BITMAP
008EEA10
08E65DB0
1E6003F3
3F3000E6
4F1000D7
3F3000E7
1E6003F4
08E64CC0
008EFF60
000007F4
00000030
ENDCHAR
STARTCHAR P.c2sc
ENCODING -1
SWIDTH 481 0
DWIDTH 8 0
BBX 7 9 1 0
BITMAP
FFFEB200
F834CD00
F6004F20
F6019E00
FFFFE500
F8320000
F6000000
F6000000
F6000000
ENDCHAR
STARTCHAR O.c2sc
ENCODING -1
SWIDTH 519 0
DWIDTH 8 0
BBX 8 9 0 0
BITMAP
007EEA10
08E65CC0
0E7002F4
3F3000E6
3F2000D8
2F3000E7
0E7002F4
07E64CC0
008EEB20
ENDCHAR
STARTCHAR N.c2sc
ENCODING -1
SWIDTH 533 0
DWIDTH 9 0
BBX 7 9 1 0
BITMAP
FA000D80
FF300D80
FDC00D80
F7D50D80
F65D0D80
F60C6D80
F604EE80
F600BF80
F6002F80
ENDCHAR
STARTCHAR M.c2sc
ENCODING -1
SWIDTH 652 0
DWIDTH 10 0
BBX 9 9 1 0
BITMAP
FE00008F60
FF5000DF60
FDA003ED60
F8E109AD60
F5D50E5E60
F68A4E0E60
F63FA90E60
F60CF40E60
F607D00E60
ENDCHAR
STARTCHAR L.c2sc
ENCODING -1
SWIDTH 411 0
DWIDTH 7 0
BBX 6 9 1 0
BITMAP
F60000
F60000
F60000
F60000
F60000
F60000
F60000
F83330
FFFFF3
ENDCHAR
STARTCHAR K.c2sc
ENCODING -1
SWIDTH 473 0
DWIDTH 8 0
BBX 7 9 1 0
BITMAP
F600BD10
F608F300
F65F6000
F8E90000
FFF80000
FD7F3000
F60BD000
F602F800
F6007F30
ENDCHAR
STARTCHAR J.c2sc
ENCODING -1
SWIDTH 419 0
DWIDTH 7 0
BBX 6 9 0 0
BITMAP
0000AC
0000AC
0000AC
0000AC
0000AC
0000AC
6900AB
5F64E7
08EE90
ENDCHAR
STARTCHAR I.c2sc
ENCODING -1
SWIDTH 221 0
DWIDTH 4 0
BBX 2 9 1 0
BITMAP
E7
E7
E7
E7
E7
E7
E7
E7
E7
ENDCHAR
STARTCHAR H.c2sc
ENCODING -1
SWIDTH 533 0
DWIDTH 9 0
BBX 7 9 1 0
BITMAP
F6000D80
F6000D80
F6000D80
FFFFFF80
F8333D80
F6000D80
F6000D80
F6000D80
F6000D80
ENDCHAR
STARTCHAR G.c2sc
ENCODING -1
SWIDTH 509 0
DWIDTH 8 0
BBX 8 9 0 0
BITMAP
009EEB20
08E54CC0
1F6003C2
2F300000
4F20DFF4
2F3023F4
0E7002F4
07E638F3
008EFC50
ENDCHAR
STARTCHAR F.c2sc
ENCODING -1
SWIDTH 415 0
DWIDTH 7 0
BBX 6 9 1 0
BITMAP
FFFFF3
F83331
F60000
F60000
FFFFA0
F83320
F60000
F60000
F60000
ENDCHAR
STARTCHAR dollar.c2sc
ENCODING -1
SWIDTH 453 0
DWIDTH 7 0
BBX 7 13 0 -2
BITMAP
00083000
000C5000
03CFE700
0EA36F50
2F400970
0DD51000
02AFE800
00017F60
4C000BA0
2E934E70
03CFE900
000C5000
00094000
ENDCHAR
STARTCHAR sterling.c2sc
ENCODING -1
SWIDTH 467 0
DWIDTH 7 0
BBX 7 9 0 0
BITMAP
007EE800
03F76F50
07D00A60
08D00000
8FFFF700
08D00000
08C00000
0CB33320
1FFFFFD0
ENDCHAR
STARTCHAR yen.c2sc
ENCODING -1
SWIDTH 400 0
DWIDTH 6 0
BBX 6 9 0 0
BITMAP
8D007E
1E40C7
0993E1
02E970
4FFFF9
008D00
4FFFF9
008D00
008D00
ENDCHAR
STARTCHAR Gamma.c2sc
ENCODING -1
SWIDTH 405 0
DWIDTH 7 0
BBX 6 9 1 0
BITMAP
FFFFF1
F83330
F60000
F60000
F60000
F60000
F60000
F60000
F60000
ENDCHAR
STARTCHAR Delta.c2sc
ENCODING -1
SWIDTH 487 0
DWIDTH 8 0
BBX 8 9 0 0
BITMAP
000DB000
003EF100
008AD600
00D69B00
03F14F10
08C00E60
0D700AB0
3F6338F1
8FFFFFF5
ENDCHAR
STARTCHAR Theta.c2sc
ENCODING -1
SWIDTH 519 0
DWIDTH 8 0
BBX 8 9 0 0
BITMAP
007EEA10
08E65CC0
0E7002F4
3F3000E6
3F7FFBD8
2F4332E7
0E7002F4
07E64CC0
008EEB20
ENDCHAR
STARTCHAR Lambda.c2sc
ENCODING -1
SWIDTH 487 0
DWIDTH 8 0
BBX 8 9 0 0
BITMAP
000DB000
003EF100
008AD600
00D69B00
03F14F10
08C00E60
0D700AB0
3F3006F1
8E0002F5
ENDCHAR
STARTCHAR Xi.c2sc
ENCODING -1
SWIDTH 389 0
DWIDTH 6 0
BBX 6 9 0 0
BITMAP
7FFFFA
133332
000000
000000
1FFFF4
033331
000000
133332
7FFFFA
ENDCHAR
STARTCHAR Pi.c2sc
ENCODING -1
SWIDTH 525 0
DWIDTH 8 0
BBX 7 9 1 0
BITMAP
FFFFFF60
F8333F60
F6000F60
F6000F60
F6000F60
F6000F60
F6000F60
F6000F60
F6000F60
ENDCHAR
STARTCHAR Sigma.c2sc
ENCODING -1
SWIDTH 435 0
DWIDTH 7 0
BBX 7 9 0 0
BITMAP
6FFFFF30
3F933310
08E20000
01DB0000
007F4000
01DB0000
08E20000
3F933320
6FFFFF80
ENDCHAR
STARTCHAR Phi.c2sc
ENCODING -1
SWIDTH 587 0
DWIDTH 9 0
BBX 9 9 0 0
BITMAP
0000F60000
008DFEB200
09D5F9AE10
1F50F60E70
3F30F60C90
1F40F60D80
0BC2F77F20
02BFFFE500
0001F70000
ENDCHAR
STARTCHAR Psi.c2sc
ENCODING -1
SWIDTH 560 0
DWIDTH 9 0
BBX 9 9 0 0
BITMAP
4F23F33F30
4F23F33F30
3F23F33F30
2F33F34F10
0E63F37E00
08D6F6E700
00AFFF9000
0004F30000
0003F30000
ENDCHAR
STARTCHAR Omega.c2sc
ENCODING -1
SWIDTH 540 0
DWIDTH 9 0
BBX 8 9 0 0
BITMAP
007DFC30
06F74AE1
0D8000D8
1F5000AA
1F40009B
0F6000BA
0BA000E6
06F71AD3
1FFF4FFC
ENDCHAR
STARTCHAR uni0402.c2sc
ENCODING -1
SWIDTH 596 0
DWIDTH 10 0
BBX 9 9 0 0
BITMAP
9FFFFF6000
237F431000
004F100000
004FCEEA10
004F744D90
004F1008D0
004F1008D0
004F104D90
004F12EA10
ENDCHAR
STARTCHAR uni0404.c2sc
ENCODING -1
SWIDTH 490 0
DWIDTH 8 0
BBX 8 9 0 0
BITMAP
008EEA20
08E54CC0
1E6004F2
3F300000
4FFFE000
2F533000
1E6003E2
08D54CC0
009EEA20
ENDCHAR
STARTCHAR uni0409.c2sc
ENCODING -1
SWIDTH 782 0
DWIDTH 13 0
BBX 12 9 0 0
BITMAP
00EFFFF50000
00F834F50000
00F501F50000
01F501FFFE91
01F401F735E8
02F301F5008D
04F101F5008D
3BC001F735E8
8D3001FFFE91
ENDCHAR
STARTCHAR uni040A.c2sc
ENCODING -1
SWIDTH 788 0
DWIDTH 13 0
BBX 11 9 1 0
BITMAP
F6000F600000
F6000F600000
F6000F600000
FFFFFFFFEA10
F8333F834D90
F6000F6007E0
F6000F6007E0
F6000F834D90
F6000FFFEA10
ENDCHAR
STARTCHAR uni040B.c2sc
ENCODING -1
SWIDTH 596 0
DWIDTH 10 0
BBX 9 9 0 0
BITMAP
9FFFFF6000
237F431000
005F100000
005FCEE910
005F744E80
005F1008C0
005F1007E0
005F1007E0
005F1007E0
ENDCHAR
STARTCHAR uni040F.c2sc
ENCODING -1
SWIDTH 524 0
DWIDTH 8 0
BBX 7 12 1 -3
BITMAP
F6000F60
F6000F60
F6000F60
F6000F60
F6000F60
F6000F60
F6000F60
F8333F60
FFFFFF60
007E0000
007E0000
007E0000
ENDCHAR
STARTCHAR uni0411.c2sc
ENCODING -1
SWIDTH 479 0
DWIDTH 8 0
BBX 6 9 1 0
BITMAP
FFFFF4
F83331
F60000
FFFEA1
F834DA
F6007E
F6007E
F834D9
FFFEA1
ENDCHAR
STARTCHAR uni0414.c2sc
ENCODING -1
SWIDTH 563 0
DWIDTH 9 0
BBX 9 12 0 -3
BITMAP
00AFFFF800
00BB33D800
00B900C800
00B900C800
00C800C800
00E600C800
04F200C800
2BC333DA10
8FFFFFFF80
8C00000D80
8C00000D80
8C00000D80
ENDCHAR
STARTCHAR uni0416.c2sc
ENCODING -1
SWIDTH 651 0
DWIDTH 10 0
BBX 10 9 0 0
BITMAP
3F607E01E9
0BD07E07F2
03F57E0D90
00AC7E6F20
005FFFFB00
00BC9E7F30
05F57E0DB0
0DC07E06F4
6F507E00DC
ENDCHAR
STARTCHAR uni0417.c2sc
ENCODING -1
SWIDTH 466 0
DWIDTH 7 0
BBX 7 9 0 0
BITMAP
04CED600
1E948F40
16100E70
00004F30
005FF800
00136F40
38000C90
2F936F60
05DFD700
ENDCHAR
STARTCHAR uni0418.c2sc
ENCODING -1
SWIDTH 537 0
DWIDTH 9 0
BBX 7 9 1 0
BITMAP
F6002F80
F600AF80
F604FE80
F60C8C80
F66E1C80
F7E60C80
FEC00C80
FF400C80
FA000C80
ENDCHAR
STARTCHAR uni041A.c2sc
ENCODING -1
SWIDTH 473 0
DWIDTH 8 0
BBX 6 9 1 0
BITMAP
F601DA
F608E1
F62F50
F6BA00
FFF300
F8CB00
F63F70
F608F3
F600DC
ENDCHAR
STARTCHAR uni041B.c2sc
ENCODING -1
SWIDTH 521 0
DWIDTH 8 0
BBX 8 9 0 0
BITMAP
00EFFFF5
00F834F5
00F501F5
01F501F5
01F401F5
02F301F5
04F101F5
3CC001F5
9D3001F5
ENDCHAR
STARTCHAR uni0423.c2sc
ENCODING -1
SWIDTH 454 0
DWIDTH 7 0
BBX 7 9 0 0
BITMAP
6F200BC0
1F701F60
0AC06F10
05F1BA00
00E7F400
009FD000
003F8000
026F2000
08E70000
ENDCHAR
STARTCHAR uni0426.c2sc
ENCODING -1
SWIDTH 564 0
DWIDTH 9 0
BBX 8 12 1 -3
BITMAP
F6000F60
F6000F60
F6000F60
F6000F60
F6000F60
F6000F60
F6000F60
F8333F82
FFFFFFF8
000000C8
000000C7
000000C7
ENDCHAR
STARTCHAR uni0427.c2sc
ENCODING -1
SWIDTH 487 0
DWIDTH 8 0
BBX 7 9 0 0
BITMAP
7E0009C0
7E0009C0
7E0009C0
6F0009C0
2F602BC0
07FFFEC0
001219C0
000009C0
000009C0
ENDCHAR
STARTCHAR uni0428.c2sc
ENCODING -1
SWIDTH 691 0
DWIDTH 11 0
BBX 10 9 1 0
BITMAP
F602F405F1
F602F405F1
F602F405F1
F602F405F1
F602F405F1
F602F405F1
F602F405F1
F835F637F1
FFFFFFFFF1
ENDCHAR
STARTCHAR uni0429.c2sc
ENCODING -1
SWIDTH 731 0
DWIDTH 12 0
BBX 11 12 1 -3
BITMAP
F602F405F100
F602F405F100
F602F405F100
F602F405F100
F602F405F100
F602F405F100
F602F405F100
F835F637F310
FFFFFFFFFF30
000000002F30
000000002F20
000000002F20
ENDCHAR
STARTCHAR uni042A.c2sc
ENCODING -1
SWIDTH 559 0
DWIDTH 9 0
BBX 9 9 0 0
BITMAP
CFFB000000
23BB000000
00AB000000
00AFFFC300
00AC33AE10
00AB002F40
00AB002F40
00AC33AE10
00AFFFC300
ENDCHAR
STARTCHAR uni042B.c2sc
ENCODING -1
SWIDTH 658 0
DWIDTH 11 0
BBX 9 9 1 0
BITMAP
F600000D80
F600000D80
F600000D80
FFFEA10D80
F834DA0D80
F6007E0D80
F6007E0D80
F834D90D80
FFFEA10D80
ENDCHAR
STARTCHAR uni042C.c2sc
ENCODING -1
SWIDTH 475 0
DWIDTH 8 0
BBX 6 9 1 0
BITMAP
F60000
F60000
F60000
FFFEA1
F834DA
F6007E
F6007E
F834D9
FFFEA1
ENDCHAR
STARTCHAR uni042D.c2sc
ENCODING -1
SWIDTH 491 0
DWIDTH 8 0
BBX 8 9 0 0
BITMAP
03BED700
1DA46F60
4F2009D0
000005F0
001FFFF1
000337F0
4E1008D0
1DA46E60
03BEE700
ENDCHAR
STARTCHAR uni042E.c2sc
ENCODING -1
SWIDTH 705 0
DWIDTH 11 0
BBX 10 9 1 0
BITMAP
F6008EEA10
F607E65CB0
F60E7003F3
F62F3000E6
FFFF2000D8
F85F3000E6
F60F7003F4
F608E64CC0
F6008EEA10
ENDCHAR
STARTCHAR uni042F.c2sc
ENCODING -1
SWIDTH 499 0
DWIDTH 8 0
BBX 7 9 0 0
BITMAP
02BEFFE0
0AD438E0
0E7006E0
0BB106E0
02CFFFE0
00BB38E0
03F406E0
09C006E0
2F5006E0
ENDCHAR
STARTCHAR uni0492.c2sc
ENCODING -1
SWIDTH 444 0
DWIDTH 7 0
BBX 7 9 0 0
BITMAP
05FFFFB0
05F33320
05F00000
05F00000
CFFF7000
27F31000
05F00000
05F00000
05F00000
ENDCHAR
STARTCHAR uni0496.c2sc
ENCODING -1
SWIDTH 676 0
DWIDTH 11 0
BBX 11 12 0 -3
BITMAP
3F607E01E900
0BD07E07F200
03F57E0D9000
00AC7E6F2000
005FFFFB0000
00BC9E7F3000
05F57E0DB000
0DC07E06F610
6F507E00DF80
000000000B80
000000000B80
000000000750
ENDCHAR
STARTCHAR uni049A.c2sc
ENCODING -1
SWIDTH 492 0
DWIDTH 8 0
BBX 7 12 1 -3
BITMAP
F601DA00
F608E100
F62F5000
F6BA0000
FFF30000
F8CB0000
F63F7000
F608F410
F600DF70
00000C70
00000C70
00000C70
ENDCHAR
STARTCHAR uni049C.c2sc
ENCODING -1
SWIDTH 562 0
DWIDTH 9 0
BBX 8 9 1 0
BITMAP
F60007F2
F6002E70
F7C0BC00
F7F5E200
FFFF9000
F9F7F300
F7C0BD10
F6002F90
F60007F4
ENDCHAR
STARTCHAR uni04A0.c2sc
ENCODING -1
SWIDTH 571 0
DWIDTH 9 0
BBX 9 9 0 0
BITMAP
8FFF005F40
238F01E900
006F09D100
006F3F4000
006FFC0000
006F6F5000
006F09E100
006F01EB00
006F005F60
ENDCHAR
STARTCHAR uni04A8.c2sc
ENCODING -1
SWIDTH 625 0
DWIDTH 10 0
BBX 10 9 0 0
BITMAP
01AB2BEA10
09D4BC5D80
1F60F508D0
2F32F306E0
3F22F406F0
2F40E507D0
0D909B0CA0
06F85EBF30
005CFFFFD3
ENDCHAR
STARTCHAR uni04B0.c2sc
ENCODING -1
SWIDTH 480 0
DWIDTH 8 0
BBX 7 9 0 0
BITMAP
8E100AD0
1F702F60
09D08D00
02F6E700
00AFE100
07FFFB00
014F8200
001F5000
001F5000
ENDCHAR
STARTCHAR uni04B2.c2sc
ENCODING -1
SWIDTH 514 0
DWIDTH 8 0
BBX 8 12 0 -3
BITMAP
4F500BD0
0AD03F50
02F6BB00
008EF300
002FC000
009EF400
03F5AC00
0BC03F72
5F4009FC
0000007C
0000007C
0000007C
ENDCHAR
STARTCHAR uni04B4.c2sc
ENCODING -1
SWIDTH 695 0
DWIDTH 11 0
BBX 11 12 0 -3
BITMAP
9FFFFF65F100
237F4315F100
004F1005F100
004F1005F100
004F1005F100
004F1005F100
004F1005F100
004F4337F410
004FFFFFFF40
000000001F30
000000001F30
000000001F20
ENDCHAR
STARTCHAR uni04B8.c2sc
ENCODING -1
SWIDTH 487 0
DWIDTH 8 0
BBX 7 9 0 0
BITMAP
7E0009C0
7E0009C0
7E0009C0
6F0B39C0
2F6D5BC0
07FFFEC0
001E49C0
000A29C0
000009C0
ENDCHAR
STARTCHAR uni04BA.c2sc
ENCODING -1
SWIDTH 487 0
DWIDTH 8 0
BBX 7 9 1 0
BITMAP
F6000000
F6000000
F6000000
FDEEC300
FB43BD00
F6003F20
F6002F40
F6002F40
F6002F40
ENDCHAR
STARTCHAR uni04BC.c2sc
ENCODING -1
SWIDTH 632 0
DWIDTH 10 0
BBX 10 9 0 0
BITMAP
0001AEEA10
000BD55DA0
944F3004F2
9A8E0001F4
2DFFFFFFF5
008E333331
005F200000
000CD65930
00019EEC30
ENDCHAR
STARTCHAR uni04D8.c2sc
ENCODING -1
SWIDTH 527 0
DWIDTH 8 0
BBX 8 9 0 0
BITMAP
02BEEA20
01956CD0
000001E6
000000C9
3FFFFFFA
2F5333C9
0F5001E6
09E54BD1
019EEB20
ENDCHAR
STARTCHAR uni04E0.c2sc
ENCODING -1
SWIDTH 466 0
DWIDTH 7 0
BBX 7 9 0 0
BITMAP
2FFFFF50
0334DB00
001BB000
004FB400
00159F30
00000D80
39000D80
2F937F40
05DFD500
ENDCHAR
STARTCHAR uni04E8.c2sc
ENCODING -1
SWIDTH 519 0
DWIDTH 8 0
BBX 8 9 0 0
BITMAP
007EEA10
08E65CC0
0E7002F4
3F3000E6
3FFFFFF8
2F5333E7
0E6002F4
07E64CC0
008EEB20
ENDCHAR
STARTCHAR lira.c2sc
ENCODING -1
SWIDTH 467 0
DWIDTH 7 0
BBX 7 9 0 0
BITMAP
006DE700
02F77F40
07E00D80
08D00110
8FFFF700
08D00000
8FFFF700
0BB33320
1FFFFFD0
ENDCHAR
STARTCHAR Euro.c2sc
ENCODING -1
SWIDTH 433 0
DWIDTH 7 0
BBX 7 9 0 0
BITMAP
003BEE30
01DB4510
04F20000
6FFFF900
06F00000
6FFFF900
04F20000
01DB4510
003BED30
ENDCHAR
STARTCHAR uni2116.c2sc
ENCODING -1
SWIDTH 884 0
DWIDTH 14 0
BBX 13 9 1 0
BITMAP
FA000D806ED400
FF300D82F47E00
FDC00D85D01F20
F7D50D85D01F30
F65D0D82F46E00
F60C6D807ED400
F604EE80000000
F600BF80EFFB00
F6002F80222100
ENDCHAR
STARTCHAR uni20BD.c2sc
ENCODING -1
SWIDTH 512 0
DWIDTH 8 0
BBX 8 9 0 0
BITMAP
05FFFD70
05F436F6
05F100C9
05F103E7
9FFFFFA0
27F43100
9FFFA000
27F42000
05F10000
ENDCHAR
STARTCHAR three.dnom
ENCODING -1
SWIDTH 329 0
DWIDTH 5 0
BBX 5 6 0 0
BITMAP
1CFC20
241D60
02FD10
001C60
491C70
1BEB10
ENDCHAR
STARTCHAR four.dnom
ENCODING -1
SWIDTH 329 0
DWIDTH 5 0
BBX 5 6 0 0
BITMAP
005F20
01DF20
088F20
2D1F20
7FFFC0
001F20
ENDCHAR
STARTCHAR five.dnom
ENCODING -1
SWIDTH 329 0
DWIDTH 5 0
BBX 5 6 0 0
BITMAP
0DFF50
0F2000
1FED20
041B90
2A1B80
09EC20
ENDCHAR
STARTCHAR six.dnom
ENCODING -1
SWIDTH 329 0
DWIDTH 5 0
BBX 5 6 0 0
BITMAP
03BC00
0D6100
3FDD30
4E1A90
2E2A90
08EC20
ENDCHAR
STARTCHAR seven.dnom
ENCODING -1
SWIDTH 329 0
DWIDTH 5 0
BBX 5 6 0 0
BITMAP
7FFF90
000C50
004D00
00B700
02E100
099000
ENDCHAR
STARTCHAR eight.dnom
ENCODING -1
SWIDTH 329 0
DWIDTH 5 0
BBX 5 6 0 0
BITMAP
0AFC20
2F3D60
0BFE10
3E1B60
4E2B80
0AEC20
ENDCHAR
STARTCHAR nine.dnom
ENCODING -1
SWIDTH 329 0
DWIDTH 5 0
BBX 5 6 0 0
BITMAP
09EB10
4E1C60
4E1B80
0BEE70
003E30
07D600
ENDCHAR
STARTCHAR glyph550
ENCODING -1
SWIDTH 404 0
DWIDTH 6 0
BBX 5 2 1 4
BITMAP
DFFF60
233310
ENDCHAR
STARTCHAR glyph551
ENCODING -1
SWIDTH 306 0
DWIDTH 5 0
BBX 4 4 1 9
BITMAP
0881
7E20
A560
7E20
ENDCHAR
STARTCHAR E.c2sc
ENCODING -1
SWIDTH 428 0
DWIDTH 7 0
BBX 6 9 1 0
BITMAP
FFFFF5
F83331
F60000
F60000
FFFFC0
F83320
F60000
F83331
FFFFF5
ENDCHAR
STARTCHAR g.ss01
ENCODING -1
SWIDTH 463 0
DWIDTH 7 0
BBX 8 12 0 -3
BITMAP
03CFFFF1
1DB49F50
3F201F60
4F201F50
0DB4AE10
06EEC300
0D600000
0CFFEC30
4E333BC0
AB0007E0
8E637E80
08DFD700
ENDCHAR
STARTCHAR alpha.ss02
ENCODING -1
SWIDTH 523 0
DWIDTH 8 0
BBX 8 9 0 0
BITMAP
01AEC2D6
08E57CE4
0E800BF1
2F4007E0
3F3005C0
2F3007E0
0F600CF2
09E57CE4
01BFC2C7
ENDCHAR
STARTCHAR R.ss03
ENCODING -1
SWIDTH 577 0
DWIDTH 9 0
BBX 8 12 1 0
BITMAP
BFFFD800
BC446E80
BB0008E0
BB0006F0
BB0007E0
BB003D80
BFFFFD10
BC446E90
BB0009E0
BB0007F0
BB0006F0
BB0004F4
ENDCHAR
STARTCHAR K.ss04
ENCODING -1
SWIDTH 560 0
DWIDTH 9 0
BBX 8 12 1 0
BITMAP
BB0007F4
BB001EB0
BB009F20
BB03F800
BB0BD100
BD8F5000
BFDF4000
BB0CD100
BB03F800
BB008F30
BB000DD0
BB0003F8
ENDCHAR
STARTCHAR k.ss04
ENCODING -1
SWIDTH 453 0
DWIDTH 7 0
BBX 6 12 1 0
BITMAP
E70000
E70000
E70000
E702F8
E708E1
E71E70
E77D00
EFF800
E99E10
E71E90
E706F3
E700CC
ENDCHAR
STARTCHAR K.ss05
ENCODING -1
SWIDTH 572 0
DWIDTH 9 0
BBX 8 12 1 0
BITMAP
BB000BE2
BB007F50
BB03F900
BB1DD100
BB9F3000
BEF70000
BDF90000
BB7F5000
BB0AE200
BB01DC00
BB003F80
BB0007F5
ENDCHAR
STARTCHAR k.ss05
ENCODING -1
SWIDTH 454 0
DWIDTH 7 0
BBX 6 12 1 0
BITMAP
E70000
E70000
E70000
E706F4
E71E80
E7AC00
EBE200
EFD000
EBF800
E78F40
E70CD1
E702E9
ENDCHAR
STARTCHAR D.c2sc
ENCODING -1
SWIDTH 492 0
DWIDTH 8 0
BBX 7 9 1 0
BITMAP
FFFC5000
F848F500
F6009C00
F6005F10
F6004F20
F6005F10
F6009C00
F838F500
FFFC5000
ENDCHAR
STARTCHAR C.c2sc
ENCODING -1
SWIDTH 490 0
DWIDTH 8 0
BBX 8 9 0 0
BITMAP
008EEA10
08E54CB0
1E6004F2
3F300020
4F200000
2F300010
1E6004F2
08E54CB0
009EEA10
ENDCHAR
STARTCHAR B.c2sc
ENCODING -1
SWIDTH 475 0
DWIDTH 8 0
BBX 6 9 1 0
BITMAP
FFFE80
F836F6
F600C9
F603E6
FFFFC0
F723D8
F6009C
F834D9
FFFEA1
ENDCHAR
STARTCHAR A.c2sc
ENCODING -1
SWIDTH 501 0
DWIDTH 8 0
BBX 8 9 0 0
BITMAP
000BC000
002FF200
007DC800
00C87D00
02F43F30
07E00D80
0DFFFFD0
3F6335F3
8D0000D9
ENDCHAR
STARTCHAR glyph564
ENCODING -1
SWIDTH 236 0
DWIDTH 4 0
BBX 2 3 1 9
BITMAP
3B
AA
C9
ENDCHAR
STARTCHAR glyph565
ENCODING -1
SWIDTH 402 0
DWIDTH 6 0
BBX 4 4 1 10
BITMAP
1E10
0740
E55E
5EE5
ENDCHAR
STARTCHAR glyph566
ENCODING -1
SWIDTH 0 0
DWIDTH 0 0
BBX 5 4 -6 9
BITMAP
009800
01D100
3E7A10
76CB00
ENDCHAR
STARTCHAR glyph567
ENCODING -1
SWIDTH 455 0
DWIDTH 7 0
BBX 7 3 1 10
BITMAP
00001E70
1AE95B00
9B2C7000
ENDCHAR
STARTCHAR glyph568
ENCODING -1
SWIDTH 454 0
DWIDTH 7 0
BBX 7 3 -1 10
BITMAP
AB000000
1C3BE800
00AA2D60
ENDCHAR
STARTCHAR glyph569
ENCODING -1
SWIDTH 446 0
DWIDTH 7 0
BBX 6 4 1 10
BITMAP
0000A7
00004C
2CD9C3
A81B60
ENDCHAR
STARTCHAR glyph570
ENCODING -1
SWIDTH 453 0
DWIDTH 7 0
BBX 5 5 1 10
BITMAP
2D5900
54B900
000000
1BE700
A81C60
ENDCHAR
STARTCHAR uni0490.c2sc
ENCODING -1
SWIDTH 405 0
DWIDTH 7 0
BBX 6 12 1 0
BITMAP
000261
0004F1
0004F1
FFFFF1
F83330
F60000
F60000
F60000
F60000
F60000
F60000
F60000
ENDCHAR
STARTCHAR glyph572
ENCODING -1
SWIDTH 404 0
DWIDTH 6 0
BBX 4 4 1 10
BITMAP
00D3
0390
E55E
5EE5
ENDCHAR
STARTCHAR glyph573
ENCODING -1
SWIDTH 404 0
DWIDTH 6 0
BBX 4 5 1 10
BITMAP
06B2
02C5
0790
E46C
5ED4
ENDCHAR
STARTCHAR zero.numr
ENCODING -1
SWIDTH 329 0
DWIDTH 5 0
BBX 5 6 0 6
BITMAP
09EB10
3E2B70
5D0990
5D0990
3E1B70
09EB10
ENDCHAR
STARTCHAR four.numr
ENCODING -1
SWIDTH 329 0
DWIDTH 5 0
BBX 5 6 0 6
BITMAP
005F20
01DF20
088F20
2D1F20
7FFFC0
001F20
ENDCHAR
STARTCHAR five.numr
ENCODING -1
SWIDTH 329 0
DWIDTH 5 0
BBX 5 6 0 6
BITMAP
0DFF50
0F2000
1FED20
041B90
2A1B80
09EC20
ENDCHAR
STARTCHAR six.numr
ENCODING -1
SWIDTH 329 0
DWIDTH 5 0
BBX 5 6 0 6
BITMAP
03BC00
0D6100
3FDD30
4E1A90
2E2A90
08EC20
ENDCHAR
STARTCHAR seven.numr
ENCODING -1
SWIDTH 329 0
DWIDTH 5 0
BBX 5 6 0 6
BITMAP
7FFF90
000C50
004D00
00B700
02E100
099000
ENDCHAR
STARTCHAR eight.numr
ENCODING -1
SWIDTH 329 0
DWIDTH 5 0
BBX 5 6 0 6
BITMAP
0AFC20
2F3D60
0BFE10
3E1B60
4E2B80
0AEC20
ENDCHAR
STARTCHAR nine.numr
ENCODING -1
SWIDTH 329 0
DWIDTH 5 0
BBX 5 6 0 6
BITMAP
09EB10
4E1C60
4E1B80
0BEE70
003E30
07D600
ENDCHAR
STARTCHAR C.ss06
ENCODING -1
SWIDTH 603 0
DWIDTH 10 0
BBX 8 12 1 0
BITMAP
018EEB20
0BD55CE1
5F3001E8
BB000099
E8000000
F7000000
F7000000
E8000000
BC000089
5F3001E8
0BE64BE1
008DEB20
ENDCHAR
STARTCHAR G.ss06
ENCODING -1
SWIDTH 618 0
DWIDTH 10 0
BBX 8 12 1 0
BITMAP
018EEB30
0BD55BE2
5F3001E8
AC000067
E8000000
F7000000
F700AFFC
D90023AC
AC00009C
4F40009C
0AE647E9
007DFD70
ENDCHAR
STARTCHAR D.ss06
ENCODING -1
SWIDTH 608 0
DWIDTH 10 0
BBX 8 12 1 0
BITMAP
BFFEB400
BC449F50
BB0009E1
BB0002F6
BB0000D9
BB0000BB
BB0000BB
BB0000D9
BB0002F6
BB0009E1
BC44AF50
BFFEB400
ENDCHAR
STARTCHAR O.ss06
ENCODING -1
SWIDTH 643 0
DWIDTH 10 0
BBX 9 12 1 0
BITMAP
007DEA2000
0AE76CD100
4F4001E800
AC00008E00
D800004F30
F600002F40
F600002F40
D800004F30
AC00008E00
4F4001E800
0AE75CD100
008DEA2000
ENDCHAR
STARTCHAR Q.ss06
ENCODING -1
SWIDTH 644 0
DWIDTH 10 0
BBX 9 14 1 -2
BITMAP
007DEA2000
0AE76CD100
4F4001E800
AC00008E00
D800004F30
F600002F40
F600002F40
D800004F30
AC00008E00
4F4001E900
0AE75CD100
008DFF7000
000009F600
0000007300
ENDCHAR
STARTCHAR one.oldstyle.pnum
ENCODING -1
SWIDTH 421 0
DWIDTH 7 0
BBX 4 9 1 0
BITMAP
004C
3BFF
CB9F
206F
006F
006F
006F
006F
006F
ENDCHAR
STARTCHAR two.oldstyle.pnum
ENCODING -1
SWIDTH 492 0
DWIDTH 8 0
BBX 7 9 1 0
BITMAP
08EE9000
7E55E700
D800AB00
3100D800
0008E200
007F4000
06F50000
5F933300
BFFFFF10
ENDCHAR
STARTCHAR three.oldstyle.pnum
ENCODING -1
SWIDTH 474 0
DWIDTH 8 0
BBX 7 12 0 -3
BITMAP
4FFFFF80
13339E20
0003E500
001D8000
006FD400
00029E20
00000E70
00000C90
00000D90
00002F50
6745DC00
4BEEA100
ENDCHAR
STARTCHAR four.oldstyle.pnum
ENCODING -1
SWIDTH 524 0
DWIDTH 8 0
BBX 8 12 0 -3
BITMAP
00002FA0
0000AFA0
0004ECA0
000C7BA0
006E1BA0
01D60BA0
08D00BA0
2E733CB3
6FFFFFFE
00000BA0
00000BA0
00000BA0
ENDCHAR
STARTCHAR five.oldstyle.pnum
ENCODING -1
SWIDTH 483 0
DWIDTH 8 0
BBX 6 12 1 -3
BITMAP
5FFFFE
7D5555
9A0000
A90000
CCEE80
EB59F5
5100BB
00007D
00008D
0000CA
B549F3
7DFC50
ENDCHAR
STARTCHAR seven.oldstyle.pnum
ENCODING -1
SWIDTH 458 0
DWIDTH 7 0
BBX 7 12 0 -3
BITMAP
5FFFFFC0
13333D80
00002F30
00007C00
0000D700
0003F200
0009B000
000E6000
005F1000
00AA0000
01F50000
06E10000
ENDCHAR
STARTCHAR glyph592
ENCODING -1
SWIDTH 402 0
DWIDTH 6 0
BBX 4 5 1 10
BITMAP
6D3A
92D7
0000
E46D
5ED4
ENDCHAR
STARTCHAR glyph593
ENCODING -1
SWIDTH 183 0
DWIDTH 3 0
BBX 3 4 0 -3
BITMAP
4F20
4F20
4F20
4F20
ENDCHAR
STARTCHAR OE.c2sc
ENCODING -1
SWIDTH 714 0
DWIDTH 11 0
BBX 11 9 0 0
BITMAP
007EFFFFFFD0
08E648F33330
0E7006F00000
3F3006F00000
3F2006FFFF50
2F3006F33310
0E7006F00000
07E638F33330
008EFFFFFFE0
ENDCHAR
STARTCHAR nine.oldstyle.pnum
ENCODING -1
SWIDTH 520 0
DWIDTH 8 0
BBX 7 12 1 -3
BITMAP
07EEA100
4F74DA00
BA004F20
D7001F40
D7000F60
BB001F60
5F74BF60
07EEAF50
00004F20
0000AC00
1549F400
3DFC4000
ENDCHAR
STARTCHAR glyph596
ENCODING -1
SWIDTH 234 0
DWIDTH 4 0
BBX 4 5 -1 -3
BITMAP
0022
00BA
00BA
15E8
3EB1
ENDCHAR
STARTCHAR three.oldstyle
ENCODING -1
SWIDTH 494 0
DWIDTH 8 0
BBX 7 12 0 -3
BITMAP
0FFFFFD0
03335F60
0000C900
0009C000
002FE700
00026F60
00000AC0
000007E0
000008D0
00000DA0
3944BF30
29DFC300
ENDCHAR
STARTCHAR five.oldstyle
ENCODING -1
SWIDTH 494 0
DWIDTH 8 0
BBX 6 12 1 -3
BITMAP
4FFFFF
5E5555
7C0000
9A0000
ADDE90
CC58F7
4200AD
00006F
00006E
0000AC
A648F4
6CFD60
ENDCHAR
STARTCHAR four.oldstyle
ENCODING -1
SWIDTH 494 0
DWIDTH 8 0
BBX 8 12 0 -3
BITMAP
00004F70
0000CF70
0006DE70
001E5E70
008C0E70
02F40E70
0AB00E70
3F533E92
9FFFFFFC
00000E70
00000E70
00000E70
ENDCHAR
STARTCHAR two.oldstyle
ENCODING -1
SWIDTH 494 0
DWIDTH 8 0
BBX 6 9 1 0
BITMAP
09EE80
9D56F6
E700B9
3100E7
0009D1
008E30
07F400
6F8333
CFFFFF
ENDCHAR
STARTCHAR seven.oldstyle
ENCODING -1
SWIDTH 494 0
DWIDTH 8 0
BBX 8 12 0 -3
BITMAP
1FFFFFF1
033339D0
00000C70
00003F20
00008C00
0000D600
0004F100
0009B000
001E5000
005E1000
00BA0000
01F50000
ENDCHAR
STARTCHAR zero.oldstyle
ENCODING -1
SWIDTH 494 0
DWIDTH 8 0
BBX 8 9 0 0
BITMAP
01AEE910
0BD45E90
3F4005F1
6F0001F4
7E0000F5
6F0001F4
3F4005F2
0BD55D90
01AEE910
ENDCHAR
STARTCHAR six.oldstyle
ENCODING -1
SWIDTH 494 0
DWIDTH 8 0
BBX 6 12 1 0
BITMAP
018DA0
0BE730
5F3000
AA0000
DACFA1
EF65E8
F8008D
F6005F
D7005F
AB008D
4F75E7
06EE90
ENDCHAR
STARTCHAR nine.oldstyle
ENCODING -1
SWIDTH 494 0
DWIDTH 8 0
BBX 8 12 0 -3
BITMAP
019EE700
08E56E60
0E6008D0
2F3005F0
2F3004F2
1F7005F2
09E55DF2
01AEDBF1
000008D0
00001E80
0344CD10
06EEB200
ENDCHAR
STARTCHAR eight.oldstyle
ENCODING -1
SWIDTH 494 0
DWIDTH 8 0
BBX 7 12 0 0
BITMAP
009EE800
07E56F60
0C900AA0
0C900AB0
07D23E60
00CFFB00
07E55E50
0E7008C0
1F5006F0
0E7008D0
09E55E70
019EE800
ENDCHAR
STARTCHAR one.oldstyle
ENCODING -1
SWIDTH 494 0
DWIDTH 8 0
BBX 5 9 1 0
BITMAP
001870
07EF70
5E8E70
100D70
000D70
000D70
000D70
000D70
000D70
ENDCHAR
ENDFONT
